<?xml version="1.0" encoding="utf-8"?>
<!-- Generator: Adobe Illustrator 25.2.3, SVG Export Plug-In . SVG Version: 6.00 Build 0)  -->
<svg version="1.1" id="Слой_1" xmlns="http://www.w3.org/2000/svg" xmlns:xlink="http://www.w3.org/1999/xlink" x="0px" y="0px"
	 viewBox="0 0 589.7 648.2" style="enable-background:new 0 0 589.7 648.2;" xml:space="preserve">
<style type="text/css">
	.st0{fill:#EF4135;}
	.st1{fill:#0055A4;}
	.st2{fill:#FFFFFF;}
</style>
<g>
	<path class="st0" d="M294.8,220.9c-71.3,0-129.1,57.8-129.1,129.1S223.5,479,294.8,479s129.1-57.8,129.1-129.1
		S366.1,220.9,294.8,220.9z M294.8,451.3c-56,0-101.4-45.4-101.4-101.4s45.4-101.4,101.4-101.4S396.2,294,396.2,349.9
		S350.8,451.3,294.8,451.3z"/>
	<g>
		<circle class="st1" cx="294.8" cy="349.9" r="60"/>
	</g>
	<g>
		<path class="st1" d="M311.4,55.6v18.7C456.2,82.8,571,203,571,349.9c0,152.5-123.7,276.2-276.2,276.2S18.6,502.5,18.6,349.9
			c0-147.7,116-268.3,261.8-275.8V55.5C124.3,63,0,191.9,0,349.9c0,162.8,132,294.8,294.8,294.8s294.8-132,294.8-294.8
			C589.7,192.7,466.5,64.2,311.4,55.6z"/>
	</g>
	<path class="st1" d="M311.4,90.5v5c133.1,8.5,238.5,119.2,238.5,254.5c0,140.8-114.2,255-255,255s-255-114.2-255-255
		c0-136,106.5-247.1,240.6-254.6v-5C143.6,97.8,34.8,211.2,34.8,349.9c0,143.6,116.4,260,260,260s260-116.4,260-260
		C554.8,211.9,447.2,99,311.4,90.5z"/>
</g>
<g>
	<path class="st2" d="M392.4,414.6l-20.7-42.3L354,334c0,0,2.3-8.4,2.3-8.5l-0.7-10.2h-10.6l-5.1-12l-11.4-30.9l-3.9-27.1l3.7-5.2
		l0.3-6.9l-8.6-0.1l-4-25.1l-3.9-35l-1.3-13.2c0,0-1.9-17.9-2-18.3c-0.2-1.6-2.9-26.2-2.9-26.2l-1-14.9l-0.4-7.4l-0.3-13.2
		l-0.6-10.2l-1-11.4L302.7,47l0.5-7.6l0.8-4.2h1.4c1.7-0.3,1.5-2.7,0-3h-1.5l-1-2.6l-9-1.5l-3.8,0l-1.1,4.1
		c2.1,10.8,0.1,55.4-1.8,76.3c-1.8,20.4-6.5,64-6.5,64l-8.6,60.6l-8.6,0.3l0.1,5.7l4.1,6.6c0.1,8-6.8,34-6.8,34
		c-0.2,4.6-14.5,35.6-14.5,35.6h-10v10.4l1.9,8.6l-43.7,92.1l39.2-0.3l8.8-29.1c7.5-18.3,22.9-36.8,51.7-38.4
		c5.9-0.3,9.7,1.1,17,2.5c12.3,2.4,22.7,10.3,27.9,16.9c1.2,1,13.2,26.2,13.4,27c0.2,0.8,4.9,22,4.9,22l41.3,0.8L392.4,414.6z
		 M265.7,326.4l15.8-64.4h28.8l16.1,64L265.7,326.4z"/>
	<g>
		<path class="st1" d="M407.6,426.7c-1-1.5-2.3-2.9-3.6-4.2c-0.7-0.7-1.6,0-1.7,0.7h-5c-6.5-14.3-13.4-28.3-20.3-42.4
			c0.3-0.6,0-1.4-0.7-1.4c-3-6.2-6.1-12.4-9.1-18.6c0.1-0.5-0.1-1.1-0.6-1.3c-3.9-8-7.7-16-11.4-24.1c0.5-0.7,0.3-1.8-0.5-2.2
			c0.1-0.7,0.3-1.3,0.5-2c0.2-0.8,0.4-1.8,0.8-2.7c0.7-0.2,1-1,0.9-1.7c0,0,0,0,0,0c0.2-0.3,0.1-0.6-0.1-0.7c0.2-0.6,0-1.2-0.4-1.6
			v-7c0-0.6-1-0.6-1,0v0.2h-8.3c-0.3-0.6-0.5-1.1-0.7-1.7h8.7c0,0.2,0,0.3,0,0.5c0,0.6,1,0.6,1,0c0-0.2,0-0.3,0-0.5h1.1
			c0.6,0,0.6-1,0-1h-0.9c-0.1-0.3-0.5-0.5-0.8-0.2c-0.1,0.1-0.1,0.1-0.1,0.2H346c-3-6.8-6.1-13.7-8.8-20.8h1c1.3,0,1.3-2,0-2H337
			c0-0.2,0-0.3-0.2-0.4c-0.3-0.2-0.5-0.4-0.8-0.6c-1.8-4.7-3.4-9.4-4.8-14.1c0.1-0.1,0.1-0.2,0.2-0.2c0.1-0.1,0.1-0.2,0.1-0.4
			c0.3-0.5,0.2-1.2-0.1-1.8c-0.1-0.2-0.5-0.3-0.7-0.2c-0.1,0-0.1,0.1-0.2,0.2c-2.7-9.6-4.6-19.3-5.1-29.2c0.7-1.4,1.5-2.8,2.3-4.1
			h0.2c1.3,0,1.7-1.4,1.2-2.3c0,0,0,0,0,0v-5.2h0.5c0.6,0,0.6-1,0-1h-0.5c-0.1-0.4-0.8-0.4-0.9,0h-3c-0.1-0.4-0.8-0.4-0.9,0h-3.3
			c-0.5-2.3-0.9-4.7-1.3-7c1.1-0.2,1.1-2-0.1-2h-0.2c-5.3-30.2-7.7-60.8-11.2-91.3c-0.6-5.2-1.1-10.3-1.6-15.5
			c0.9-0.3,0.9-1.8-0.2-1.9c-1-11.1-1.7-22.2-1.9-33.5c-0.1-7.7-0.9-15.6-1.3-23.4c0.1-0.3,0.1-0.7,0-0.9c-0.2-4.6-0.3-9.2,0-13.7
			c0.2-0.4,0.2-0.8,0.1-1.2c0.2-2.3,0.5-4.7,0.9-7h1.2c1.9,0,1.9-3,0-3h-1.4c-0.3-0.9-0.6-1.7-1-2.6c1.4-0.5,1.2-2.9-0.5-2.9h-3.5
			c1.9,0,1.9-3,0-3h-1.9V0.5c0-0.5-0.5-0.6-0.8-0.4c-0.3-0.2-0.8-0.1-0.8,0.4v23.3h-1.9c-1.9,0-1.9,3,0,3h-3.5
			c-1.7,0-1.9,2.4-0.5,2.9c-0.4,0.9-0.7,1.7-1,2.6H287c-1.9,0-1.9,3,0,3h1.2c0.4,2.3,0.7,4.6,0.9,7c-0.1,0.4-0.1,0.8,0.1,1.2
			c0.3,4.5,0.2,9.1,0,13.7c-0.2,0.3-0.2,0.6,0,0.9c-0.4,7.9-1.2,15.7-1.3,23.4c-0.2,11.3-0.9,22.4-1.9,33.5c-1,0.1-1.1,1.6-0.2,1.9
			c-0.5,5.1-1,10.3-1.6,15.5c-3.5,30.5-5.9,61.1-11.2,91.3h-0.2c-1.2,0-1.3,1.8-0.2,2c-0.4,2.3-0.9,4.7-1.3,7h-3.3
			c-0.1-0.4-0.8-0.4-0.9,0h-3c-0.1-0.4-0.8-0.4-0.9,0h-0.5c-0.6,0-0.6,1,0,1h0.5v5.2c0,0,0,0,0,0c-0.5,0.9-0.1,2.3,1.2,2.3h0.2
			c0.8,1.3,1.6,2.7,2.3,4.1c-0.5,9.9-2.4,19.6-5.1,29.2c-0.1-0.1-0.1-0.1-0.2-0.2c-0.2-0.1-0.6-0.1-0.7,0.2
			c-0.3,0.6-0.4,1.3-0.1,1.8c0,0.1,0,0.2,0.1,0.4c0.1,0.1,0.1,0.2,0.2,0.2c-1.4,4.8-3.1,9.5-4.8,14.1c-0.3,0.2-0.5,0.4-0.8,0.6
			c-0.1,0.1-0.2,0.3-0.2,0.4h-1.2c-1.3,0-1.3,2,0,2h1c-2.8,7-5.8,14-8.8,20.8h-9.5c0-0.1-0.1-0.1-0.1-0.2c-0.3-0.3-0.7-0.1-0.8,0.2
			h-0.9c-0.6,0-0.6,1,0,1h1.1c0,0.2,0,0.3,0,0.5c0,0.6,1,0.6,1,0c0-0.2,0-0.3,0-0.5h8.7c-0.2,0.6-0.5,1.1-0.7,1.7h-8.3v-0.2
			c0-0.6-1-0.6-1,0v7c-0.5,0.4-0.6,1.1-0.4,1.6c-0.2,0.2-0.3,0.5-0.1,0.7c0,0,0,0,0,0c-0.1,0.7,0.2,1.5,0.9,1.7
			c0.3,0.9,0.6,1.9,0.8,2.7c0.2,0.7,0.3,1.3,0.5,2c-0.8,0.4-0.9,1.5-0.5,2.2c-3.7,8.1-7.5,16.1-11.4,24.1c-0.6,0.2-0.8,0.8-0.6,1.3
			c-3,6.2-6.1,12.4-9.1,18.6c-0.7,0.1-1,0.9-0.7,1.4c-6.9,14.1-13.8,28.2-20.3,42.4h-5c0-0.8-1-1.4-1.7-0.7
			c-1.3,1.3-2.6,2.7-3.6,4.2c-0.6,0.8,0.4,1.6,1.2,1.4c0.2,0.3,0.6,0.6,1.2,0.6h49.8c1.5,0,1.8-1.8,1-2.6c1.4-0.5,1.2-2.9-0.5-2.9
			h-0.4c1.3-7.2,3-14.6,5.5-21.7c0.2-0.2,0.3-0.5,0.3-0.8c2.7-7.5,6.1-14.6,10.8-20.9c9.5-13,24.4-16.9,39.2-20.4h7.1
			c14.8,3.5,29.7,7.5,39.2,20.4c4.6,6.3,8.1,13.4,10.8,20.9c0,0.3,0.1,0.6,0.3,0.8c2.5,7.1,4.2,14.5,5.5,21.7H355
			c-1.7,0-1.9,2.4-0.5,2.9c-0.8,0.8-0.5,2.6,1,2.6h49.8c0.5,0,0.9-0.2,1.2-0.6C407.2,428.3,408.2,427.5,407.6,426.7z M384.1,399.7
			h-17.3c-0.9-2.1-1.8-4.3-2.7-6.4c-0.3-0.7-0.6-1.4-0.8-2.1c4,2.2,8.1,4.3,12.3,6.3c0.6,0.3,1.1-0.6,0.5-0.9
			c-4.2-2-8.2-4.1-12.3-6.3c4,0.3,8,0.8,12,0.9c0.6,0,0.6-1,0-1c-4.2-0.2-8.4-0.6-12.7-1c2.7-2,5.5-3.7,8.3-5.1
			c0.6-0.3,0.1-1.1-0.5-0.9c-2.9,1.4-5.9,3.2-8.6,5.3c-0.9-2.4-1.8-4.9-2.6-7.3h15.5C378.1,387.4,381.1,393.6,384.1,399.7z
			 M369.8,409.1c-0.3-0.1-0.5-0.3-0.8-0.4c-4.5-2.2-9.8-3.8-13.8-7h11.3C367.6,404.2,368.7,406.7,369.8,409.1z M300.3,344.8
			c-1.2-1.1-2.4-2.3-3.3-3.7c0.7-1,1.6-1.8,2.6-2.5c0.1-0.1,0.2-0.2,0.2-0.3c1.3,1.1,2.5,2.1,3.8,3.2
			C302.5,342.6,301.4,343.7,300.3,344.8z M300.4,346.2c1.6,1.4,3.2,2.7,4.7,4.2c0,0.2-0.1,0.3-0.1,0.5h-8.1
			C297.9,349.2,299.1,347.6,300.4,346.2z M300.1,337.2c-0.4-0.4-1,0.1-0.8,0.5c0,0-0.1,0-0.1,0c-1.2,0.8-2.2,1.8-3.1,3
			c-0.9-1.2-1.9-2.2-3.1-3c0,0-0.1,0-0.1,0c0.2-0.4-0.4-0.9-0.8-0.5c-1.5,1.2-2.9,2.4-4.3,3.7c-1.4-1.3-2.8-2.5-4.1-3.8
			c0,0,0.1-0.1,0.1-0.1c0.5-0.4,0-1.2-0.5-0.9c-0.1,0.1-0.2,0.2-0.3,0.2c-0.1-0.2-0.3-0.3-0.5-0.5h27.1c-0.1,0.2-0.3,0.3-0.5,0.5
			c-0.1-0.1-0.2-0.2-0.3-0.2c-0.5-0.4-1,0.5-0.5,0.9c0,0,0.1,0.1,0.1,0.1c-1.3,1.3-2.7,2.6-4.1,3.8
			C303,339.7,301.5,338.4,300.1,337.2z M288.5,341.6c1.2-1.1,2.5-2.2,3.8-3.2c0,0.1,0.1,0.2,0.2,0.3c1,0.7,1.9,1.5,2.6,2.5
			c-0.9,1.4-2.1,2.5-3.3,3.7C290.8,343.7,289.6,342.6,288.5,341.6z M295.3,350.9h-8.1c0-0.2-0.1-0.3-0.1-0.5
			c1.5-1.5,3.1-2.8,4.7-4.2C293.1,347.6,294.3,349.2,295.3,350.9z M234.2,379.3c0.9-2.9,1.9-5.7,2.8-8.6c0.8,0,1.6,0,2.5,0
			c2.7,2.7,5.1,5.7,7.3,8.6H234.2z M243.9,381.3c-4.3,2.6-8.7,5.3-13.1,7.7c0.9-2.6,1.9-5.1,2.7-7.7H243.9z M233.8,358.7
			c0.2,0.2,0.4,0.4,0.6,0.6h-1.4C233.3,359.1,233.6,358.9,233.8,358.7z M231.7,359.2c-0.3-0.5-0.7-0.9-1.1-1.4
			c0.4-0.5,0.8-0.9,1.2-1.3c0.5,0.5,0.9,0.9,1.4,1.4C232.7,358.4,232.2,358.8,231.7,359.2z M233.9,357.3c-0.5-0.5-1-1-1.4-1.5
			c0.5-0.5,0.9-0.9,1.4-1.4c0.5,0.5,0.9,1,1.4,1.5C234.8,356.5,234.3,356.9,233.9,357.3z M256.5,318.8c-0.6,1.7-1.2,3.4-1.9,5.1h-5
			c0-0.4,0.1-0.7,0.1-1.1C252,321.6,254.3,320.2,256.5,318.8z M249.8,321.7c0.1-1.1,0.3-2.2,0.4-3.2h5.1
			C253.5,319.6,251.7,320.7,249.8,321.7z M294.3,183.2c0.4,1,0.8,2,1.2,2.9c-0.4,0.9-0.7,1.7-1.1,2.6c-0.3,0.6,0.6,1.1,0.9,0.5
			c0.3-0.6,0.6-1.2,0.8-1.8c0.8,1.9,1.6,3.8,2.2,5.7c0.1,0.3,0.3,0.4,0.5,0.3c0,0.1,0,0.2,0,0.4h-2.1c-0.3,0-0.5,0.1-0.7,0.3
			c-0.2-0.2-0.4-0.3-0.7-0.3h-2.1C293.7,190.3,294,186.7,294.3,183.2z M293.8,163.5c-1.2-1.4-2.3-2.7-3.5-4c0.5-0.5,1.1-1,1.6-1.5
			c0.8-0.8,2-1.9,2.4-3.1C294.2,157.8,294,160.6,293.8,163.5z M294.8,114.1c-0.7-1.3-1.4-2.5-2.1-3.8c0.7-0.8,1.4-1.6,2.1-2.5
			C294.7,109.9,294.7,112,294.8,114.1z M294.8,101.1c-0.5-0.8-1-1.6-1.6-2.3c0.5-0.6,1-1.1,1.6-1.7
			C294.8,98.5,294.8,99.8,294.8,101.1z M294.8,118.8c0,2.3,0,4.6,0.1,7c-0.9-1.2-1.8-2.4-2.7-3.6C293.1,121.1,294,120,294.8,118.8z
			 M292.9,87.9c-0.6-0.9-1.4-1.8-2.3-2.5h4.2c0,0,0,0,0,0C294.2,86.2,293.5,87.1,292.9,87.9z M294.8,87c0,1.3,0,2.5,0,3.8
			c-0.4-0.7-0.9-1.4-1.3-2c0,0,0.1-0.1,0.1-0.1C294,88.1,294.4,87.5,294.8,87z M292.3,88.7c-0.9,1.3-1.8,2.5-2.8,3.7
			c0-2.2,0.1-4.4,0.1-6.7c0,0.1,0.1,0.2,0.2,0.3C290.9,86.7,291.6,87.7,292.3,88.7z M292.9,89.6c0.6,1,1.2,2,1.9,2.9
			c0,0.4,0,0.7,0,1.1h-5C291,92.3,291.9,91,292.9,89.6z M289.7,84.4C289.7,84.4,289.7,84.4,289.7,84.4c0.1,0,0.2,0,0.3-0.1
			c1.5-0.7,2.3-2,3.1-3.4c0.6,0.8,1.2,1.6,1.8,2.5c0,0.3,0,0.7,0,1H289.7z M291.3,40.5c0.1,0.4,0.4,0.4,0.6,0.3c0,0.1,0,0.3,0,0.4
			h-1c-0.1-1.9-0.4-3.8-0.7-5.6C290.7,37.2,291,38.8,291.3,40.5z M291.2,35.2h0.3c0,0.6,0.1,1.2,0.2,1.8
			C291.5,36.4,291.4,35.8,291.2,35.2z M294.9,44.2c0,0.2,0,0.4,0,0.6c-0.5,0.5-1,1.1-1.4,1.6c-0.4-0.7-0.9-1.5-1.3-2.2H294.9z
			 M293.5,35.2h1.4c0,2,0,4,0,6h-1C293.9,39.2,293.6,37.2,293.5,35.2z M294.6,67.4c-0.4,0.5-0.9,1-1.3,1.5c-0.4-0.7-0.8-1.4-1.3-2.1
			c0.7-0.1,1.4-0.1,2.2-0.1C294.1,67.1,294.4,67.4,294.6,67.4z M295,68.5c0,1.1,0,2.3,0,3.4c-0.4-0.7-0.8-1.3-1.1-2
			C294.3,69.4,294.6,69,295,68.5z M291.4,66c-0.2-0.2-0.4-0.5-0.6-0.7c0.8-0.8,1.6-1.7,2.4-2.6c0.6,1,1.2,2,1.9,2.9
			c0,0.1,0,0.1,0,0.2C293.8,65.8,292.6,65.8,291.4,66z M291.3,51.6c0.4,0.7,0.9,1.5,1.3,2.2c-0.5,0.6-1.1,1.1-1.5,1.8
			c0.1-1.5,0.1-2.9,0.1-4.4h0.1C291.2,51.3,291.2,51.4,291.3,51.6z M293.1,54.6c0.5,0.7,1,1.4,1.6,2.1h-3.3c0,0,0.1,0,0.1-0.1
			C292,55.9,292.6,55.2,293.1,54.6z M291.4,58.7c-0.1,0.1-0.2,0.4-0.1,0.6c0.5,0.8,0.9,1.7,1.3,2.5c-0.7,0.8-1.4,1.6-2.1,2.4
			c0.1-1.8,0.2-3.6,0.4-5.4H291.4z M292.2,58.7C292.2,58.7,292.1,58.7,292.2,58.7l2.7-0.1c-0.5,0.8-1,1.5-1.6,2.2
			C292.9,60.2,292.6,59.4,292.2,58.7z M293.9,53.9c0.4-0.3,0.7-0.6,1.1-1c0,0.8,0,1.7,0,2.5C294.6,55,294.2,54.5,293.9,53.9z
			 M293.4,53.1c-0.4-0.6-0.8-1.3-1.1-1.9h2.7c0,0.2,0,0.4,0,0.6C294.4,52.2,293.9,52.6,293.4,53.1z M294.9,46.3c0,0.8,0,1.6,0,2.4
			c-0.3-0.4-0.6-0.9-0.9-1.4C294.3,46.9,294.6,46.6,294.9,46.3z M292.8,47.2c-0.5,0.5-0.9,1-1.4,1.5c-0.4,0.5,0.3,1.2,0.7,0.7
			c0.4-0.4,0.8-0.9,1.2-1.3c0.5,0.7,1,1.4,1.5,2.1h-3.6c0-2,0-4-0.1-6h0.2c0,0.1-0.1,0.3,0,0.4C291.8,45.5,292.3,46.3,292.8,47.2z
			 M290.4,67.1c0.1,0,0.1,0,0.2,0c0.1,0,0.3,0,0.4-0.1c0.7,0.9,1.2,1.8,1.8,2.8c-0.9,1.3-1.8,2.6-2.7,3.9c0,0,0,0,0,0.1
			C290.1,71.5,290.2,69.3,290.4,67.1z M290.9,74.2c0.8-1.1,1.6-2.3,2.4-3.4c0.5,1,1.1,2,1.7,2.9c-1.6,0.5-3.3,0.8-5,0.9
			c0-0.1,0-0.3,0-0.4C290.1,74.4,290.6,74.6,290.9,74.2z M294.9,76.4l0,0.4c-0.8,0.7-1.3,1.5-1.9,2.4c-0.6-0.9-1.2-1.8-1.7-2.8
			c0.3,0,0.5-0.1,0.8-0.1C293.1,76.4,294,76.4,294.9,76.4z M290.3,76.5c0.6,1.3,1.4,2.5,2.2,3.7c-0.8,1.3-1.5,2.5-2.8,3.2
			c0-1.3,0-2.5,0.1-3.8c0-1,0.1-2,0.1-3.1C290,76.6,290.2,76.5,290.3,76.5z M293.7,80.1c0.4-0.6,0.8-1.3,1.3-1.8c0,1.2,0,2.3,0,3.5
			C294.5,81.2,294.1,80.6,293.7,80.1z M294.9,130.4c0,1.8,0.1,3.6,0.1,5.5c0,0.3,0,0.6,0,0.9c0,0.7,0,1.4-0.1,2.1
			c-0.4-0.4-0.9-1.1-1.2-1.5c-0.8-1-1.6-2-2.4-3c-0.1-0.2-0.3-0.3-0.4-0.5C292.4,132.7,293.7,131.6,294.9,130.4z M299.9,44.2
			c-0.4,0.8-0.8,1.5-1.2,2.2c-0.5-0.5-1-1.1-1.5-1.6c0-0.2,0-0.4,0-0.6H299.9z M297.2,41.2c0-2,0-4,0-6h1.4c-0.1,2-0.4,4-0.4,6
			H297.2z M300.9,40.5c0.3-1.7,0.6-3.3,1-4.9c-0.3,1.9-0.5,3.7-0.7,5.6h-1c0-0.1,0-0.3,0-0.4C300.5,40.9,300.8,40.9,300.9,40.5z
			 M300.5,37c0.1-0.6,0.1-1.2,0.1-1.8h0.3C300.8,35.8,300.6,36.4,300.5,37z M297.4,97.1c0.5,0.5,1.1,1.1,1.6,1.7
			c-0.6,0.8-1.1,1.5-1.6,2.3C297.4,99.8,297.4,98.5,297.4,97.1z M297.4,107.8c0.7,0.8,1.4,1.7,2.1,2.5c-0.7,1.3-1.4,2.5-2.1,3.8
			C297.4,112,297.4,109.9,297.4,107.8z M300,122.2c-0.9,1.2-1.8,2.4-2.7,3.6c0-2.3,0.1-4.6,0.1-7C298.1,120,299.1,121.1,300,122.2z
			 M297.3,85.4C297.3,85.4,297.3,85.4,297.3,85.4l4.2,0c-0.9,0.7-1.6,1.6-2.3,2.5C298.6,87.1,298,86.2,297.3,85.4z M298.6,88.8
			c-0.4,0.7-0.9,1.4-1.3,2c0-1.3,0-2.5,0-3.8c0.4,0.5,0.9,1.1,1.3,1.7C298.6,88.7,298.6,88.7,298.6,88.8z M297.3,92.5
			c0.7-0.9,1.3-1.9,1.9-2.9c1,1.4,1.9,2.7,3.1,4h-5C297.4,93.2,297.3,92.8,297.3,92.5z M299.8,88.7c0.7-1,1.5-2,2.5-2.7
			c0.1-0.1,0.2-0.2,0.2-0.3c0,2.2,0.1,4.5,0.1,6.7C301.6,91.2,300.7,90,299.8,88.7z M297.3,84.4c0-0.3,0-0.7,0-1
			c0.6-0.8,1.2-1.6,1.8-2.5c0.8,1.3,1.6,2.6,3.1,3.4c0.1,0.1,0.2,0.1,0.3,0c0,0,0,0,0,0H297.3z M297.9,66.8c0.7,0,1.4,0,2.2,0.1
			c-0.5,0.7-0.9,1.4-1.3,2.1c-0.4-0.5-0.8-1-1.3-1.5C297.8,67.4,298,67.1,297.9,66.8z M298.3,69.9c-0.4,0.7-0.7,1.3-1.1,2
			c0-1.1,0-2.3,0-3.4C297.5,69,297.9,69.4,298.3,69.9z M298.5,80.1c-0.4,0.6-0.8,1.1-1.2,1.7c0-1.2,0-2.3,0-3.5
			C297.7,78.8,298.1,79.4,298.5,80.1z M297.2,76.8l0-0.4c0.9,0,1.8,0,2.7-0.1c0.3,0,0.6,0.1,0.8,0.1c-0.5,1-1.1,1.9-1.7,2.8
			C298.5,78.4,297.9,77.5,297.2,76.8z M299.6,80.2c0.8-1.2,1.6-2.4,2.2-3.7c0.2,0,0.3,0,0.5,0c0,1,0.1,2,0.1,3.1
			c0,1.3,0,2.5,0.1,3.8C301.1,82.7,300.4,81.5,299.6,80.2z M297.2,73.7c0.6-0.9,1.2-1.9,1.7-2.9c0.8,1.1,1.6,2.3,2.4,3.4
			c0.3,0.4,0.8,0.2,0.9-0.1c0,0.1,0,0.3,0,0.4C300.5,74.5,298.8,74.2,297.2,73.7z M302.1,73.7c-0.9-1.3-1.8-2.6-2.7-3.9
			c0.5-1,1.1-1.9,1.8-2.8c0.1,0,0.3,0,0.4,0.1c0.1,0,0.1,0,0.2,0C301.9,69.3,302,71.5,302.1,73.7C302.1,73.7,302.1,73.7,302.1,73.7z
			 M300.9,51.2L300.9,51.2c0.1,1.5,0.1,2.9,0.2,4.4c-0.5-0.6-1-1.2-1.5-1.8c0.4-0.7,0.9-1.5,1.3-2.2
			C300.9,51.4,300.9,51.3,300.9,51.2z M300.6,56.6C300.6,56.6,300.7,56.6,300.6,56.6l-3.2,0.1c0.6-0.6,1.1-1.3,1.6-2.1
			C299.6,55.2,300.1,55.9,300.6,56.6z M300.7,58.7h0.5c0.1,1.8,0.2,3.6,0.3,5.4c-0.7-0.8-1.4-1.5-2.1-2.4c0.4-0.8,0.9-1.7,1.3-2.5
			C300.9,59,300.9,58.8,300.7,58.7z M300.8,44.6c0.1-0.2,0.1-0.3,0-0.4h0.2c-0.1,2-0.1,4-0.1,6h-3.6c0.5-0.7,1-1.4,1.5-2.1
			c0.4,0.4,0.8,0.9,1.2,1.3c0.4,0.5,1.1-0.2,0.7-0.7c-0.5-0.5-0.9-1-1.4-1.5C299.9,46.3,300.4,45.5,300.8,44.6z M298.1,47.3
			c-0.3,0.5-0.6,0.9-0.9,1.4c0-0.8,0-1.6,0-2.4C297.5,46.6,297.8,46.9,298.1,47.3z M299.9,51.2c-0.4,0.6-0.8,1.3-1.1,1.9
			c-0.5-0.5-1.1-0.9-1.6-1.4c0-0.2,0-0.4,0-0.6H299.9z M298.3,53.9c-0.3,0.5-0.7,1.1-1.1,1.6c0-0.8,0-1.7,0-2.5
			C297.5,53.3,297.9,53.6,298.3,53.9z M300,58.7C300,58.7,300,58.7,300,58.7c-0.5,0.8-0.8,1.5-1.2,2.2c-0.6-0.7-1.1-1.5-1.6-2.2H300
			z M299,62.7c0.8,0.9,1.6,1.8,2.4,2.6c-0.2,0.2-0.4,0.5-0.6,0.7c-1.2-0.1-2.4-0.2-3.7-0.2c0-0.1,0-0.1,0-0.2
			C297.8,64.7,298.4,63.7,299,62.7z M297.1,135.9c0-1.8,0.1-3.6,0.1-5.5c1.3,1.1,2.6,2.3,3.9,3.4c-0.1,0.2-0.3,0.3-0.4,0.5
			c-0.8,1-1.6,2-2.4,3c-0.3,0.4-0.7,1.1-1.1,1.5c0-0.7,0-1.4-0.1-2.1C297.1,136.5,297.1,136.2,297.1,135.9z M297.8,183
			c-0.2-0.2-0.6-0.3-0.8,0.1c-0.4,0.6-0.7,1.2-0.9,1.9c-0.5-1.2-1-2.5-1.4-3.8c0-0.1-0.1-0.1-0.1-0.2c0-0.1,0-0.1,0-0.2h3
			C297.7,181.6,297.7,182.3,297.8,183z M297.2,141.6c1.5,1.5,3,3,4.5,4.5c-1.3,1.8-2.6,3.5-4.1,5.1
			C297.5,148,297.3,144.8,297.2,141.6z M297.9,183.6c0.2,2.5,0.5,5,0.7,7.5c-0.6-1.6-1.3-3.3-2-4.9
			C297,185.3,297.4,184.4,297.9,183.6z M297.8,154.9c0.5,1.2,1.7,2.3,2.4,3.1c0.5,0.5,1,1,1.6,1.5c-1.2,1.3-2.4,2.7-3.5,4
			C298.1,160.6,298,157.8,297.8,154.9z M298.5,167.1c0-0.1,0-0.1,0-0.2h9.6c-1.5,1.6-3,3.3-4.4,5C302,170.3,300.2,168.7,298.5,167.1
			z M303.1,172.7c-1.3,1.6-2.5,3.3-3.7,5c-0.3-3-0.5-6-0.7-9.1C300.1,170,301.6,171.3,303.1,172.7z M294.5,151.2
			c-1.5-1.5-2.8-3.3-4.1-5.1c1.5-1.5,3-3,4.5-4.5C294.8,144.8,294.7,148,294.5,151.2z M293.6,167.1c-1.7,1.6-3.4,3.2-5.2,4.8
			c-1.4-1.7-2.9-3.4-4.4-5h9.6C293.6,166.9,293.6,167,293.6,167.1z M293.5,168.6c-0.2,3-0.5,6.1-0.7,9.1c-1.2-1.7-2.4-3.4-3.7-5
			C290.6,171.3,292,170,293.5,168.6z M293,196.2c0.8,1.7,1.5,3.3,2.3,4.9c-1.1,2-2.3,4.1-3.2,6.2c-0.3,0.6,0.6,1.1,0.9,0.5
			c0.9-1.9,1.9-3.8,2.9-5.6c1.1,2.2,2.2,4.5,3.5,6.6c0.3,0.6,1.2,0,0.9-0.5c-1.4-2.3-2.6-4.7-3.7-7.1c0.8-1.4,1.6-2.9,2.4-4.3
			c0.3-0.6-0.5-1.1-0.9-0.5c-0.7,1.3-1.4,2.5-2.1,3.7c-0.7-1.4-1.3-2.9-2-4.3h1.4c0.3,0,0.5-0.1,0.7-0.3c0.2,0.2,0.4,0.3,0.7,0.3
			h2.3c0.5,4.6,1,9.2,1.6,13.8c-0.2-0.2-0.6-0.2-0.7,0.1c-1,2-2.2,4.1-3.5,6c-1.3-1.9-2.5-3.8-3.6-5.8c0.3,0,0.6,0,0.8,0
			c1.5,0,2.9-0.1,4.4-0.1c0.6,0,0.6-1,0-1c-1.1,0-2.3,0.1-3.4,0.1c-0.4,0-1.6,0.1-2.3,0c0-0.1-0.1-0.1-0.1-0.1
			c-0.1-0.2-0.3-0.3-0.5-0.2c0,0-0.1,0-0.1,0C292.1,204.3,292.6,200.3,293,196.2z M342.4,322.9c0,0.4,0.1,0.7,0.1,1.1h-5
			c-0.6-1.7-1.3-3.4-1.9-5.1C337.9,320.2,340.1,321.6,342.4,322.9z M336.8,318.4h5.1c0.1,1.1,0.3,2.2,0.4,3.2
			C340.5,320.7,338.6,319.6,336.8,318.4z M362.1,358.7c0.3,0.2,0.5,0.5,0.8,0.7h-2.3c-0.7-0.5-1.4-1.1-2.1-1.7
			c0.3-0.5,0.6-0.9,1-1.4c0.6,0.6,1.3,1.2,1.9,1.8c0,0,0,0.1,0,0.1C361.3,358.6,361.8,358.9,362.1,358.7z M359,359.3h-1.6
			c0.2-0.3,0.4-0.6,0.5-0.9C358.4,358.8,358.7,359.1,359,359.3z M357.8,357c-0.5-0.5-1-1-1.5-1.5c0.3-0.4,0.7-0.8,1-1.1
			c0.5,0.4,1,0.8,1.5,1.3C358.5,356,358.1,356.5,357.8,357z M356.5,359.3h-0.1c-0.6-0.6-1.3-1.1-1.9-1.7c0.4-0.5,0.8-1,1.2-1.5
			c0.5,0.6,1.1,1.1,1.6,1.6c-0.3,0.4-0.5,0.8-0.8,1.2C356.5,359.1,356.5,359.2,356.5,359.3z M302.2,328.4v4.2c0,0.1,0.1,0.3,0.1,0.3
			h-12.5c0.1-0.1,0.1-0.2,0.1-0.3v-4.2H302.2z M290.3,323.9v-5.5h2.4c0.1,0.1,0.2,0.2,0.4,0.2h8.1c0.2,0,0.3-0.1,0.4-0.2h0.3v5.5
			H290.3z M301.9,316.3v1.2h-3.5c-0.2,0-0.3,0.1-0.4,0.2h-3.8c0-0.2-0.1-0.5-0.5-0.5c-0.2,0-0.4,0.1-0.4,0.3h-3.1v-1.2
			c0-0.6-1-0.6-1,0v1.2h-13.5v-0.8c0-0.6-1-0.6-1,0v0.8h-5.7c0.1-0.6,0.3-1.1,0.4-1.7h53.1c0.1,0.6,0.3,1.1,0.4,1.7h-5.7v-0.8
			c0-0.6-1-0.6-1,0v0.8h-13.5v-1.2C302.9,315.6,301.9,315.6,301.9,316.3z M251.7,359.3h-1c0,0,0.1,0,0.1-0.1
			c0.1-0.2,0.3-0.3,0.4-0.5C251.4,359,251.5,359.2,251.7,359.3z M245.9,359.3h-1.8c-0.3-0.4-0.6-0.7-0.9-1c0.4-0.6,0.9-1.2,1.4-1.7
			c0.4,0.6,0.9,1.2,1.4,1.8c-0.1,0.1-0.1,0.2-0.2,0.3C245.6,358.8,245.7,359.2,245.9,359.3z M252,336.6c0.2-0.2,0.3-0.5,0.5-0.7h1.7
			c0,0,0,0,0,0c0.3,0.3,0.5,0.6,0.8,0.9c-1,1.5-2.1,2.9-3.2,4.4c-0.6-0.7-1.3-1.3-1.9-1.9c0.7-0.7,1.3-1.3,2-2
			C252.2,337.1,252.2,336.8,252,336.6z M258.7,317.5c0.9-0.6,1.8-1.1,2.7-1.7h0.4c0,0.1,0,0.1-0.1,0.2c0,0.5-0.1,1-0.1,1.5H258.7z
			 M261.5,318.4c0,0.7-0.1,1.4-0.1,2.1c-0.9-0.7-1.7-1.4-2.5-2.1H261.5z M258.4,316.5c0.1-0.2,0.2-0.5,0.2-0.7h0.9
			C259.1,316,258.8,316.3,258.4,316.5z M261.4,321.7c0,0.7,0,1.5,0,2.2h-5.6c0.7-1.7,1.3-3.5,1.9-5.2
			C258.8,319.8,260.1,320.8,261.4,321.7z M262.6,328.4v4.5h-10.2v-4.5H262.6z M262.6,315.8h4.9c-0.1,0.6-0.3,1.1-0.4,1.7h-4.6
			c0-0.5,0.1-1,0.1-1.5C262.6,315.9,262.6,315.8,262.6,315.8z M263.1,336.9c1.8,1.6,3.7,3.2,5.6,4.9c-1.2,1.2-2.4,2.3-3.6,3.4
			c-1-1.2-2.1-2.3-3.3-3.3c-0.5-0.4-1.2,0.3-0.7,0.7c1.2,1,2.3,2.1,3.3,3.3c-1.8,1.6-3.6,3.3-5.3,5h-0.4c0-0.4-0.7-0.7-0.9-0.3
			c0,0.1-0.1,0.2-0.1,0.3h-0.2c1.6-5.1,3.4-10.1,5.5-15h9.7c0.3,0.3,0.6,0.6,0.9,0.8c-0.1,0-0.1,0.1-0.2,0.1
			c-1.2,1.5-2.5,2.9-3.9,4.2c-1.9-1.6-3.8-3.2-5.6-4.9C263.3,335.8,262.6,336.5,263.1,336.9z M256,347.4c0.2-0.2,0.5-0.5,0.7-0.7
			c-0.2,0.5-0.3,0.9-0.5,1.4C256.2,347.9,256.1,347.6,256,347.4z M257.1,358.1c-0.4-0.3-0.8-0.6-1.1-0.9c0.1-0.2,0.1-0.3,0.2-0.5
			C256.5,357.2,256.8,357.6,257.1,358.1z M255.6,346.5c-0.3-0.7-0.7-1.3-1.1-2c1.2-1.4,2.3-2.8,3.4-4.3c0.3,0.4,0.5,0.8,0.8,1.2
			c-0.4,1-0.8,2.1-1.2,3.2C256.8,345.2,256.2,345.8,255.6,346.5z M252,354.3c0.3,0.3,0.6,0.7,0.9,1c-0.6,0.6-1.2,1.3-1.8,2
			c-0.5-0.6-1.1-1.2-1.6-1.8c0.9-1,1.9-2,3-2.7h2.3c-0.1,0.3-0.2,0.6-0.3,1c-0.3,0.3-0.6,0.6-0.8,0.8c-0.3-0.3-0.6-0.7-0.9-1
			C252.3,353.2,251.6,353.9,252,354.3z M247,350.5c-0.1,0.1-0.2,0.2-0.2,0.4h-3.4c0-0.1-0.1-0.1-0.1-0.2c0.1,0,0.2,0,0.4-0.1
			c1.4-0.9,2.6-2,3.8-3.2c0.4,0.6,0.7,1.2,1.1,1.7C248,349.7,247.5,350.1,247,350.5z M247.4,352.9c-1,0.6-1.9,1.3-2.7,2.1
			c-0.3-0.5-0.6-1-0.9-1.5c0.2-0.2,0.5-0.4,0.8-0.6H247.4z M241.8,348.3c1.2-1.3,2.4-2.7,3.6-4c0.5,0.8,1,1.6,1.5,2.4
			c-1.2,1.1-2.5,2.2-3.8,3.2c-0.1,0.1-0.2,0.3-0.2,0.4C242.6,349.5,242.2,348.9,241.8,348.3z M242.2,350.9h-3.1
			c0.7-0.6,1.3-1.2,2-1.9C241.5,349.6,241.9,350.2,242.2,350.9z M258.8,338.2c0.6-0.5,1.2-1,1.8-1.6c-0.5,1.2-1,2.5-1.5,3.7
			c-0.2-0.3-0.4-0.6-0.6-0.8c0.2-0.2,0.3-0.4,0.5-0.6C259.2,338.5,259,338.3,258.8,338.2z M257.6,337.8c-0.1,0.1-0.1,0.1-0.2,0.2
			c-0.4-0.5-0.8-0.9-1.1-1.4c0.1-0.2,0.2-0.3,0.4-0.5c0.1-0.1,0.1-0.2,0.1-0.3h3.1C259.1,336.6,258.4,337.3,257.6,337.8z
			 M257.3,339.4c-1.1,1.4-2.2,2.9-3.4,4.2c-0.4-0.6-0.9-1.2-1.3-1.8c1.1-1.4,2.2-2.9,3.2-4.4C256.3,338.1,256.8,338.8,257.3,339.4z
			 M254.8,347.2c-1,1.1-2.1,2.2-3,3.4c-0.1,0.1-0.1,0.2-0.1,0.3h-1c-0.3-0.5-0.6-1-0.9-1.5c1.4-1.3,2.7-2.7,4-4.1
			C254.1,345.9,254.5,346.6,254.8,347.2z M253.2,344.4c-1.2,1.4-2.5,2.8-3.9,4.1c-0.4-0.6-0.7-1.2-1.1-1.7c1.3-1.3,2.5-2.7,3.7-4.1
			C252.4,343.2,252.8,343.8,253.2,344.4z M249.6,350.9h-1.4c0.3-0.3,0.6-0.5,0.9-0.8C249.2,350.3,249.4,350.6,249.6,350.9z
			 M248.3,353.4c0.3-0.1,0.3-0.4,0.2-0.6h2.3c-0.7,0.6-1.4,1.2-2,1.9c-0.3-0.4-0.6-0.8-0.9-1.2C248.1,353.6,248.2,353.5,248.3,353.4
			z M255.4,350.9h-2.5c0.7-1,1.5-1.8,2.3-2.7c0.2,0.5,0.4,1,0.5,1.4C255.7,350,255.5,350.4,255.4,350.9z M263.6,332.9v-4.5h12.5
			c0,0,0,0.1,0,0.2v4.3H263.6z M274.8,323.9h-7.2c0.4-1.8,0.9-3.7,1.3-5.5h5.9V323.9z M267.7,314.8H263c1.8-1,3.6-2,5.4-2.9
			C268.2,312.8,268,313.8,267.7,314.8z M266.9,318.4c-0.4,1.6-0.8,3.2-1.1,4.8c0,0,0,0-0.1-0.1c-1.2-0.6-2.3-1.2-3.3-2
			c0-0.9,0.1-1.8,0.1-2.8H266.9z M265,323.9h-2.7c0-0.5,0-1,0-1.5C263.2,323,264.1,323.5,265,323.9z M251.3,341.9
			c-1.1,1.4-2.3,2.7-3.6,4c-0.5-0.8-1-1.6-1.6-2.5c1-1.2,2.1-2.4,3.1-3.5C250,340.5,250.6,341.2,251.3,341.9z M245.6,342.6
			c-0.5-0.7-0.9-1.3-1.4-2c0.7-1,1.4-1.9,2-2.9c0.4,0.4,0.8,0.8,1.2,1.2c0.2,0.2,0.5,0.2,0.7,0c0.2,0.1,0.3,0.3,0.5,0.4
			C247.5,340.4,246.5,341.5,245.6,342.6z M244.9,343.4c-1.2,1.3-2.3,2.7-3.5,4c-0.4-0.7-0.7-1.3-1.1-2c1.1-1.3,2.3-2.6,3.3-3.9
			C244,342.1,244.4,342.7,244.9,343.4z M240.7,348.1c-0.7,0.7-1.4,1.4-2.2,2.1c-0.1,0.1-0.1,0.1-0.1,0.2c-0.1,0.2-0.2,0.3-0.3,0.5
			h-0.3c-0.2-0.7-0.5-1.4-0.9-2c0.9-0.9,1.8-1.8,2.7-2.8C240,346.8,240.3,347.4,240.7,348.1z M239.8,352.9h3.3c0,0,0,0,0,0
			c-0.1,0.1-0.2,0.1-0.3,0.2c-0.8,0.7-1.5,1.5-2.3,2.3c-0.5-0.6-1-1.2-1.4-1.8C239.3,353.3,239.5,353.1,239.8,352.9z M243.1,354.2
			c0.3,0.5,0.6,1,0.9,1.5c-0.5,0.6-1,1.2-1.5,1.8c-0.4-0.5-0.9-0.9-1.3-1.4C241.8,355.5,242.4,354.8,243.1,354.2z M245.3,355.8
			c0.6-0.6,1.2-1.2,1.9-1.7c0.3,0.5,0.7,0.9,1.1,1.4c-0.6,0.7-1.1,1.3-1.6,2C246.1,357,245.7,356.4,245.3,355.8z M248.9,356.3
			c0.5,0.6,1.1,1.2,1.6,1.8c-0.1,0.2-0.3,0.3-0.4,0.5c-0.2,0.3-0.1,0.6,0.1,0.8h-1.9c-0.3-0.3-0.6-0.7-1-1.1
			C247.8,357.6,248.3,357,248.9,356.3z M253.6,356.1c0,0.1,0.1,0.1,0.1,0.2c-0.3,1-0.6,1.9-0.8,2.9c-0.4-0.4-0.7-0.7-1.1-1.1
			C252.4,357.4,253,356.7,253.6,356.1z M253.1,365.6c0.4-1,0.8-2.1,1.1-3.1c0.5,0.8,0.9,1.6,1.4,2.4c-1.2,1.1-2.3,2.2-3.3,3.4
			C252.6,367.4,252.8,366.5,253.1,365.6z M255,361.9C255,361.9,255,361.9,255,361.9c0.2-0.2,0.2-0.4,0.1-0.6c1-0.2,1-1.6,0.2-1.9
			c0.1-0.4,0.3-0.8,0.4-1.2c0.3,0.3,0.7,0.6,1.1,0.8c0.4,0.2,0.7-0.1,0.7-0.5c0.7,1.1,1.4,2.2,2,3.3c-1.1,0.7-2.1,1.5-3.1,2.3
			C255.9,363.4,255.5,362.7,255,361.9z M256.6,355.6C256.6,355.6,256.6,355.6,256.6,355.6c0.5,0.4,0.9,0.9,1.4,1.4
			c0.4,0.5,1.1-0.2,0.7-0.7c-0.6-0.6-1.1-1.1-1.6-1.7c0.2-0.4,0.4-0.9,0.6-1.4c0.2,0.1,0.4,0.2,0.6,0c0.1-0.1,0.2-0.2,0.3-0.4h1.9
			c1.3,2.1,2.2,4.3,3.2,6.6c-1.1,0.6-2.2,1.2-3.3,1.9C259.2,359.4,258,357.4,256.6,355.6z M261.6,352.9h4c0,0.1,0,0.2,0,0.3
			c0.7,1.5,1.4,2.9,2.1,4.4c-1.1,0.5-2.2,1-3.3,1.5C263.6,356.9,262.8,354.8,261.6,352.9z M260.5,350.9c1.5-1.4,3-2.8,4.5-4.2
			c1,1.3,2,2.7,2.8,4.2H260.5z M265.8,346c1.2-1.2,2.5-2.3,3.7-3.5c1.2,1.1,2.4,2.2,3.6,3.4c-1.4,1.5-2.9,3.1-4.4,4.5
			C267.8,348.8,266.8,347.3,265.8,346z M273.7,346.6c1.1,1.2,2.2,2.5,3.2,3.9c-0.1,0.1-0.1,0.2-0.1,0.3h-7.2
			C271,349.5,272.4,348.1,273.7,346.6z M273.7,345.1c-1.1-1.2-2.3-2.3-3.5-3.4c1.3-1.3,2.6-2.7,3.8-4.2c0.1-0.1,0.1-0.2,0.1-0.3
			c1.2,1.2,2.5,2.3,3.8,3.4C276.4,342.2,275.1,343.7,273.7,345.1z M274,335.9h7.1c0.3,0.4,0.7,0.7,1,1.1c-1.3,1-2.4,2-3.6,3.1
			C277.1,338.7,275.5,337.3,274,335.9z M277.1,332.9v-4.3c0-0.1,0-0.1,0-0.2H289v4.2c0,0.1,0.1,0.3,0.1,0.3H277.1z M275.8,323.9
			v-5.5h13.5v5.5H275.8z M271.7,309.6C271.7,309.6,271.7,309.6,271.7,309.6c-0.2-0.2-0.4-0.4-0.6-0.6c1.2-5,2.5-10,3.7-15h0.8
			c1.3,0,1.3-2,0-2h-0.3c1.3-5.2,2.6-10.3,3.8-15.5c1-0.1,1.1-1.4,0.4-1.8c1-4,1.9-8.1,2.9-12.1h5.9c0.1,0,0.1,0,0.2,0h7.2
			c0.2,0,0.3-0.1,0.4-0.2c0.1,0.1,0.2,0.2,0.4,0.2h7.2c0,0,0.1,0,0.2,0h5.9c0.9,4,1.9,8.1,2.9,12.1c-0.7,0.5-0.5,1.7,0.4,1.8
			c1.3,5.2,2.5,10.3,3.8,15.5h-0.3c-1.3,0-1.3,2,0,2h0.8c1.2,5,2.5,10,3.7,15c-0.2,0.2-0.4,0.4-0.6,0.6c0,0,0,0,0,0
			c-0.7,0.5-0.5,1.8,0.5,1.8h0.6c0.3,1.1,0.5,2.2,0.8,3.3h-52.6c0.3-1.1,0.5-2.2,0.8-3.3h0.6C272.2,311.5,272.4,310.1,271.7,309.6z
			 M271.6,261.6h-1.7c-0.1-0.1-0.1-0.1-0.2-0.2c0.5-0.7,1-1.5,1.5-2.2c0.3,0.4,0.7,0.8,1,1.2c-0.2,0.2-0.4,0.5-0.6,0.7
			C271.5,261.3,271.5,261.4,271.6,261.6z M271.2,255.6h0.7c0.2,0.1,0.3,0.3,0.5,0.4c-0.4,0.5-0.9,1-1.3,1.6
			c-0.2-0.2-0.4-0.4-0.6-0.7c0.2-0.3,0.4-0.6,0.6-0.9C271.2,255.9,271.2,255.7,271.2,255.6z M271.8,258.4c0.4-0.6,0.8-1.1,1.3-1.6
			c0.1,0.1,0.2,0.2,0.3,0.3c-0.1,0.8-0.3,1.6-0.5,2.4c0,0-0.1,0.1-0.1,0.1C272.5,259.2,272.2,258.8,271.8,258.4z M273.3,262.6h0.8
			c0.1,0.1,0.1,0.1,0.2,0.2c0.3,0.3,0.7,0.1,0.8-0.2h1.8c0.1,0.3,0.5,0.5,0.8,0.2c0.1-0.1,0.1-0.1,0.2-0.2h0.3
			c0.1,0.2,0.3,0.3,0.4,0.5c0.4,0.4,0.9-0.1,0.8-0.5h0.8c0,0.1,0.1,0.2,0.3,0.3c0,0,0,0.1,0,0.1c-2.8,1.4-5.5,3.1-8.1,4.9
			c0,0,0,0-0.1-0.1c0.2-0.9,0.4-1.8,0.6-2.7C273,264.3,273.2,263.5,273.3,262.6z M283.4,241.2c0,1.2,0,2.3,0.1,3.5h-2.2
			c-0.2-1.2-0.2-2.3-0.2-3.5H283.4z M279,238.2c0-1.5-0.1-3,0.1-4.5h4c0.1,0.1,0.1,0.2,0.2,0.3c0,1.4-0.1,2.8-0.5,4.2H279z
			 M284.3,241.2h2.7c0.2,1.2,0.2,2.3,0.1,3.5h-2.6C284.4,243.5,284.3,242.3,284.3,241.2z M285.1,255.6c-0.2,0.3-0.4,0.6-0.7,0.9
			c-0.2-0.2-0.3-0.3-0.5-0.5c0-0.2,0.1-0.3,0.1-0.5H285.1z M285.6,235.8c-0.3-0.7-0.7-1.4-1.2-2.1h1.5
			C285.9,234.4,285.7,235.1,285.6,235.8z M285,237c0.1,0.2,0.2,0.3,0.4,0.3c-0.1,0.3-0.1,0.6-0.1,0.9h-1.4c0.2-0.9,0.3-1.9,0.4-2.8
			C284.6,235.9,284.8,236.4,285,237z M284.5,258.1c0.3,0.4,0.6,0.7,1,1.1c-0.6,0.8-1.2,1.5-1.7,2.3c0,0,0,0.1,0,0.1h-1
			c0.1-0.5,0.2-1,0.3-1.5C283.6,259.4,284,258.7,284.5,258.1z M292.5,255.6h0.3c0.2,0.2,0.5,0.4,0.7,0.6c-0.3,0.5-0.6,1-0.9,1.5
			c-0.3-0.3-0.5-0.5-0.8-0.8c0.2-0.3,0.5-0.6,0.7-0.9C292.6,255.9,292.6,255.7,292.5,255.6z M290.2,250.1
			C290.2,250.1,290.2,250.1,290.2,250.1c-0.8-0.8-1.6-1.6-2.3-2.5h10.6c1,0.8,2,1.7,2.9,2.6c-0.5,0.5-0.9,1-1.4,1.5
			c-0.4,0.5,0.3,1.2,0.7,0.7c0.5-0.5,0.9-1.1,1.4-1.6c1.2,1.2,2.4,2.5,3.7,3.7h-6.6c-0.1,0-0.2,0-0.3,0h-1.4c-0.1,0-0.1,0-0.2,0
			h-0.9c-0.2,0-0.3,0.1-0.4,0.2c-0.1-0.1-0.2-0.2-0.4-0.2h-0.9c-0.1,0-0.1,0-0.2,0h-0.1c-1.2-1.3-2.4-2.5-3.6-3.8c0,0,0,0,0,0
			C291.3,250.4,290.6,249.7,290.2,250.1z M288,241.2h1.6v3.5h-1.5C288.2,243.5,288.2,242.3,288,241.2z M292.2,235.2
			c0.6-0.5,1.2-1,1.7-1.5h1.5c0.1,0.3,0.1,0.6,0.2,0.9c-0.1,1.1-0.1,2.2,0,3.3c0,0.1,0,0.2,0,0.3h-4.9c0-1.5,0-3,0.3-4.5h1.5
			c-0.3,0.3-0.6,0.6-0.9,0.8C291,234.9,291.7,235.6,292.2,235.2z M301,236.2c0.1,0.2,0.3,0.2,0.5,0.1c0,0.6,0,1.2,0,1.9h-4.9
			c0-0.1,0-0.2,0-0.3c0.1-1.1,0.1-2.2,0-3.3c0-0.3,0.1-0.6,0.2-0.9h1.9C299.4,234.5,300.2,235.3,301,236.2z M300,233.7h1.2
			c0.1,0.5,0.1,1,0.2,1.5C301,234.7,300.5,234.2,300,233.7z M304.1,244.7h-1.5v-3.5h1.6C303.9,242.3,303.9,243.5,304.1,244.7z
			 M303.8,247.6c-0.6,0.6-1.1,1.3-1.7,1.9c-0.7-0.6-1.4-1.3-2.1-1.9H303.8z M301.5,244.7h-2v-3.5h2V244.7z M295.5,243.8
			c0-0.9,0-1.8,0.3-2.7h0.5c0.2,0.9,0.3,1.8,0.3,2.7c0,0.6,1,0.6,1,0c0-0.9,0-1.8-0.2-2.7h1.2v3.5h-5v-3.5h1.2
			c-0.2,0.9-0.2,1.8-0.2,2.7C294.5,244.5,295.5,244.5,295.5,243.8z M295,232.7c0.4-0.4,0.9-0.9,1.3-1.3c0.4,0.4,0.9,0.9,1.3,1.3H295
			z M292.6,241.2v3.5h-2v-3.5H292.6z M306.5,235.8c-0.1-0.7-0.2-1.4-0.4-2.1h1.5C307.2,234.4,306.8,235.1,306.5,235.8z M307.9,235.3
			c0.1,0.9,0.2,1.9,0.4,2.8h-1.4c0-0.3-0.1-0.6-0.1-0.9c0.2,0,0.3-0.1,0.4-0.3C307.3,236.4,307.6,235.9,307.9,235.3z M307.8,241.2
			c0,1.2,0,2.3-0.1,3.5H305c-0.1-1.2-0.1-2.3,0.1-3.5H307.8z M308.1,255.6c0,0.2,0.1,0.3,0.1,0.5c-0.2,0.2-0.3,0.3-0.5,0.5
			c-0.2-0.3-0.4-0.6-0.7-0.9H308.1z M307.6,258.1c0.5,0.7,1,1.3,1.5,2c0.1,0.5,0.2,1,0.3,1.5h-1c0,0,0-0.1,0-0.1
			c-0.6-0.8-1.1-1.6-1.7-2.3C307,258.8,307.3,258.4,307.6,258.1z M311.1,241.2c0,1.2,0,2.3-0.2,3.5h-2.2c0.1-1.2,0.1-2.3,0.1-3.5
			H311.1z M308.8,233.9c0.1-0.1,0.1-0.2,0.2-0.3h4c0.2,1.5,0.2,3,0.1,4.5h-3.8C308.9,236.8,308.8,235.4,308.8,233.9z M321,256
			c0.2,0.3,0.4,0.6,0.6,0.9c-0.2,0.2-0.4,0.4-0.6,0.7c-0.4-0.5-0.8-1.1-1.3-1.6c0.2-0.2,0.3-0.3,0.5-0.4h0.7
			C320.9,255.7,320.9,255.9,321,256z M320.5,261.1c-0.2-0.2-0.4-0.5-0.6-0.7c0.3-0.4,0.7-0.8,1-1.2c0.5,0.7,1,1.5,1.5,2.2
			c-0.1,0.1-0.1,0.1-0.2,0.2h-1.7C320.6,261.4,320.6,261.3,320.5,261.1z M320.3,258.4c-0.4,0.4-0.7,0.8-1.1,1.2c0,0-0.1-0.1-0.1-0.1
			c-0.2-0.8-0.3-1.6-0.5-2.4c0.1-0.1,0.2-0.2,0.3-0.3C319.5,257.3,319.9,257.8,320.3,258.4z M318.8,262.6c0.2,0.9,0.4,1.7,0.5,2.6
			c0.2,0.9,0.4,1.8,0.6,2.7c0,0,0,0-0.1,0.1c-2.6-1.8-5.3-3.5-8.1-4.9c0,0,0-0.1,0-0.1c0.1-0.1,0.2-0.2,0.3-0.3h0.8
			c-0.1,0.5,0.4,0.9,0.8,0.5c0.1-0.2,0.3-0.3,0.4-0.5h0.3c0.1,0.1,0.1,0.1,0.2,0.2c0.3,0.3,0.7,0.1,0.8-0.2h1.8
			c0.1,0.3,0.5,0.5,0.8,0.2c0.1-0.1,0.1-0.1,0.2-0.2H318.8z M319.2,268.6c-1.8,1.7-3.4,3.6-4.7,5.7c-0.8-3.3-1.6-6.7-2.4-10
			C314.5,265.6,316.9,267,319.2,268.6z M313.7,257.7c0.4,0.7,0.9,1.3,1.5,2c-0.3,0.4-0.6,0.8-1,1.2c-0.6-0.6-1.1-1.3-1.6-1.9
			C312.9,258.5,313.3,258.1,313.7,257.7z M313.5,255.6h0.9c-0.2,0.2-0.4,0.4-0.6,0.5C313.8,256,313.6,255.8,313.5,255.6z
			 M315.8,260.4c0.4,0.4,0.8,0.8,1.2,1.2h-2.1C315.1,261.2,315.5,260.8,315.8,260.4z M311.9,258.1c-0.6-0.8-1.1-1.6-1.5-2.5h2.1
			c0,0,0,0.1,0,0.1c0.2,0.4,0.4,0.8,0.7,1.2C312.7,257.3,312.3,257.7,311.9,258.1z M311.3,258.9c-0.1,0.1-0.2,0.3-0.3,0.4
			c-0.1-0.4-0.2-0.8-0.3-1.2C310.8,258.3,311,258.6,311.3,258.9z M311.9,259.7c0.5,0.7,1.1,1.3,1.6,1.9h-2c0,0-0.1-0.1-0.1-0.1
			c-0.1-0.3-0.2-0.7-0.2-1C311.4,260.2,311.6,259.9,311.9,259.7z M317.9,261.2C317.9,261.1,317.9,261.1,317.9,261.2
			c-0.6-0.5-1.1-1-1.5-1.5c0.3-0.3,0.6-0.7,0.9-1c0.3,0.4,0.6,0.8,1,1.2c0,0.2,0.1,0.5,0.1,0.7C318.2,260.8,318.1,261,317.9,261.2z
			 M317.4,257.1c-0.3-0.5-0.6-0.9-0.9-1.4h1c0.1,0.4,0.1,0.8,0.2,1.1C317.6,256.9,317.5,257,317.4,257.1z M316.7,257.8
			c-0.3,0.4-0.6,0.7-0.9,1.1c-0.5-0.6-1-1.2-1.4-1.9c0.4-0.3,0.7-0.7,1.1-1C315.9,256.6,316.3,257.2,316.7,257.8z M315.7,254.6h-4
			c0,0,0.1,0,0.1-0.1c0.6-0.3,0.1-1.2-0.5-0.9c0,0,0,0,0,0c0.4-0.8,0.8-1.6,1.2-2.4c1.1,1.1,2.2,2.2,3.5,3.1
			C315.9,254.5,315.8,254.5,315.7,254.6z M312.3,249.7c-0.7-0.7-1.4-1.4-2.1-2.1h3.6C313.3,248.3,312.8,249,312.3,249.7z
			 M308.8,247.6c1,0.9,2,1.9,3,3c-0.8,1.3-1.4,2.6-1.9,4c0,0,0,0-0.1,0h0c-0.5-2.3-1-4.7-1.5-7H308.8z M302.4,261.1
			c-0.2-0.2-0.4-0.4-0.6-0.6c0.3-0.3,0.5-0.5,0.8-0.8c0.4,0.5,0.8,1,1.3,1.5c-0.1,0.1-0.2,0.3-0.4,0.4h-0.9
			C302.6,261.4,302.6,261.2,302.4,261.1z M292.1,260.8c-0.1-0.1-0.2-0.2-0.3-0.3c0.4-0.4,0.7-0.8,1-1.2c0.3,0.3,0.6,0.6,0.9,0.9
			c-0.4,0.4-0.7,0.9-1.1,1.4c0,0,0,0.1,0,0.1h-2c0.2-0.1,0.3-0.3,0.4-0.4c0.1,0.1,0.2,0.2,0.3,0.3
			C291.9,261.9,292.6,261.2,292.1,260.8z M293.4,258.4c0.3-0.5,0.7-1,1-1.5c0.4,0.4,0.7,0.8,1.1,1.1c-0.1,0.2-0.3,0.3-0.4,0.5
			c-0.1,0.1-0.1,0.2-0.1,0.3c-0.2,0.2-0.4,0.4-0.6,0.6C294,259.1,293.7,258.8,293.4,258.4z M295.4,255.6h0.3c0.2,0,0.3-0.1,0.4-0.2
			c0.1,0.1,0.2,0.2,0.4,0.2h0.7c0.1,0.1,0.1,0.2,0.2,0.4c-0.3,0.3-0.5,0.5-0.8,0.8C296.2,256.4,295.8,256,295.4,255.6z M294.4,260.9
			c0.2,0.2,0.5,0.5,0.7,0.7h-1.4C294,261.3,294.2,261.1,294.4,260.9z M295.1,260.1c0.2-0.2,0.4-0.4,0.6-0.7c0.1-0.1,0.2-0.3,0.1-0.4
			c0,0,0,0,0,0c0.1-0.1,0.1-0.1,0.2-0.2c0.1,0.1,0.1,0.1,0.2,0.2c0,0,0,0,0,0c0,0.1,0,0.3,0.1,0.4c0.2,0.2,0.4,0.4,0.6,0.7
			c-0.3,0.3-0.6,0.6-1,1c0,0,0,0,0,0c0,0,0,0,0,0C295.7,260.8,295.4,260.4,295.1,260.1z M297.7,260.9c0.2,0.2,0.4,0.5,0.6,0.7H297
			C297.2,261.4,297.5,261.1,297.7,260.9z M297.8,259.4c-0.2-0.2-0.4-0.4-0.6-0.6c0-0.1,0-0.2-0.1-0.3c-0.1-0.2-0.3-0.3-0.4-0.5
			c0.3-0.4,0.7-0.8,1.1-1.1c0.3,0.5,0.6,1,1,1.5C298.4,258.8,298.1,259.1,297.8,259.4z M299.6,256c0.2,0.3,0.4,0.6,0.7,0.9
			c-0.3,0.3-0.6,0.5-0.8,0.8c-0.3-0.5-0.6-1-0.9-1.5c0.2-0.2,0.5-0.4,0.7-0.6h0.3C299.5,255.7,299.5,255.9,299.6,256z M299.3,259.3
			c0.3,0.4,0.7,0.8,1,1.2c-0.1,0.1-0.2,0.2-0.3,0.3c-0.5,0.4,0.2,1.1,0.7,0.7c0.1-0.1,0.2-0.2,0.3-0.3c0.1,0.1,0.3,0.3,0.4,0.4h-2
			c0,0,0-0.1,0-0.1c-0.3-0.5-0.7-0.9-1.1-1.4C298.7,259.8,299,259.6,299.3,259.3z M301.1,259.8c-0.4-0.4-0.7-0.8-1-1.2
			c0.3-0.3,0.6-0.5,0.9-0.8c0.3,0.4,0.7,0.8,1,1.2C301.6,259.2,301.3,259.5,301.1,259.8z M301.1,256.3c-0.2-0.2-0.3-0.4-0.5-0.7h1.3
			C301.6,255.8,301.3,256.1,301.1,256.3z M302.7,256.1c0.1,0,0.1-0.1,0.1-0.1c0.3,0.4,0.6,0.7,0.9,1.1c-0.4,0.4-0.7,0.8-1.1,1.2
			c-0.3-0.4-0.6-0.7-1-1.1C302,256.8,302.3,256.4,302.7,256.1z M303.2,259c0.4-0.4,0.7-0.8,1.1-1.1c0.4,0.5,0.7,0.9,1.1,1.4
			c-0.3,0.4-0.6,0.8-0.9,1.2C304,259.9,303.6,259.4,303.2,259z M303.8,255.6h1.3c-0.2,0.2-0.5,0.5-0.7,0.7
			C304.2,256.1,304,255.9,303.8,255.6z M306,260c0.4,0.5,0.8,1.1,1.2,1.6h-1.8c0-0.1,0-0.1-0.1-0.2c-0.1-0.1-0.2-0.2-0.2-0.3
			C305.4,260.8,305.7,260.4,306,260z M306,258.4c-0.3-0.4-0.7-0.9-1-1.3c0.4-0.4,0.7-0.8,1.1-1.1c0.3,0.4,0.6,0.9,0.9,1.3
			C306.7,257.6,306.4,258,306,258.4z M292.1,258.6c-0.3,0.4-0.6,0.8-1,1.2c-0.3-0.3-0.6-0.5-0.9-0.8c0.3-0.4,0.7-0.8,1-1.2
			C291.5,258,291.8,258.3,292.1,258.6z M289.6,261.6h-1c-0.1-0.1-0.2-0.3-0.4-0.4c0.4-0.5,0.8-1,1.3-1.5c0.3,0.3,0.5,0.5,0.8,0.8
			c-0.2,0.2-0.4,0.4-0.6,0.6C289.6,261.2,289.6,261.4,289.6,261.6z M291.1,256.3c-0.3-0.2-0.5-0.4-0.8-0.7h1.3
			C291.4,255.8,291.3,256.1,291.1,256.3z M290.5,257.1c-0.3,0.4-0.6,0.8-1,1.1c-0.4-0.4-0.7-0.8-1.1-1.2c0.3-0.4,0.6-0.7,0.9-1.1
			c0,0.1,0.1,0.1,0.1,0.1C289.8,256.4,290.1,256.8,290.5,257.1z M288.9,259c-0.4,0.5-0.8,0.9-1.2,1.4c-0.3-0.4-0.6-0.8-0.9-1.2
			c0.4-0.5,0.7-0.9,1.1-1.4C288.2,258.2,288.5,258.6,288.9,259z M287,261.1c-0.1,0.1-0.2,0.2-0.2,0.3c0,0.1-0.1,0.1-0.1,0.2h-1.8
			c0.4-0.5,0.8-1.1,1.2-1.6C286.4,260.4,286.7,260.8,287,261.1z M287.8,256.3c-0.2-0.2-0.5-0.5-0.7-0.7h1.3
			C288.2,255.9,288,256.1,287.8,256.3z M287.1,257.1c-0.3,0.4-0.7,0.9-1,1.3c-0.3-0.4-0.6-0.8-1-1.2c0.3-0.4,0.6-0.9,0.9-1.3
			C286.4,256.4,286.8,256.7,287.1,257.1z M282.3,254.6L282.3,254.6C282.2,254.6,282.2,254.6,282.3,254.6c-0.5-1.4-1.2-2.8-1.9-4
			c1-1,2-2,3-3h0.4C283.3,250,282.8,252.3,282.3,254.6z M277,259.7c0.5-0.6,1-1.3,1.5-2c0.4,0.4,0.8,0.8,1.1,1.2
			c-0.5,0.7-1.1,1.3-1.6,1.9C277.7,260.5,277.3,260.1,277,259.7z M277.3,261.6h-2.1c0.4-0.4,0.8-0.8,1.2-1.2
			C276.7,260.8,277,261.2,277.3,261.6z M278.3,256.2c-0.2-0.2-0.4-0.4-0.6-0.5h0.9C278.5,255.8,278.4,256,278.3,256.2z M280.3,259.7
			c0.2,0.3,0.5,0.5,0.7,0.8c-0.1,0.3-0.1,0.7-0.2,1c0,0-0.1,0.1-0.1,0.1h-2C279.2,261,279.7,260.3,280.3,259.7z M280.9,258.9
			c0.2-0.3,0.4-0.5,0.6-0.8c-0.1,0.4-0.2,0.8-0.3,1.2C281.1,259.1,281,259,280.9,258.9z M280.2,258.1c-0.4-0.4-0.8-0.9-1.2-1.3
			c0.2-0.4,0.5-0.8,0.7-1.2c0,0,0-0.1,0-0.1h2.1C281.4,256.5,280.8,257.3,280.2,258.1z M281.9,247.6c-0.7,0.7-1.4,1.4-2.1,2.1
			c-0.5-0.7-1-1.4-1.5-2.1H281.9z M280.8,253.7C280.8,253.7,280.8,253.7,280.8,253.7c-0.6-0.3-1.1,0.6-0.5,0.9c0,0,0.1,0,0.1,0.1h-4
			c-0.1-0.1-0.2-0.1-0.3-0.2c1.3-0.9,2.4-2,3.5-3.1C280.1,252.1,280.5,252.9,280.8,253.7z M276.6,256c0.4,0.3,0.8,0.6,1.1,1
			c-0.4,0.7-0.9,1.3-1.4,1.9c-0.3-0.4-0.6-0.7-0.9-1.1C275.9,257.2,276.2,256.6,276.6,256z M274.8,257.1c-0.1-0.1-0.2-0.2-0.3-0.3
			c0.1-0.4,0.1-0.8,0.2-1.1h1C275.4,256.1,275.1,256.6,274.8,257.1z M274.8,258.6c0.3,0.3,0.6,0.7,0.9,1c-0.4,0.5-0.9,1-1.4,1.4
			c0,0-0.1,0.1-0.1,0.1c-0.2-0.2-0.3-0.4-0.5-0.6c0-0.2,0.1-0.5,0.1-0.7C274.2,259.5,274.5,259.1,274.8,258.6z M280.1,264.3
			c-0.8,3.3-1.6,6.7-2.4,10c-1.3-2.1-3-3.9-4.7-5.7C275.3,267,277.6,265.6,280.1,264.3z M329.6,317.5H325c-0.1-0.6-0.3-1.1-0.4-1.7
			h4.9c0,0.1,0,0.1,0,0.2C329.5,316.5,329.6,317,329.6,317.5z M334.5,318.7c0.6,1.8,1.3,3.5,1.9,5.2h-5.6c0-0.7,0-1.5,0-2.2
			C332.1,320.8,333.3,319.8,334.5,318.7z M330.8,320.5c0-0.7-0.1-1.4-0.1-2.1h2.6C332.5,319.2,331.6,319.9,330.8,320.5z
			 M333.5,317.5h-2.9c0-0.5-0.1-1-0.1-1.5c0-0.1,0-0.1-0.1-0.2h0.4C331.7,316.3,332.6,316.9,333.5,317.5z M332.6,315.8h0.9
			c0.1,0.2,0.2,0.5,0.3,0.7C333.4,316.3,333,316,332.6,315.8z M339.7,328.4v4.5h-10.2v-4.5H339.7z M340.2,337.3c0.7,0.6,1.4,1.3,2,2
			c-0.7,0.6-1.3,1.2-1.9,1.9c-1.1-1.4-2.2-2.9-3.2-4.4c0.3-0.3,0.5-0.6,0.8-0.9c0,0,0,0,0,0h1.7c0.1,0.2,0.3,0.5,0.5,0.7
			C340,336.8,339.9,337.1,340.2,337.3z M334.7,344.6c-0.4-1.1-0.8-2.1-1.2-3.2c0.2-0.4,0.5-0.8,0.8-1.2c1.1,1.4,2.2,2.9,3.4,4.3
			c-0.4,0.6-0.8,1.3-1.1,2C335.9,345.8,335.3,345.2,334.7,344.6z M336.1,347.4c-0.1,0.2-0.2,0.5-0.3,0.7c-0.2-0.5-0.3-0.9-0.5-1.4
			C335.6,346.9,335.9,347.2,336.1,347.4z M330.3,341.9c-1.2,1-2.3,2.1-3.3,3.3c-1.2-1.1-2.4-2.2-3.6-3.4c1.9-1.6,3.8-3.2,5.6-4.9
			c0.5-0.4-0.2-1.1-0.7-0.7c-1.9,1.6-3.8,3.2-5.6,4.9c-1.4-1.4-2.7-2.7-3.9-4.2c-0.1-0.1-0.1-0.1-0.2-0.1c0.3-0.3,0.6-0.6,0.8-0.8
			h9.7c2.1,4.9,3.9,9.9,5.5,15h-0.2c0-0.1-0.1-0.2-0.1-0.3c-0.3-0.5-0.9-0.2-0.9,0.3H333c-1.7-1.7-3.5-3.4-5.3-5
			c1-1.2,2.1-2.3,3.3-3.3C331.5,342.2,330.8,341.5,330.3,341.9z M316,328.4h12.5v4.5H316v-4.3C316,328.5,316,328.5,316,328.4z
			 M348.5,350.6c0.1,0.1,0.3,0.1,0.4,0.1c0,0.1-0.1,0.1-0.1,0.2h-1.9c-0.1-0.2-0.5-0.4-0.8-0.2c-0.1,0.1-0.1,0.1-0.2,0.2h-0.6
			c0-0.1,0-0.2-0.2-0.4c-0.5-0.4-1-0.9-1.5-1.3c0.4-0.6,0.7-1.2,1.1-1.7C345.9,348.6,347.1,349.7,348.5,350.6z M345.2,346.6
			c0.5-0.8,1-1.6,1.5-2.4c1.2,1.4,2.4,2.7,3.6,4c-0.4,0.6-0.7,1.3-1.1,1.9c0-0.2-0.1-0.3-0.2-0.4
			C347.6,348.8,346.4,347.8,345.2,346.6z M343.5,352.9c-0.3,0.3-0.7,0.6-1,1c-0.3-0.3-0.6-0.6-0.8-1H343.5z M341.4,350.9h-1
			c0-0.1,0-0.2-0.1-0.3c-0.9-1.2-1.9-2.3-3-3.4c0.3-0.7,0.7-1.3,1.1-1.9c1.2,1.4,2.6,2.8,3.9,4.1C342,349.9,341.7,350.4,341.4,350.9
			z M342.6,350.9c0.2-0.3,0.3-0.5,0.5-0.8c0.3,0.3,0.6,0.6,0.9,0.8H342.6z M344.8,353.1c0.4,0.6,0.9,1.1,1.4,1.7
			c-0.5,0.5-0.9,1-1.4,1.5c-0.5-0.6-1-1.1-1.6-1.7C343.7,354.1,344.2,353.6,344.8,353.1z M345.8,352.9h2.5c-0.5,0.4-1,0.8-1.5,1.2
			C346.5,353.7,346.1,353.3,345.8,352.9z M342.9,348.5c-1.4-1.3-2.7-2.7-3.9-4.1c0.4-0.6,0.8-1.2,1.3-1.7c1.2,1.4,2.4,2.8,3.7,4.1
			C343.6,347.4,343.2,347.9,342.9,348.5z M338.3,343.6c-1.2-1.4-2.3-2.8-3.4-4.2c0.5-0.6,1-1.3,1.5-1.9c1,1.5,2.1,2.9,3.2,4.4
			C339.1,342.5,338.7,343,338.3,343.6z M334.7,338c0-0.1-0.1-0.2-0.2-0.2c-0.8-0.5-1.5-1.2-2.2-1.9h3.1c0,0.1,0,0.2,0.1,0.3
			c0.1,0.2,0.2,0.4,0.4,0.5C335.4,337.1,335.1,337.6,334.7,338z M333.4,338.2c-0.2,0.1-0.4,0.4-0.2,0.6c0.2,0.2,0.3,0.4,0.5,0.6
			c-0.2,0.3-0.4,0.5-0.6,0.8c-0.5-1.2-1-2.5-1.5-3.7C332.2,337.1,332.7,337.7,333.4,338.2z M336.9,348.2c0.8,0.9,1.6,1.7,2.3,2.7
			h-2.5c-0.1-0.4-0.3-0.8-0.4-1.3C336.5,349.1,336.7,348.6,336.9,348.2z M339.5,352.9c-0.3,0.3-0.6,0.6-0.9,0.9
			c-0.2-0.3-0.4-0.6-0.5-0.9H339.5z M338.5,355.3c0.4,0.5,0.8,1.1,1.3,1.6c-0.3,0.4-0.6,0.8-0.9,1.2c-0.2-0.8-0.5-1.6-0.7-2.4
			C338.3,355.5,338.4,355.4,338.5,355.3z M339.1,354.6c0.5-0.5,1-1,1.6-1.4c0,0.1,0,0.2,0.1,0.2c0.3,0.4,0.7,0.8,1,1.2
			c-0.5,0.5-1,1-1.4,1.6C339.9,355.6,339.5,355.1,339.1,354.6z M342.5,355.3c0.5,0.6,1.1,1.2,1.6,1.8c-0.4,0.5-0.8,1.1-1.3,1.6
			c-0.6-0.6-1.2-1.2-1.8-1.8C341.5,356.3,342,355.8,342.5,355.3z M344.8,357.7c0.5,0.5,1.1,1.1,1.6,1.6h-2.8c0,0,0,0,0,0
			C344,358.8,344.4,358.3,344.8,357.7z M345.4,357c0.4-0.5,0.9-1,1.4-1.5c0.6,0.7,1.2,1.3,1.8,1.9c-0.5,0.5-1,0.9-1.5,1.3
			C346.5,358.1,346,357.6,345.4,357z M349.3,358c0.5,0.5,1.1,0.9,1.6,1.3h-3.1l0,0C348.4,358.9,348.9,358.5,349.3,358z M349.3,356.7
			c-0.6-0.6-1.2-1.2-1.8-1.8c0.7-0.6,1.4-1.2,2.1-1.7c-0.1,0.1-0.1,0.3,0,0.5c0.3,0.5,0.6,1,1,1.4
			C350.2,355.6,349.7,356.1,349.3,356.7z M350.5,353.1c-0.2-0.3-0.5-0.3-0.7-0.2c0,0,0-0.1,0-0.1h2.6c-0.4,0.4-0.8,0.9-1.2,1.4
			C351,353.9,350.7,353.5,350.5,353.1z M349.9,350.9c0.4-0.6,0.7-1.3,1.1-1.9c0.6,0.6,1.3,1.3,2,1.9H349.9z M351.5,348.1
			c0.4-0.7,0.7-1.3,1.1-1.9c0.9,1,1.8,1.9,2.7,2.8c-0.4,0.6-0.7,1.3-0.9,2h-0.3c-0.1-0.2-0.2-0.3-0.3-0.5c0-0.1-0.1-0.1-0.1-0.2
			C352.9,349.5,352.2,348.8,351.5,348.1z M350.8,347.4c-1.2-1.3-2.4-2.6-3.5-4c0.4-0.7,0.9-1.3,1.4-1.9c1,1.4,2.1,2.7,3.3,3.9
			C351.5,346,351.2,346.7,350.8,347.4z M346.6,342.6c-1-1.1-1.9-2.2-2.9-3.3c0.2-0.1,0.3-0.3,0.5-0.4c0.2,0.1,0.4,0.2,0.6,0
			c0.4-0.4,0.8-0.8,1.2-1.2c0.6,1,1.3,2,2,2.9C347.5,341.3,347,341.9,346.6,342.6z M346,343.5c-0.5,0.8-1.1,1.6-1.6,2.5
			c-1.3-1.3-2.4-2.6-3.6-4c0.6-0.7,1.3-1.4,2-2C344,341.1,345,342.3,346,343.5z M327.1,323.9c0.9-0.4,1.8-1,2.7-1.5c0,0.5,0,1,0,1.5
			H327.1z M326.4,323.2C326.4,323.2,326.4,323.2,326.4,323.2c-0.4-1.5-0.8-3.1-1.2-4.7h4.4c0,0.9,0.1,1.8,0.1,2.8
			C328.7,321.9,327.6,322.6,326.4,323.2z M324.4,314.8c-0.2-1-0.5-2-0.7-2.9c1.9,0.9,3.7,1.9,5.4,2.9H324.4z M324.5,323.9h-7.2v-5.5
			h5.9C323.7,320.3,324.1,322.1,324.5,323.9z M302.9,318.4h13.5v5.5h-13.5V318.4z M303.2,332.6v-4.2h11.9c0,0,0,0.1,0,0.2v4.3h-12
			C303.1,332.8,303.2,332.7,303.2,332.6z M311,335.9h7.1c-1.5,1.4-3,2.8-4.5,4.2c-1.1-1.1-2.3-2.1-3.6-3.1
			C310.3,336.6,310.7,336.3,311,335.9z M318,337.3c0,0.1,0,0.2,0.1,0.3c1.2,1.5,2.5,2.8,3.8,4.2c-1.2,1.1-2.4,2.2-3.5,3.4
			c-1.4-1.5-2.7-3-4.2-4.4C315.5,339.6,316.8,338.5,318,337.3z M322.5,350.9h-7.2c0-0.2,0-0.3-0.1-0.3c1-1.4,2-2.7,3.2-3.9
			C319.8,348.1,321.1,349.5,322.5,350.9z M319.1,345.9c1.1-1.2,2.3-2.3,3.6-3.4c1.2,1.2,2.5,2.4,3.7,3.5c-1.1,1.4-2,2.9-2.9,4.4
			C322,348.9,320.5,347.4,319.1,345.9z M327.1,346.6c1.5,1.4,3,2.8,4.5,4.2h-7.3C325.1,349.4,326.1,348,327.1,346.6z M326.5,352.9h4
			c-1.1,1.9-2,4-2.9,6.1c-1.1-0.5-2.2-1-3.3-1.5c0.7-1.5,1.4-2.9,2.1-4.4C326.5,353,326.5,352.9,326.5,352.9z M331.7,352.9h1.9
			c0.1,0.1,0.2,0.2,0.3,0.4c0.2,0.2,0.4,0.2,0.6,0c0.4,0.8,0.7,1.6,1,2.4c-1.4,1.8-2.6,3.7-3.7,5.7c-1.1-0.7-2.2-1.3-3.3-1.9
			C329.4,357.2,330.4,354.9,331.7,352.9z M336,356.7c0.3,0.9,0.6,1.8,0.9,2.7c-0.9,0.3-0.8,1.9,0.3,1.9h0.3c0,0.1,0.1,0.2,0.1,0.4
			c-0.2-0.1-0.4,0-0.5,0.2c-0.5,0.7-0.9,1.5-1.4,2.3c-1-0.8-2-1.6-3.1-2.3C333.6,360.1,334.7,358.4,336,356.7z M337.9,362.5
			c0.4,1,0.7,2.1,1.1,3.1c0.3,0.9,0.5,1.8,0.8,2.7c-1-1.2-2.1-2.4-3.3-3.4C337,364.1,337.5,363.3,337.9,362.5z M339.3,359.3
			c0,0,0-0.1,0-0.1c0.4-0.6,0.8-1.1,1.2-1.6c0.6,0.6,1.1,1.2,1.7,1.7H339.3z M352.1,361.3c0.7,2.2,1.5,4.4,2.2,6.5
			c-0.3,0.3-0.6,0.5-0.8,0.8c-4.3-2-8.6-4.2-12.2-7.3H352.1z M352,358.2c-0.2-0.5-0.8-0.4-1,0c-0.4-0.3-0.7-0.6-1.1-0.9
			c0.4-0.5,0.8-1,1.2-1.5c0.6,0.7,1.3,1.4,1.9,2c-0.3,0.4-0.6,0.8-0.9,1.2C352.2,358.7,352.1,358.5,352,358.2z M351.8,355
			c0.6-0.8,1.3-1.5,2-2.1h3.1c-0.3,0-0.6,0.5-0.4,0.8c-0.3,0.3-0.6,0.7-1,1.1c-0.3-0.3-0.6-0.7-0.9-1c-0.4-0.5-1.1,0.2-0.7,0.7
			c0.3,0.4,0.6,0.7,1,1.1c-0.4,0.5-0.8,1-1.2,1.5C353.1,356.3,352.4,355.7,351.8,355z M353.9,358.4c0.3,0.3,0.7,0.6,1,0.9h-1.7
			C353.5,359,353.7,358.7,353.9,358.4z M355.4,350.9c0.2-0.4,0.4-0.9,0.6-1.3c0.5,0.4,0.9,0.9,1.4,1.3H355.4z M355.8,348
			c-0.9-0.9-1.8-1.8-2.7-2.8c0.4-0.6,0.9-1.2,1.4-1.8c0.9,1,1.9,2,2.9,2.9C356.8,346.9,356.3,347.4,355.8,348z M352.5,344.5
			c-1.1-1.3-2.2-2.5-3.2-3.9c0.5-0.6,1-1.2,1.5-1.8c0.9,1.4,2,2.7,3.1,3.9C353.3,343.3,352.9,343.9,352.5,344.5z M350.1,335.9h2.1
			c-0.5,0.4-0.9,0.8-1.3,1.3C350.6,336.8,350.4,336.3,350.1,335.9z M348.9,332.9v-4.5h3c-0.7,1.4-1.1,3-1.1,4.5H348.9z M349,335.9
			c0.4,0.7,0.8,1.4,1.2,2c-0.5,0.6-1.1,1.2-1.6,1.9c-0.7-0.9-1.3-1.9-1.9-2.8c0.4-0.4,0.8-0.7,1.2-1.1H349z M347.9,332.9h-2.6v-4.5
			h2.6V332.9z M346.5,335.9c-0.2,0.2-0.4,0.4-0.6,0.6c-0.1,0-0.1,0.1-0.1,0.1c-0.3,0.3-0.5,0.5-0.8,0.8c-0.1,0-0.2,0-0.4,0.1
			c-0.5,0.3-1.1,0.7-1.6,1.1c-0.4-0.4-0.7-0.7-1.1-1.1c0.2-0.2,0.2-0.5-0.1-0.7c-0.4-0.2-0.7-0.5-0.9-0.9H346.5z M344.3,328.4v4.5
			h-3.6v-4.5H344.3z M343.5,323.4c0.3,0.2,0.7,0.4,1,0.5h-1C343.5,323.8,343.5,323.6,343.5,323.4z M335,317
			c-0.1-0.4-0.3-0.8-0.4-1.2h1.6C335.8,316.2,335.4,316.6,335,317z M334.2,314.8c-0.4-1.1-0.8-2.2-1.1-3.3h7.7
			c-1.2,1.1-2.4,2.2-3.5,3.3H334.2z M333.2,314.8H331c-1.9-1.2-3.9-2.3-5.9-3.3h6.9C332.4,312.6,332.8,313.7,333.2,314.8z
			 M323.1,309.5c-0.1-0.3-0.1-0.6-0.2-0.9c2.1-2.1,4.2-4.2,6.2-6.3c0.7,2.4,1.5,4.8,2.3,7.2H323.1z M322.6,307.5
			c-1-4.2-2-8.3-3.1-12.5c0.6,0.7,1.6,1.2,2.3,1.7c2,1.3,4,2.4,6,3.6c0.2,0.1,0.5,0.3,0.7,0.4c0,0.2,0.1,0.3,0.1,0.5
			C326.8,303.3,324.7,305.4,322.6,307.5z M324.4,297.1c-1.3-0.8-3.4-1.7-4.3-3.1h6.6c0.5,1.8,1,3.5,1.5,5.2
			C326.9,298.5,325.6,297.8,324.4,297.1z M318.8,292c0-0.2-0.1-0.3-0.1-0.5c1.7-2.3,3.6-4.4,5.5-6.5c0,0.1,0.1,0.2,0.1,0.4
			c0.6,2.2,1.2,4.4,1.8,6.6H318.8z M318.4,290.3c-1.1-4.6-2.3-9.1-3.4-13.7c2.9,2.3,5.8,4.4,8.7,6.6c0.1,0.3,0.1,0.5,0.2,0.8
			C322,286,320.1,288.1,318.4,290.3z M316.5,276.6h5.5c0.4,1.7,0.9,3.4,1.3,5.1C321.1,280,318.8,278.3,316.5,276.6z M321.5,270.3
			c1.9,1.4,3.8,2.8,5.7,4.3h-4.7C322.2,273.1,321.9,271.7,321.5,270.3z M321.6,274.6h-6.1c1.3-2,2.9-3.7,4.6-5.4
			c0.1,0.1,0.2,0.2,0.3,0.3C320.8,271.1,321.1,272.9,321.6,274.6z M320.3,264.9c-0.2-0.8-0.3-1.5-0.5-2.3h5.4
			c-1.4,1.5-2.9,3-4.5,4.4C320.6,266.3,320.5,265.6,320.3,264.9z M321.6,258.5c0.2-0.2,0.4-0.4,0.6-0.7c0.6,0.7,1.2,1.4,1.8,2.1
			c-0.3,0.3-0.6,0.5-0.8,0.8C322.7,260,322.1,259.2,321.6,258.5z M322.3,256.2c-0.1-0.2-0.3-0.4-0.4-0.6h1.2c-0.1,0-0.2,0-0.4,0.1
			C322.6,255.9,322.5,256.1,322.3,256.2z M320.9,254.6c-0.1-0.3-0.5-0.4-0.8-0.2c-0.1,0.1-0.1,0.1-0.2,0.2h-0.5
			c0.4-1.2,0.9-2.4,1.4-3.5c1,1.2,2.1,2.3,3.2,3.5H320.9z M321.3,250.2c0.5-0.9,1.1-1.8,1.8-2.6h0.5c0.1,1.9,0.3,3.8,0.6,5.8
			C323.2,252.3,322.2,251.3,321.3,250.2z M323.2,244.7h-1.6c0.1-1.3,0.4-2.6,1.4-3.5h1.2C323.9,242.3,323.6,243.5,323.2,244.7z
			 M321.7,247.6c-0.4,0.6-0.8,1.2-1.2,1.8c-0.5-0.6-1.1-1.2-1.6-1.8H321.7z M320.1,250.3c-0.7,1.4-1.2,2.8-1.7,4.2
			c0,0-0.1-0.1-0.1-0.1c-0.4-2.3-0.9-4.6-1.5-6.8h0.9C318.4,248.5,319.2,249.4,320.1,250.3z M318.1,244.7H316c0-1.2,0-2.3,0.2-3.5
			h2.2C318.3,242.3,318.3,243.5,318.1,244.7z M317.1,253.9c-1.5-1-2.8-2.2-4.1-3.5c0.6-1,1.4-1.9,2.1-2.8h0.5
			C316.2,249.7,316.7,251.8,317.1,253.9z M315,244.7h-3.2c0.1-1.2,0.2-2.3,0.2-3.5h3.2C315.1,242.3,315,243.5,315,244.7z
			 M312.7,232.6C312.7,232.7,312.7,232.7,312.7,232.6l-2.9,0c0.6-0.7,1.2-1.3,1.7-1.9c0.6,0.4,1.1,0.8,1.7,1.2
			C312.9,232.1,312.7,232.3,312.7,232.6z M311.3,229.4c-1.4-1.1-2.8-2.3-3.9-3.7h8.1C314.1,226.8,312.6,228,311.3,229.4z
			 M310.6,230.1c-0.7,0.7-1.3,1.4-1.9,2.2c-0.2-0.3-0.9-0.3-0.9,0.3c0,0.1,0,0.1,0,0.2H306c-0.4-2.3-0.7-4.7-1.1-7h1.2
			C307.4,227.4,308.9,228.8,310.6,230.1z M305.1,247.6h1.2c0.4,1.9,0.8,3.8,1.2,5.7c-0.1,0-0.2,0-0.3,0.1c-0.2,0.2-0.4,0.4-0.6,0.6
			c-1.3-1.3-2.5-2.6-3.8-3.9C303.6,249.4,304.4,248.5,305.1,247.6z M302.5,238.2c0-1.5-0.1-3-0.3-4.5h2c0.2,1.5,0.5,3,0.7,4.5H302.5
			z M302.9,211.4c1.3,1.4,2.7,2.8,4,4.2c0.2,0.2,0.4,0.2,0.5,0.1c0.1,0.1,0.2,0.1,0.3,0.2c-1.2,2-2.3,4.1-3.3,6.3
			C303.9,218.6,303.4,215,302.9,211.4z M302.9,225.7c0.4,2.3,0.7,4.7,1.1,7h-5c-0.7-0.7-1.3-1.4-2-2c1.4-1.4,2.7-2.9,4-4.4
			c0.1-0.2,0.1-0.4,0.1-0.5H302.9z M297.3,223.7c-1.3,0-1.3,2,0,2h2.9c-1.3,1.4-2.6,2.9-3.9,4.3c-1.4-1.4-2.8-2.8-4.1-4.3h2.6
			c1.3,0,1.3-2,0-2h-3.8c2-1.9,3.8-4.1,5.4-6.3c1.3,1.8,2.7,3.5,4.2,5.2c0.4,0.5,1.1-0.2,0.7-0.7c-1.5-1.7-3-3.5-4.3-5.4
			c1.4-2,2.6-4.1,3.7-6.3c0.6,4.5,1.2,9,1.9,13.5H297.3z M301.2,197.1C301.2,197.1,301.2,197.1,301.2,197.1c2,0.8,3.6,2.8,5.1,4.4
			c-1.3,1.6-2.6,3.1-4,4.5C301.9,203,301.5,200,301.2,197.1z M301.5,196.1c-0.2-0.1-0.3,0-0.4,0c0-0.1,0-0.3,0-0.4h10.3
			c-1.6,1.5-3,3.2-4.5,4.9c-0.2-0.2-0.4-0.4-0.6-0.6C304.9,198.6,303.4,196.9,301.5,196.1z M300.8,193.8c0-0.4-0.1-0.9-0.1-1.3
			c0.9-1.9,2.2-3.7,3.7-5.3c2.4,2.2,4.9,4.4,7.2,6.6H300.8z M300.5,190.7c-0.3-2.8-0.6-5.7-0.8-8.5c1.2,1.5,2.6,3,4,4.4
			C302.5,187.8,301.4,189.2,300.5,190.7z M291.6,190.7c-0.9-1.5-2-2.9-3.2-4.2c1.4-1.4,2.8-2.8,4-4.4
			C292.2,185,291.9,187.8,291.6,190.7z M291.4,192.4c0,0.4-0.1,0.9-0.1,1.3h-10.8c2.3-2.3,4.8-4.4,7.2-6.6
			C289.2,188.8,290.6,190.5,291.4,192.4z M291.1,195.8c0,0.1,0,0.3,0,0.4c-0.1-0.1-0.2-0.1-0.4,0c-1.9,0.8-3.4,2.4-4.8,3.9
			c-0.2,0.2-0.4,0.4-0.6,0.6c-1.4-1.7-2.9-3.4-4.5-4.9H291.1z M290.9,197.1C290.9,197.1,290.9,197.1,290.9,197.1
			c-0.3,3-0.6,5.9-1,8.9c-1.4-1.4-2.7-3-4-4.5C287.3,199.8,288.9,197.9,290.9,197.1z M291.5,209.5c0.1,0,0.1,0,0.2,0.1
			c1.3,2.4,2.7,4.7,4.2,6.9c-1.7,2.4-3.6,4.7-5.7,6.7c-0.2,0.2-0.2,0.4-0.1,0.5h-0.6C290.2,219,290.9,214.3,291.5,209.5z
			 M290.9,225.7c1.5,1.7,3.1,3.4,4.7,5c-0.7,0.7-1.4,1.4-2.1,2h-5.4c0.4-2.3,0.8-4.7,1.1-7H290.9z M287.7,222.2
			c-1-2.1-2.1-4.2-3.3-6.3c0.1-0.1,0.2-0.1,0.3-0.2c0.2,0.1,0.4,0.1,0.5-0.1c1.4-1.4,2.7-2.8,4-4.2
			C288.8,215,288.3,218.6,287.7,222.2z M287.9,233.7h2c-0.2,1.5-0.3,3-0.3,4.5h-2.4C287.5,236.7,287.7,235.2,287.9,233.7z
			 M289.4,250.8c-0.5,0.4-1.1,0.9-1.5,1.3c-0.5,0.4,0.2,1.2,0.7,0.7c0.5-0.5,1-0.9,1.5-1.3c1,1,2,2.1,3,3.1c-0.1,0-0.1,0-0.2,0h-6.8
			c-0.4-0.4-0.8-0.8-1.2-1.2c-0.1-0.1-0.2-0.1-0.3-0.1c0.4-1.9,0.8-3.8,1.2-5.7h0.7C287.5,248.7,288.4,249.7,289.4,250.8z
			 M286.1,232.7h-1.8c0-0.1,0-0.1,0-0.2c0-0.5-0.7-0.6-0.9-0.3c-0.6-0.8-1.2-1.5-1.9-2.2c1.6-1.3,3.2-2.7,4.5-4.4h1.2
			C286.9,228,286.5,230.4,286.1,232.7z M280.9,229.4c-1.4-1.3-2.8-2.6-4.2-3.7h8.1C283.7,227.1,282.3,228.3,280.9,229.4z
			 M282.3,232.7h-2.9c0,0,0,0,0,0c0.1-0.4-0.2-0.6-0.5-0.6c0.6-0.4,1.1-0.8,1.7-1.2C281.2,231.4,281.8,232,282.3,232.7z
			 M280.1,241.2c0,1.2,0.1,2.3,0.2,3.5h-3.2c0-1.2-0.1-2.3-0.2-3.5H280.1z M277,247.6c0.8,0.9,1.5,1.8,2.1,2.8
			c-1.3,1.3-2.6,2.5-4.1,3.5c0.4-2.1,0.9-4.2,1.4-6.3H277z M274.5,247.6h0.9c-0.6,2.3-1,4.5-1.5,6.8c0,0-0.1,0.1-0.1,0.1
			c-0.5-1.5-1-2.9-1.7-4.2C272.9,249.4,273.7,248.5,274.5,247.6z M273.7,241.2h2.2c0.1,1.2,0.2,2.3,0.2,3.5H274
			C273.9,243.5,273.8,242.3,273.7,241.2z M271.6,249.4c-0.4-0.6-0.7-1.2-1.2-1.8h2.8C272.6,248.2,272.1,248.8,271.6,249.4z
			 M268.9,244.7c-0.3-1.2-0.7-2.3-1-3.5h1.2c1,0.8,1.3,2.2,1.4,3.5H268.9z M268.6,247.6h0.5c0.7,0.8,1.3,1.6,1.8,2.6
			c-1,1.1-1.9,2.1-2.9,3.2C268.2,251.5,268.4,249.6,268.6,247.6z M271.4,251.1c0.6,1.1,1,2.3,1.4,3.5h-0.5c-0.1-0.1-0.1-0.1-0.2-0.2
			c-0.3-0.2-0.7-0.1-0.8,0.2h-3C269.3,253.5,270.3,252.3,271.4,251.1z M270.2,255.6c-0.1,0.2-0.3,0.4-0.4,0.6
			c-0.1-0.2-0.3-0.3-0.4-0.5c-0.1-0.1-0.2-0.2-0.4-0.1H270.2z M269.9,257.8c0.2,0.2,0.4,0.4,0.6,0.7c-0.5,0.8-1.1,1.5-1.6,2.3
			c-0.3-0.3-0.6-0.5-0.8-0.8C268.8,259.2,269.4,258.5,269.9,257.8z M272.3,262.6c-0.2,0.8-0.3,1.5-0.5,2.3c-0.2,0.7-0.3,1.4-0.5,2.2
			c-1.5-1.5-3.1-2.9-4.5-4.4H272.3z M271.8,269.4c0.1-0.1,0.2-0.2,0.3-0.3c1.7,1.7,3.3,3.4,4.6,5.4h-6.1
			C271,272.9,271.4,271.1,271.8,269.4z M269.6,274.6h-4.7c1.9-1.4,3.8-2.9,5.7-4.3C270.3,271.7,269.9,273.1,269.6,274.6z
			 M270.1,276.6h5.5c-2.2,1.8-4.5,3.5-6.8,5.1C269.2,280,269.7,278.3,270.1,276.6z M277.1,276.6c-1.1,4.6-2.3,9.1-3.4,13.7
			c-1.7-2.2-3.6-4.3-5.5-6.3c0.1-0.3,0.1-0.5,0.2-0.8C271.3,281,274.3,278.9,277.1,276.6z M273.4,291.6c0,0.2-0.1,0.3-0.1,0.5H266
			c0.6-2.2,1.2-4.4,1.8-6.6c0-0.1,0.1-0.2,0.1-0.4C269.8,287.2,271.7,289.3,273.4,291.6z M272.1,294c-0.9,1.4-3,2.3-4.3,3.1
			c-1.3,0.7-2.6,1.4-3.8,2.2c0.5-1.7,1-3.5,1.5-5.2H272.1z M264.2,300.3c2-1.2,4.1-2.3,6-3.6c0.7-0.5,1.7-1,2.3-1.7
			c-1,4.1-2,8.3-3.1,12.5c-2.1-2.1-4.1-4.2-6.1-6.3c0-0.2,0.1-0.3,0.1-0.5C263.8,300.5,264,300.4,264.2,300.3z M269.2,308.6
			c-0.1,0.3-0.1,0.6-0.2,0.9h-8.2c0.8-2.4,1.5-4.8,2.3-7.2C265.1,304.4,267.1,306.5,269.2,308.6z M267,311.5c-2,1-3.9,2.1-5.9,3.3
			H259c0.4-1.1,0.8-2.2,1.1-3.3H267z M257.9,314.8h-3c-1.2-1.1-2.3-2.3-3.5-3.3h7.7C258.7,312.6,258.3,313.7,257.9,314.8z
			 M257.6,315.8c-0.1,0.4-0.3,0.8-0.4,1.2c-0.4-0.4-0.8-0.8-1.2-1.2H257.6z M251.5,328.4v4.5h-3.6v-4.5H251.5z M248.6,323.9h-1
			c0.3-0.2,0.7-0.3,1-0.5C248.6,323.6,248.6,323.8,248.6,323.9z M251.3,335.9c-0.3,0.4-0.6,0.7-0.9,0.9c-0.3,0.2-0.3,0.5-0.1,0.7
			c-0.4,0.4-0.7,0.7-1.1,1.1c-0.5-0.4-1-0.8-1.6-1.1c-0.1-0.1-0.3-0.1-0.4-0.1c-0.3-0.3-0.5-0.5-0.8-0.8c0-0.1-0.1-0.1-0.1-0.1
			c-0.2-0.2-0.4-0.4-0.7-0.6H251.3z M246.9,332.9h-2.6v-4.5h2.6V332.9z M245.4,337c-0.6,1-1.2,1.9-1.9,2.8c-0.5-0.6-1-1.3-1.6-1.9
			c0.4-0.7,0.8-1.4,1.2-2h1C244.6,336.3,245,336.6,245.4,337z M243.2,332.9h-1.9c0-1.5-0.4-3.1-1.1-4.5h3V332.9z M242,335.9
			c-0.2,0.4-0.5,0.9-0.8,1.3c-0.4-0.4-0.9-0.9-1.3-1.3H242z M241.4,338.8c0.5,0.6,1,1.2,1.5,1.8c-1,1.3-2.1,2.6-3.2,3.9
			c-0.4-0.6-0.9-1.2-1.4-1.8C239.4,341.5,240.4,340.2,241.4,338.8z M239,345.3c-0.9,1-1.8,1.9-2.7,2.8c-0.5-0.6-1-1.2-1.6-1.7
			c1-0.9,1.9-1.9,2.9-2.9C238.1,344,238.6,344.6,239,345.3z M236.7,350.9h-2c0.5-0.4,0.9-0.9,1.4-1.3
			C236.3,350,236.5,350.4,236.7,350.9z M235.5,353.1c0.1-0.1,0.1-0.2,0.2-0.3h1.8c0,0,0,0.1,0,0.1c0.1,0.2,0.2,0.4,0.3,0.5
			c-0.6,0.6-1.2,1.2-1.8,1.8c-0.5-0.5-0.9-1-1.4-1.5C234.9,353.6,235.2,353.3,235.5,353.1z M235.9,356.7c0.6,0.6,1.1,1.2,1.7,1.7
			c-0.3,0.3-0.5,0.5-0.8,0.8c0,0,0,0.1-0.1,0.1h-1c-0.4-0.4-0.8-0.9-1.2-1.3C235,357.6,235.5,357.2,235.9,356.7z M236.7,356
			c0.6-0.6,1.1-1.1,1.7-1.7c0.4,0.6,1,1.2,1.5,1.8c-0.5,0.5-1,1.1-1.5,1.6C237.8,357.2,237.2,356.6,236.7,356z M240.5,356.9
			c0.5,0.5,0.9,1,1.4,1.5c-0.2,0.2-0.3,0.4-0.5,0.6c-0.1,0.1-0.1,0.2-0.1,0.3h-0.6c0.1-0.3,0.2-0.6,0.3-0.9c0.2-0.6-0.7-0.9-1-0.3
			c-0.1,0.3-0.2,0.6-0.3,1c-0.3-0.3-0.5-0.5-0.8-0.8C239.5,357.9,240,357.4,240.5,356.9z M240.1,361.3h0.5c0.3,0.3,0.6,0.6,0.9,0.9
			c0.5,0.4,1.1-0.2,0.7-0.7c-0.1-0.1-0.1-0.1-0.2-0.2h6.8c0.1,0.1,0.2,0.2,0.3,0.3c0.3,0.3,0.7,0.1,0.8-0.3h1.1
			c-3.6,3.2-7.9,5.3-12.2,7.3c-0.3-0.3-0.6-0.5-0.8-0.8C238.6,365.7,239.3,363.5,240.1,361.3z M240.8,370.7c3,0,5.9-0.1,8.9-0.4
			c-0.5,1.8-1.1,3.6-1.6,5.5c-0.3,0.9-0.5,1.7-0.8,2.6C245.3,375.7,243.2,373.1,240.8,370.7z M239.8,369.7c-0.1-0.1-0.2-0.2-0.3-0.3
			c4.6-2.1,9-4.4,12.7-7.8c-0.7,2.6-1.5,5.2-2.2,7.8c0,0,0,0,0,0C246.6,369.6,243.2,369.7,239.8,369.7z M250.9,374.1
			c0.2,0.3,0.5,0.6,0.7,0.8c-0.6,0.7-1.2,1.4-1.8,2C250.1,376,250.5,375.1,250.9,374.1z M251.4,373.2c0.6-1,1.2-2,1.9-3
			c0.4,0.6,0.8,1.2,1.2,1.8c-0.8,0.7-1.5,1.5-2.2,2.2C252,373.9,251.7,373.5,251.4,373.2z M254,369.4c0.8-1,1.7-1.9,2.7-2.8
			c0.5,0.8,1,1.5,1.5,2.2c-1,0.8-2,1.7-3,2.6C254.8,370.7,254.4,370.1,254,369.4z M257.4,365.9c0.9-0.8,2-1.6,3-2.3
			c0.4,0.8,0.8,1.7,1.2,2.5c-0.9,0.6-1.8,1.3-2.7,2C258.4,367.5,257.9,366.7,257.4,365.9z M261.2,363.1c1-0.7,2.1-1.3,3.1-1.8
			c0.3,0.8,0.7,1.6,1.1,2.4c-1,0.6-2,1.3-3,1.9C262.1,364.7,261.7,363.9,261.2,363.1z M265.2,360.8c1.1-0.6,2.2-1.1,3.3-1.6
			c0.3,0.7,0.6,1.4,0.9,2.1c-1.1,0.6-2.1,1.1-3.2,1.8C265.9,362.3,265.6,361.6,265.2,360.8z M268.7,357.1c-0.7-1.4-1.4-2.8-2-4.2
			h2.2c0,0.1,0.1,0.2,0.1,0.3c0.2,0.5,0.9,0.2,0.9-0.3h1.4c0,0.1,0,0.2,0,0.3c0.4,0.8,0.7,1.7,1,2.6
			C271.1,356.1,269.8,356.6,268.7,357.1z M272.9,357.6c0.2,0.6,0.3,1.3,0.5,1.9c-1,0.4-2,0.9-3.1,1.4c-0.3-0.7-0.6-1.4-0.9-2.1
			C270.6,358.4,271.7,358,272.9,357.6z M273.2,355.4c-0.3-0.9-0.6-1.7-1-2.5h4.8c0.1,0.5,0.1,0.9,0.2,1.4
			C275.9,354.6,274.5,355,273.2,355.4z M274.4,345.9c1.4-1.5,2.8-3,4.2-4.5c0.4,0.3,0.7,0.6,1.1,1c1,1,2.1,2,3.2,3.1
			c-1.6,1.6-3.3,3.2-4.8,4.9C276.9,348.8,275.7,347.3,274.4,345.9z M278.9,350.9c1.5-1.6,3-3.1,4.6-4.6c1,1.2,1.9,2.4,2.4,3.8
			c-0.1,0.1-0.3,0.3-0.4,0.4c-0.1,0.1-0.1,0.2-0.1,0.4H278.9z M282.2,353c-1.4,0.3-2.7,0.6-4.1,0.9c-0.1-0.4-0.1-0.7-0.1-1.1h4.2
			C282.2,352.9,282.2,353,282.2,353z M281.3,342.6c-0.7-0.6-1.3-1.3-2-1.9c1.1-1.1,2.3-2.1,3.6-3c1.3,1.3,2.8,2.6,4.2,3.9
			c-1.2,1.1-2.4,2.2-3.5,3.3C282.8,344.1,282,343.3,281.3,342.6z M309.3,337.7c1.3,0.9,2.4,2,3.6,3c-0.7,0.6-1.4,1.2-2,1.9
			c-0.7,0.7-1.5,1.4-2.2,2.2c-1.2-1.1-2.3-2.2-3.5-3.3C306.5,340.3,307.9,339,309.3,337.7z M308.7,346.3c1.5,1.5,3.1,3,4.6,4.6h-6.4
			c0-0.1,0-0.2-0.1-0.4c-0.1-0.1-0.3-0.3-0.4-0.4C306.8,348.7,307.6,347.4,308.7,346.3z M309.9,352.9h4.2c0,0.4-0.1,0.7-0.1,1.1
			c-1.4-0.4-2.7-0.7-4.1-0.9C309.9,353,309.9,352.9,309.9,352.9z M309.3,345.5c1-1.1,2.2-2.2,3.2-3.1c0.3-0.3,0.7-0.7,1.1-1
			c1.4,1.4,2.8,2.9,4.2,4.5c-1.3,1.4-2.5,2.9-3.6,4.5C312.6,348.7,310.9,347.1,309.3,345.5z M315.1,352.9h4.8
			c-0.4,0.8-0.7,1.7-1,2.5c-1.3-0.4-2.6-0.8-4-1.2C315,353.8,315.1,353.3,315.1,352.9z M319.3,357.6c1.1,0.4,2.3,0.8,3.4,1.3
			c-0.3,0.7-0.6,1.4-0.9,2.1c-1-0.5-2-1-3.1-1.4C318.9,358.9,319.1,358.2,319.3,357.6z M319.8,355.7c0.3-0.9,0.6-1.7,1-2.6
			c0-0.1,0-0.2,0-0.3h1.4c0,0.5,0.7,0.7,0.9,0.3c0-0.1,0.1-0.2,0.1-0.3h2.2c-0.7,1.4-1.3,2.8-2,4.2
			C322.3,356.6,321.1,356.1,319.8,355.7z M323.6,359.2c1.1,0.5,2.2,1,3.3,1.6c-0.3,0.8-0.7,1.6-1,2.3c-1-0.6-2.1-1.2-3.2-1.8
			C323,360.6,323.3,359.9,323.6,359.2z M327.8,361.3c1.1,0.6,2.1,1.2,3.1,1.8c-0.4,0.8-0.8,1.6-1.2,2.5c-1-0.7-2-1.3-3-1.9
			C327.1,362.9,327.4,362.1,327.8,361.3z M331.7,363.7c1.1,0.7,2.1,1.5,3,2.3c-0.5,0.8-1,1.5-1.6,2.2c-0.9-0.7-1.8-1.4-2.7-2
			C330.9,365.3,331.3,364.5,331.7,363.7z M335.5,366.6c1,0.9,1.9,1.8,2.7,2.8c-0.4,0.6-0.9,1.3-1.3,1.9c-1-0.9-1.9-1.7-3-2.6
			C334.5,368.1,335,367.4,335.5,366.6z M338.8,370.2c0.7,0.9,1.4,1.9,1.9,3c-0.3,0.3-0.6,0.7-0.9,1c-0.7-0.8-1.5-1.5-2.2-2.2
			C338,371.4,338.4,370.8,338.8,370.2z M341.2,374.1c0.5,0.9,0.8,1.9,1.1,2.9c-0.6-0.7-1.2-1.4-1.8-2
			C340.8,374.7,341,374.4,341.2,374.1z M342.2,369.3C342.2,369.3,342.1,369.3,342.2,369.3c-0.8-2.6-1.5-5.2-2.2-7.8
			c3.7,3.4,8.2,5.7,12.7,7.8c-0.1,0.1-0.2,0.2-0.3,0.3C348.9,369.7,345.5,369.6,342.2,369.3z M351.3,370.7c-2.3,2.4-4.5,5-6.4,7.6
			c-0.3-0.9-0.6-1.7-0.8-2.6c-0.6-1.8-1.1-3.6-1.6-5.5C345.4,370.6,348.4,370.7,351.3,370.7z M352.7,370.7c0.8,0,1.7,0,2.5,0
			c0.9,2.9,1.9,5.7,2.8,8.6h-12.5C347.6,376.4,350,373.4,352.7,370.7z M358.6,381.3c0.9,2.6,1.8,5.2,2.7,7.7
			c-4.4-2.5-8.8-5.1-13.1-7.7H358.6z M374.1,379.3H359c-0.9-2.7-1.8-5.5-2.7-8.2c3.5,1.6,6.9,3.3,9.9,5.5c0.5,0.4,1-0.5,0.5-0.9
			c-2.8-2-5.8-3.5-9-5c2.2,0,4.5-0.1,6.7-0.1c0.6,0,0.6-1,0-1c-2.9,0-5.8,0.1-8.7,0.1c-0.2-0.5-0.3-1-0.5-1.5c2.3-2,4.6-3.8,7.1-5.2
			c0.6-0.3,0.1-1.2-0.5-0.9c-2.4,1.4-4.7,3.1-6.9,5.1c-0.6-1.9-1.3-3.9-1.9-5.8h12.3C368.3,367.3,371.2,373.3,374.1,379.3z
			 M364.3,359.1c-0.6-0.4-1.2-0.9-1.7-1.4c0.1-0.4,0.3-0.8,0.5-1.1C363.5,357.5,363.9,358.3,364.3,359.1z M362.6,355.6
			c-0.3,0.4-0.6,0.9-0.8,1.5c-0.6-0.5-1.1-1-1.7-1.6c0.5-0.6,1-1.2,1.5-1.8C362,354.3,362.3,355,362.6,355.6z M359.4,354.8
			c-0.1-0.1-0.1-0.1-0.2-0.2c-0.1-0.1-0.1-0.1-0.2-0.1c-0.4-0.3-0.7-0.6-1.1-0.9c0.2-0.2,0.4-0.4,0.6-0.6c0.1-0.1,0.1-0.1,0.1-0.2
			h2.3C360.5,353.5,360,354.1,359.4,354.8z M358.4,346.8c0.6,1.4,1.3,2.7,1.9,4.1h-1.4c-0.8-0.7-1.6-1.4-2.4-2.1
			c0.5-0.7,1.1-1.3,1.7-1.8C358.3,346.9,358.4,346.8,358.4,346.8z M357.7,345.3c-0.8-0.8-1.7-1.6-2.5-2.5c0.3-0.3,0.6-0.5,1-0.7
			C356.7,343.1,357.2,344.2,357.7,345.3z M355.8,341.2c-0.4,0.3-0.8,0.6-1.2,0.9c-1.1-1.3-2.2-2.6-3.1-4c0.6-0.7,1.3-1.3,2-1.9
			C354.2,337.8,355,339.5,355.8,341.2z M354.4,330.4c-0.2,0.8-0.4,1.7-0.6,2.5h-0.1c-0.1,0-0.2,0-0.2,0h-1.6c0-1.5,0.5-3.1,1.2-4.5
			h2C354.7,329.1,354.6,329.8,354.4,330.4z M355.5,318.4v5.5H350c0-0.2,0-0.3-0.1-0.5c-0.7-1.6-1.5-3.3-2.2-5H355.5z M348,323.9
			h-1.2c-1.2-0.5-2.3-1.1-3.5-1.7c-0.1-1.3-0.3-2.5-0.5-3.8h2.6C346.3,320.3,347.2,322.1,348,323.9z M345.1,317.5h-2.3
			c0-0.4-0.1-0.8-0.1-1.2c-0.1-0.6-1.1-0.6-1,0c0,0.4,0.1,0.8,0.1,1.2h-5.9c0.6-0.6,1.2-1.1,1.7-1.7h6.7
			C344.6,316.3,344.8,316.9,345.1,317.5z M343.9,314.8h-5.2c1.2-1.2,2.4-2.3,3.7-3.4C342.9,312.5,343.4,313.7,343.9,314.8z
			 M341.5,309.5h-9.1c-0.9-2.7-1.7-5.4-2.5-8.1c4,2.3,8.2,4.8,11.6,7.9C341.5,309.4,341.5,309.4,341.5,309.5z M340.6,307.3
			c-3.1-2.5-6.7-4.4-10.1-6.6c1.7-1.9,3.4-3.8,5-5.7C337.1,299.1,338.8,303.2,340.6,307.3z M329.7,300.2
			C329.6,300.2,329.6,300.2,329.7,300.2c-0.1-0.1-0.1-0.1-0.2-0.1c-0.6-2-1.2-4-1.8-6h7.3C333.3,296.1,331.5,298.2,329.7,300.2z
			 M334.3,292h-7.2c-0.6-2.3-1.3-4.5-1.9-6.8c-0.1-0.3-0.2-0.6-0.3-1c0,0,0,0,0.1-0.1c2.9,2.1,5.8,4.2,8.7,6.4
			C334,291,334.1,291.5,334.3,292z M333.1,288.8c-2.4-1.8-4.9-3.6-7.4-5.4c1.4-1.5,2.7-3,4-4.6C330.8,282.2,331.9,285.5,333.1,288.8
			z M329.4,277.7c-1.4,1.8-2.9,3.5-4.5,5.2c-0.1-0.1-0.2-0.2-0.4-0.3c-0.5-2-1-4-1.5-6h6C329.2,276.9,329.3,277.3,329.4,277.7z
			 M328.4,274.2c-2.4-1.8-4.8-3.7-7.2-5.4c-0.1-0.2-0.1-0.4-0.2-0.7c1.6-1.5,3.3-3.1,4.7-4.7C326.5,267.1,327.4,270.7,328.4,274.2z
			 M325.4,261.6h-1.8c0.4-0.3,0.7-0.7,1.1-1c0.2,0.2,0.4,0.4,0.6,0.6C325.4,261.4,325.4,261.5,325.4,261.6z M325.2,233.7h3v4.5
			c-0.1,0-0.2,0-0.3,0h-2.7V233.7z M325.2,241.2h1.3c-0.6,1-1.2,2.1-1.7,3.1c-0.1-0.1-0.3-0.1-0.4-0.1
			C324.7,243.2,325,242.2,325.2,241.2z M324.4,256.8c0.1,0.1,0.2,0.1,0.3,0.1c0.1,0.6,0.2,1.3,0.3,1.9c-0.1,0.1-0.2,0.2-0.3,0.3
			c-0.6-0.7-1.3-1.4-1.8-2.1c0.2-0.2,0.4-0.4,0.5-0.6c0.3-0.3,0-0.8-0.3-0.9h0.8c0,0.1,0,0.1,0,0.2
			C323.9,256.2,324.1,256.5,324.4,256.8z M324.2,233.7v4.5h-2.5c0.1-0.2,0.2-0.5,0.1-0.8c-0.3-1.2-0.5-2.5-0.8-3.7H324.2z
			 M321.7,241.2c-0.7,1-1,2.2-1.1,3.5h-1.6c0.1-1.2,0.2-2.3,0.3-3.5H321.7z M320,237.9c0,0.1,0.1,0.2,0.1,0.2h-6
			c0-1.5,0.1-3-0.1-4.5h1.5c0.7,0.5,1.3,1,2,1.5c0.5,0.4,1.2-0.3,0.7-0.7c-0.3-0.3-0.7-0.5-1.1-0.8h2
			C319.4,235.1,319.7,236.5,320,237.9z M318.9,232.7h-3.2c-1.2-0.9-2.4-1.7-3.6-2.6c1.5-1.6,3.1-3,4.8-4.4h0.6
			C318,228,318.5,230.4,318.9,232.7z M317.3,223.7h-12.5c1.1-2.5,2.3-4.9,3.7-7.2c1.9,1.6,3.9,3.2,5.7,5c0.5,0.5,1.2-0.3,0.7-0.7
			c-1.9-1.8-3.9-3.5-5.9-5.2c0.8-1.3,1.7-2.6,2.6-3.8c0.4-0.5-0.3-1.2-0.7-0.7c-0.9,1.2-1.8,2.5-2.6,3.8c-2-1.7-4.3-3.6-5.4-6h12.1
			C315.6,214,316.4,218.8,317.3,223.7z M314.8,208.1h-12.3c0-0.3-0.1-0.6-0.1-0.8c1.6-1.6,3.1-3.3,4.5-5.1c1.6,1.8,3.3,3.5,5.4,4.8
			c0.5,0.3,1-0.5,0.5-0.9c-2-1.2-3.6-3-5.2-4.7c1.5-1.8,3-3.5,4.7-5.1c0.2-0.2,0.2-0.4,0.1-0.6c0.4-0.1,0.6-0.5,0.7-0.9
			C313.6,199.3,314.2,203.7,314.8,208.1z M312.8,193.5c-2.5-2.4-5.2-4.7-7.7-7.1c1.4-1.4,2.9-2.8,4.2-4.1c0.5-0.5-0.2-1.2-0.7-0.7
			c-1.3,1.3-2.8,2.7-4.2,4.1c-1.6-1.5-3.1-3.2-4.4-4.9h9.6c0.6,0,0.6-1,0-1h-10.1c0-0.2,0-0.4,0-0.7c1.4-2,2.8-3.9,4.3-5.8
			c1.5,1.4,2.9,2.8,4.2,4.3c0.4,0.5,1.1-0.2,0.7-0.7c-1.3-1.6-2.7-3-4.2-4.4c1.4-1.8,2.9-3.5,4.5-5.2c0.2-0.2,0.2-0.4,0.1-0.5h0.5
			c0.1,0,0.1,0,0.2,0C310.8,175.7,311.7,184.6,312.8,193.5z M309.6,164.9C309.6,164.9,309.6,164.9,309.6,164.9l-11.2,0
			c1.3-1.6,2.7-3.2,4.1-4.7c1.1,1,2.3,1.9,3.4,2.9c0.5,0.4,1.2-0.3,0.7-0.7c-1.1-1-2.3-2-3.4-3c1.4-1.6,2.9-3.1,4.4-4.6
			c0.5-0.5-0.2-1.2-0.7-0.7c-1.5,1.5-3,3.1-4.4,4.7c-0.1-0.1-0.2-0.2-0.3-0.3c-1.1-1-3.7-3-3.6-4.7c0-0.5-0.6-0.6-0.9-0.3
			c0-0.2,0-0.4,0-0.5h9.3c0.6,0,0.6-1,0-1h-8.7c1.5-1.5,2.8-3.4,4.1-5.1c1,1.1,2,2.2,2.9,3.3c0.4,0.5,1.1-0.2,0.7-0.7
			c-1-1.2-2-2.3-3-3.4c1.1-1.4,2.2-2.7,3.6-3.8c0.5-0.4,0-1.3-0.5-0.9c-1.5,1.1-2.6,2.5-3.7,3.9c-1.3-1.3-2.6-2.6-3.9-3.9
			c2.7,0.4,5.7-0.4,8.2-0.4c0.2,0,0.3,0,0.4-0.1C307.9,148.8,308.8,156.9,309.6,164.9z M306.1,132.4c0.3,2.2,0.5,4.4,0.8,6.6
			c-0.1,0-0.1,0-0.2,0c-2.6,0-5.9,1-8.6,0.3c0.2-0.2,0.4-0.5,0.5-0.7c0.9-1,1.7-2.1,2.5-3.2c0.2-0.3,0.5-0.6,0.7-0.9
			c1.3,1.1,2.6,2.2,3.8,3.3c0.5,0.4,1.2-0.3,0.7-0.7c-1.3-1.2-2.6-2.3-3.9-3.4c1.1-1.4,2.2-2.8,3.3-4.2
			C305.8,130.5,306,131.4,306.1,132.4z M305.6,128.3c-0.1,0-0.2,0.1-0.3,0.2c-1.2,1.5-2.4,3.1-3.6,4.6c-1.5-1.3-3-2.6-4.5-3.9
			c0-0.2,0-0.3,0-0.5h7.1c0.6,0,0.6-1,0-1h-7.1c0-0.1,0-0.1,0-0.2c1.1-1.5,2.3-3,3.4-4.5c0.9,1,1.8,1.9,2.6,2.9
			c0.4,0.5,1.1-0.2,0.7-0.7c-0.9-1-1.8-1.9-2.7-3c0.9-1.1,1.8-2.2,2.7-3.3c0.4-0.5-0.3-1.2-0.7-0.7c-0.9,1.1-1.8,2.2-2.7,3.3
			c-1.1-1.3-2.2-2.6-3-4c2.2-0.1,4.3-0.3,6.5-0.4C304.6,120.8,305.1,124.5,305.6,128.3z M303.1,106c0.2,3,0.5,6.1,0.8,9.1
			c-2.1,0.1-4.1,0.3-6.2,0.4c0.8-1.5,1.6-2.9,2.4-4.4c0.9,1,1.7,1.9,2.4,3c0.3,0.5,1.2,0,0.9-0.5c-0.8-1.2-1.8-2.3-2.8-3.4
			c0.7-1.3,1.4-2.5,2.1-3.7c0.3-0.6-0.5-1.1-0.9-0.5c-0.7,1.1-1.3,2.3-2,3.5c-0.9-1-1.8-2-2.6-3.2c0-0.2,0-0.4,0-0.5h5
			c0.6,0,0.6-1,0-1h-5c0-0.5,0-1,0-1.5c0.7-1.2,1.4-2.5,2.2-3.6c1.1,1.2,2.1,2.5,3,3.9c0.1,0.2,0.2,0.2,0.4,0.2
			C303,104.4,303.1,105.2,303.1,106z M302.9,102.2c-0.8-1.2-1.8-2.4-2.7-3.5c0.6-0.7,1.2-1.5,1.8-2.1c0.4-0.5-0.3-1.2-0.7-0.7
			c-0.6,0.7-1.3,1.4-1.8,2.1c-0.7-0.8-1.4-1.5-2.2-2.2c0-0.1,0-0.1,0-0.2h5.3C302.7,97.8,302.8,100,302.9,102.2z M301.8,29.7
			c0.3,0.8,0.7,1.7,1,2.5h-0.6c-0.4-0.8-0.8-1.6-0.9-2.5H301.8z M300.3,29.7c0.1,0.9,0.3,1.7,0.7,2.5h-1c-0.1-0.8-0.3-1.7-0.3-2.5
			H300.3z M297.3,31.7v-2h1.4c0.1,0.8,0.2,1.7,0.3,2.5h-1.9C297.2,32.1,297.3,31.9,297.3,31.7z M297.1,60.2c0.4,0.6,0.8,1.1,1.2,1.6
			c-0.4,0.7-0.8,1.4-1.2,2.1c0-0.2,0-0.5,0-0.7C297.1,62.2,297.1,61.2,297.1,60.2z M297.1,174.8c-0.4-1.1-0.7-2.2-0.9-3.3
			c0.1,0,0.1,0.1,0.2,0.1c0.2,0,0.3-0.1,0.4-0.2C296.9,172.5,297,173.6,297.1,174.8z M296.1,159.9c0.1,1.7,0.2,3.4,0.3,5
			c-0.1,0.1-0.2,0.1-0.3,0.2c-0.1-0.1-0.2-0.2-0.3-0.2C295.9,163.3,296,161.6,296.1,159.9z M295.6,166.8c0.2-0.1,0.3-0.2,0.4-0.3
			c0.1,0.1,0.2,0.2,0.4,0.3c0.1,1.3,0.2,2.6,0.3,3.9c-0.1-0.1-0.2-0.1-0.3-0.1c-0.2,0-0.3,0.1-0.4,0.2c-0.1-0.5-0.1-1.1-0.1-1.7
			c0-0.3-0.2-0.4-0.4-0.5C295.6,168,295.6,167.4,295.6,166.8z M297.3,177.7c0.1,0.7,0.1,1.4,0.2,2.1h-2.9c0.2-2.7,0.4-5.3,0.6-8
			C295.6,173.9,296.4,175.9,297.3,177.7z M295.1,63.2c0,0.2,0,0.5,0,0.7c-0.4-0.7-0.9-1.4-1.2-2.1c0.4-0.5,0.8-1.1,1.2-1.6
			C295.1,61.2,295.1,62.2,295.1,63.2z M293.5,29.7h1.4v2c0,0.2,0.1,0.4,0.1,0.5h-1.9C293.3,31.4,293.4,30.6,293.5,29.7z M291.8,29.7
			h0.7c-0.1,0.8-0.2,1.7-0.4,2.5h-1C291.5,31.4,291.7,30.6,291.8,29.7z M290.4,29.7h0.5c-0.1,0.9-0.5,1.7-0.9,2.5h-0.6
			C289.7,31.4,290,30.6,290.4,29.7z M289.5,95.6h5.3c0,0.1,0,0.1,0,0.2c-0.8,0.7-1.5,1.5-2.2,2.2c-0.6-0.7-1.2-1.4-1.8-2.1
			c-0.4-0.5-1.1,0.2-0.7,0.7c0.7,0.7,1.3,1.4,1.8,2.1c-1,1.1-1.9,2.3-2.7,3.5C289.3,100,289.4,97.8,289.5,95.6z M289,106
			c0-0.8,0.1-1.5,0.1-2.3c0.1,0,0.3-0.1,0.4-0.2c0.9-1.4,1.9-2.7,3-3.9c0.8,1.2,1.5,2.4,2.2,3.6c0,0.5,0,1,0,1.5h-5
			c-0.6,0-0.6,1,0,1h5c0,0.2,0,0.4,0,0.5c-0.8,1.1-1.7,2.2-2.6,3.2c-0.6-1.2-1.3-2.3-2-3.5c-0.3-0.6-1.2-0.1-0.9,0.5
			c0.7,1.2,1.4,2.5,2.1,3.7c-1,1.1-2,2.2-2.8,3.4c-0.3,0.5,0.5,1,0.9,0.5c0.7-1.1,1.5-2.1,2.4-3c0.8,1.5,1.6,2.9,2.4,4.4
			c-2.1-0.1-4.1-0.3-6.2-0.4C288.6,112,288.9,109,289,106z M288,117.1c2.2,0.1,4.3,0.3,6.5,0.4c-0.8,1.4-1.9,2.7-3,4
			c-0.9-1.1-1.8-2.2-2.7-3.3c-0.4-0.5-1.1,0.2-0.7,0.7c0.9,1.1,1.8,2.2,2.7,3.3c-0.9,1-1.9,2-2.7,3c-0.4,0.5,0.3,1.2,0.7,0.7
			c0.8-1,1.7-1.9,2.6-2.9c1.2,1.5,2.3,3,3.4,4.5c0,0.1,0,0.1,0,0.2h-7.1c-0.6,0-0.6,1,0,1h7.1c0,0.2,0,0.3,0,0.5
			c-1.5,1.3-3,2.6-4.5,3.9c-1.2-1.5-2.4-3.1-3.6-4.6c-0.1-0.1-0.2-0.1-0.3-0.2C287,124.5,287.5,120.8,288,117.1z M286,132.4
			c0.1-1,0.2-1.9,0.4-2.9c1.1,1.4,2.2,2.8,3.3,4.2c-1.3,1.1-2.6,2.3-3.9,3.4c-0.5,0.4,0.2,1.1,0.7,0.7c1.3-1.1,2.5-2.2,3.8-3.3
			c0.2,0.3,0.5,0.6,0.7,0.9c0.8,1.1,1.7,2.1,2.5,3.2c0.2,0.2,0.3,0.4,0.5,0.7c-2.7,0.6-6-0.3-8.6-0.3c-0.1,0-0.1,0-0.2,0
			C285.5,136.8,285.8,134.6,286,132.4z M285.1,140.8c0.1,0.1,0.3,0.1,0.4,0.1c2.5,0,5.5,0.8,8.2,0.4c-1.3,1.3-2.6,2.6-3.9,3.9
			c-1.1-1.4-2.3-2.8-3.7-3.9c-0.5-0.4-1,0.5-0.5,0.9c1.4,1.1,2.5,2.4,3.6,3.8c-1,1.1-2.1,2.2-3,3.4c-0.4,0.5,0.3,1.2,0.7,0.7
			c0.9-1.2,1.9-2.2,2.9-3.3c1.3,1.8,2.5,3.6,4.1,5.1h-8.7c-0.6,0-0.6,1,0,1h9.3c0,0.2,0,0.4,0,0.5c-0.3-0.3-0.9-0.2-0.9,0.3
			c0.1,1.7-2.5,3.7-3.6,4.7c-0.1,0.1-0.2,0.2-0.3,0.3c-1.5-1.6-2.9-3.2-4.4-4.7c-0.4-0.5-1.1,0.2-0.7,0.7c1.5,1.5,3,3.1,4.4,4.6
			c-1.1,1-2.3,2-3.4,3c-0.5,0.4,0.2,1.1,0.7,0.7c1.1-1,2.3-1.9,3.4-2.9c1.4,1.5,2.8,3.1,4.1,4.7h-11.1c0,0,0,0,0,0
			C283.4,156.9,284.2,148.8,285.1,140.8z M282.3,166.8c0.1,0,0.1,0,0.2,0h0.5c-0.1,0.2-0.1,0.4,0.1,0.5c1.6,1.6,3.1,3.4,4.5,5.2
			c-1.5,1.4-2.9,2.8-4.2,4.4c-0.4,0.5,0.3,1.2,0.7,0.7c1.3-1.6,2.7-3,4.2-4.3c1.5,1.9,2.9,3.9,4.3,5.8c0,0.2,0,0.4-0.1,0.7h-10.1
			c-0.6,0-0.6,1,0,1h9.6c-1.3,1.8-2.9,3.4-4.4,4.9c-1.4-1.4-2.9-2.8-4.2-4.1c-0.5-0.5-1.1,0.3-0.7,0.7c1.3,1.3,2.8,2.6,4.2,4.1
			c-2.5,2.4-5.2,4.7-7.7,7.1C280.4,184.6,281.4,175.7,282.3,166.8z M279.1,194.9c0,0.4,0.3,0.7,0.7,0.9c-0.1,0.2-0.1,0.4,0.1,0.6
			c1.7,1.6,3.2,3.4,4.7,5.1c-1.6,1.7-3.2,3.5-5.2,4.7c-0.5,0.3,0,1.2,0.5,0.9c2-1.3,3.7-3.1,5.4-4.8c1.4,1.7,2.9,3.5,4.5,5.1
			c0,0.3-0.1,0.6-0.1,0.8h-12.3C278,203.7,278.6,199.3,279.1,194.9z M277.2,209.1h12.1c-1.1,2.4-3.5,4.3-5.4,6
			c-0.8-1.3-1.7-2.6-2.6-3.8c-0.4-0.5-1.1,0.2-0.7,0.7c0.9,1.2,1.8,2.5,2.6,3.8c-2,1.7-4,3.3-5.9,5.2c-0.5,0.4,0.2,1.2,0.7,0.7
			c1.8-1.8,3.8-3.4,5.7-5c1.4,2.3,2.6,4.7,3.7,7.2h-12.5C275.7,218.8,276.5,214,277.2,209.1z M274.5,225.7h0.6
			c1.7,1.4,3.3,2.8,4.8,4.4c-1.2,0.9-2.4,1.7-3.6,2.6h-3.2C273.7,230.4,274.1,228,274.5,225.7z M272.1,237.9
			c0.3-1.4,0.6-2.8,0.9-4.3h2c-0.4,0.3-0.7,0.5-1.1,0.8c-0.5,0.4,0.2,1.1,0.7,0.7c0.6-0.5,1.3-1,2-1.5h1.5c-0.2,1.5-0.2,3-0.1,4.5
			h-6C272.1,238.1,272.1,238,272.1,237.9z M272.7,241.2c0.1,1.2,0.2,2.3,0.3,3.5h-1.6c-0.1-1.3-0.4-2.5-1.1-3.5H272.7z M267.9,233.7
			h3.1c-0.2,1.2-0.5,2.5-0.8,3.7c-0.1,0.3,0,0.6,0.1,0.8h-2.5V233.7z M268.2,255.8c0-0.1,0-0.1,0-0.2h0.8c-0.4,0-0.7,0.5-0.3,0.9
			c0.2,0.2,0.4,0.4,0.5,0.6c-0.6,0.7-1.2,1.4-1.8,2.1c-0.1-0.1-0.2-0.2-0.3-0.3c0.1-0.6,0.2-1.3,0.3-1.9c0.1,0,0.2,0,0.3-0.1
			C268.1,256.5,268.2,256.2,268.2,255.8z M264.2,238.2c-0.1,0-0.2,0-0.3,0v-4.5h3v4.5H264.2z M265.6,241.2h1.3c0.3,1,0.6,2,0.9,3
			c-0.1,0-0.3,0-0.4,0.1C266.8,243.2,266.2,242.2,265.6,241.2z M266.8,261.2c0.2-0.2,0.4-0.4,0.6-0.6c0.3,0.3,0.7,0.7,1.1,1h-1.8
			C266.7,261.5,266.7,261.4,266.8,261.2z M266.3,263.5c1.5,1.6,3.1,3.1,4.7,4.7c-0.1,0.2-0.1,0.4-0.2,0.7c-2.4,1.7-4.8,3.6-7.2,5.4
			C264.7,270.7,265.6,267.1,266.3,263.5z M263.1,276.6h6c-0.5,2-1,4-1.5,6c-0.1,0.1-0.2,0.2-0.4,0.3c-1.5-1.7-3-3.4-4.5-5.2
			C262.8,277.3,263,276.9,263.1,276.6z M262.4,278.8c1.3,1.6,2.6,3.1,4,4.6c-2.5,1.8-5,3.6-7.4,5.4
			C260.2,285.5,261.3,282.2,262.4,278.8z M258.4,290.5c2.9-2.2,5.8-4.2,8.7-6.4c0,0,0,0,0.1,0.1c-0.1,0.3-0.2,0.6-0.2,1
			c-0.6,2.3-1.2,4.6-1.9,6.8h-7.2C258,291.5,258.2,291,258.4,290.5z M264.4,294c-0.6,2-1.2,4-1.8,6c-0.1,0-0.1,0.1-0.2,0.1
			c0,0,0,0,0,0c-1.8-2-3.6-4.1-5.4-6.2H264.4z M256.6,295c1.6,1.9,3.3,3.8,5,5.7c-3.4,2.1-7,4.1-10.1,6.6
			C253.3,303.2,255,299.1,256.6,295z M250.7,309.4c3.3-3.1,7.6-5.6,11.6-7.9c-0.8,2.7-1.7,5.4-2.5,8.1h-9.1
			C250.6,309.4,250.7,309.4,250.7,309.4z M249.8,311.4c1.3,1.1,2.5,2.2,3.7,3.4h-5.2C248.8,313.7,249.3,312.5,249.8,311.4z
			 M247.8,315.8h6.7c0.6,0.6,1.2,1.1,1.7,1.7h-5.9c0-0.4,0.1-0.8,0.1-1.2c0.1-0.6-0.9-0.6-1,0c0,0.4-0.1,0.8-0.1,1.2h-2.3
			C247.3,316.9,247.6,316.3,247.8,315.8z M246.6,318.4h2.6c-0.2,1.3-0.3,2.5-0.5,3.8c-1.1,0.6-2.3,1.2-3.5,1.7h-1.2
			C245,322.1,245.8,320.3,246.6,318.4z M236.7,323.9v-5.5h7.8c-0.8,1.7-1.5,3.3-2.2,5c-0.1,0.2-0.1,0.3-0.1,0.5H236.7z M237.2,328.4
			h2c0.7,1.4,1.2,3,1.2,4.5h-1.6c-0.1,0-0.2,0-0.2,0h-0.1c-0.2-0.9-0.4-1.7-0.6-2.5C237.6,329.8,237.4,329.1,237.2,328.4z
			 M238.7,336.1c0.7,0.6,1.4,1.2,2,1.9c-0.9,1.4-2,2.7-3.1,4c-0.4-0.3-0.8-0.6-1.2-0.9C237.1,339.5,237.9,337.8,238.7,336.1z
			 M235.9,342.1c0.3,0.2,0.7,0.5,1,0.7c-0.8,0.9-1.6,1.7-2.5,2.5C234.9,344.2,235.4,343.1,235.9,342.1z M233.7,346.8
			c0,0,0.1,0.1,0.1,0.1c0.7,0.5,1.2,1.2,1.7,1.8c-0.8,0.7-1.6,1.4-2.4,2.1h-1.4C232.5,349.5,233.1,348.1,233.7,346.8z M230.9,352.9
			h1.7c0,0.1,0,0.1,0.1,0.2c0.2,0.2,0.4,0.5,0.6,0.7c-0.5,0.4-1,0.9-1.4,1.4c-0.1-0.2-0.3-0.3-0.4-0.5c-0.4-0.5-1.1,0.2-0.7,0.7
			c0.1,0.2,0.3,0.3,0.5,0.5c-0.4,0.4-0.8,0.9-1.2,1.3c-0.3-0.3-0.5-0.5-0.8-0.8C229.7,355.2,230.3,354,230.9,352.9z M228.7,357.3
			c0.2,0.2,0.4,0.4,0.6,0.6c-0.1,0.1-0.2,0.2-0.3,0.3c-0.4,0.5,0.3,1.2,0.7,0.7c0.1-0.1,0.2-0.2,0.2-0.3c0.2,0.2,0.4,0.4,0.6,0.7
			h-2.8C228.1,358.7,228.4,358,228.7,357.3z M226.8,361.3H239c-0.7,1.9-1.3,3.9-1.9,5.8c-2.2-1.9-4.5-3.7-6.9-5.1
			c-0.6-0.3-1,0.5-0.5,0.9c2.5,1.4,4.9,3.2,7.1,5.2c-0.2,0.5-0.3,1-0.5,1.5c-2.9,0-5.8-0.1-8.7-0.1c-0.6,0-0.6,1,0,1
			c2.2,0,4.5,0,6.7,0.1c-3.1,1.5-6.2,3-9,5c-0.5,0.4,0,1.2,0.5,0.9c3.1-2.2,6.5-3.9,9.9-5.5c-0.9,2.7-1.8,5.5-2.7,8.2H218
			C221,373.3,223.9,367.3,226.8,361.3z M217.1,381.3h15.5c-0.8,2.5-1.7,4.9-2.6,7.3c-2.8-2.1-5.7-3.9-8.6-5.3
			c-0.6-0.3-1.1,0.6-0.5,0.9c2.8,1.3,5.6,3.1,8.3,5.1c-4.2,0.4-8.4,0.8-12.7,1c-0.6,0-0.6,1,0,1c4-0.2,8-0.6,12-0.9
			c-4,2.2-8.1,4.4-12.3,6.3c-0.6,0.3-0.1,1.1,0.5,0.9c4.2-2,8.2-4.1,12.3-6.3c-0.3,0.7-0.6,1.4-0.8,2.1c-0.9,2.2-1.8,4.3-2.7,6.4
			h-17.3C211,393.6,214,387.4,217.1,381.3z M225.6,401.7h11.3c-4,3.2-9.3,4.8-13.8,7c-0.3,0.1-0.5,0.3-0.8,0.4
			C223.5,406.7,224.6,404.2,225.6,401.7z M197,423.2c3.3-7.2,6.7-14.3,10.1-21.4h17.4c-1.2,2.7-2.4,5.3-3.5,8c-1,0-1.9,0.1-2.9,0.1
			c-2.9-2.3-6-4.4-9.3-5.9c-0.6-0.3-1.1,0.6-0.5,0.9c3,1.4,5.6,3.2,8.1,5.2c-3.8,0.2-7.5,0.6-11.3,1.2c-0.6,0.1-0.4,1.1,0.3,1
			c4.1-0.7,8.1-1,12.2-1.3c0.1,0.1,0.3,0.2,0.4,0.3c-4.5,2.2-9,4.4-13.6,6.3c-0.6,0.2-0.3,1.2,0.3,1c4.8-2,9.5-4.3,14.1-6.6
			c0.3,0.2,0.6,0.5,0.9,0.7c-1.5,3.5-2.9,7-4.1,10.5H197z M232.8,422.9c0,0.1,0,0.2,0,0.3h-16c1.1-3.4,2.5-6.7,3.8-9.9
			c0.8,0.6,1.6,1.3,2.5,1.9c3.2,2.3,7,4,9.9,6.6C232.9,422.1,232.8,422.5,232.8,422.9z M233.3,420.6c-3.1-2.6-7-4.3-10.2-6.8
			c-0.7-0.5-1.3-1.1-2-1.6c0.2-0.5,0.4-1,0.6-1.5c4.8-0.2,9.6-0.2,14.4-0.2C235,413.9,234.1,417.2,233.3,420.6z M236.4,409.5
			c-4.3,0-8.6,0-12.9,0.1c0.3-0.1,0.5-0.2,0.8-0.4c4.7-2.2,10.2-4,14.2-7.6h0.5C238.1,404.3,237.2,406.9,236.4,409.5z M226.5,399.7
			c1-2.3,2-4.7,2.9-7c0.3-0.8,0.6-1.5,0.8-2.3c0.1,0,0.2-0.1,0.2-0.1c3.5,2.8,6.6,6,9.1,9.4H226.5z M240.1,398.7
			c-2.3-3.1-5.2-6-8.3-8.6c3.8-0.3,7.6-0.3,11.5,0C243.7,388.6,241.5,394.6,240.1,398.7z M232.8,389c4.4-2.5,8.7-5.1,13-7.7h0.4
			c-0.9,2.6-1.8,5.2-2.8,7.8C240,388.7,236.4,388.8,232.8,389z M252.5,377.5c-2.4,3.2-4.5,6.7-6.4,10.2c0.8-2.2,1.5-4.3,2.2-6.5
			c0.5-0.2,0.7-0.9,0.4-1.4c0-0.1,0-0.2,0.1-0.2c1-1.3,2.1-2.6,3.3-3.8c0.3,0.4,0.5,0.8,0.8,1.2
			C252.8,377.2,252.7,377.3,252.5,377.5z M253.6,376.1c-0.2-0.4-0.5-0.7-0.7-1.1c0.7-0.7,1.4-1.5,2.2-2.2c0.2,0.3,0.4,0.7,0.6,1
			C255,374.6,254.3,375.3,253.6,376.1z M256.4,373.1c-0.2-0.3-0.4-0.7-0.6-1c1-0.9,2-1.8,3.1-2.7c0.3,0.3,0.5,0.5,0.8,0.8
			C258.5,371.2,257.4,372.1,256.4,373.1z M260.4,369.7c-0.3-0.3-0.5-0.5-0.8-0.8c0.8-0.6,1.6-1.3,2.5-1.9c0.2,0.4,0.4,0.8,0.5,1.1
			C261.9,368.7,261.1,369.2,260.4,369.7z M263.5,367.6c-0.2-0.4-0.4-0.8-0.6-1.2c1-0.7,2-1.3,3-2c0.2,0.4,0.5,0.9,0.7,1.3
			C265.6,366.4,264.5,367,263.5,367.6z M267.5,365.4c-0.3-0.5-0.5-0.9-0.8-1.4c1-0.6,2-1.2,3-1.7c0.2,0.6,0.4,1.1,0.6,1.7
			C269.4,364.4,268.5,364.9,267.5,365.4z M271.3,363.6c-0.2-0.6-0.4-1.2-0.6-1.8c1-0.5,2-1,3-1.4c0.2,0.7,0.3,1.4,0.5,2.1
			C273.2,362.9,272.2,363.2,271.3,363.6z M273.8,357.3c1.2-0.4,2.5-0.8,3.7-1.1c0.1,0.5,0.2,1.1,0.3,1.6c-1.2,0.4-2.3,0.8-3.5,1.3
			C274.1,358.5,274,357.9,273.8,357.3z M275.1,362.2c-0.2-0.7-0.3-1.4-0.5-2.1c1.1-0.5,2.3-0.9,3.4-1.3c0.1,0.8,0.3,1.5,0.4,2.3
			C277.2,361.4,276.1,361.8,275.1,362.2z M278.4,355.9c1.4-0.4,2.7-0.7,4.1-0.9c0.1,0.4,0.1,0.9,0.2,1.3c-1.3,0.3-2.7,0.7-4,1.1
			C278.6,357,278.5,356.4,278.4,355.9z M279.3,360.8c-0.1-0.8-0.3-1.5-0.4-2.3c1.3-0.4,2.6-0.8,3.9-1.1c0.1,0.8,0.1,1.6,0.2,2.4
			C281.8,360,280.5,360.4,279.3,360.8z M283.5,354.8c0.9-0.2,1.7-0.3,2.5-0.4c0,0.4,0,0.8,0,1.2c-0.8,0.2-1.6,0.3-2.4,0.5
			C283.6,355.7,283.5,355.2,283.5,354.8z M284,359.4c0-0.8-0.1-1.6-0.2-2.3c0.8-0.2,1.5-0.4,2.3-0.5c0,0.8,0.1,1.5,0.1,2.3
			C285.5,359,284.7,359.2,284,359.4z M284.2,345.6c1.2-1.1,2.4-2.2,3.6-3.3c1.1,1,2.3,2.1,3.3,3.2c-1.5,1.3-3,2.5-4.4,3.8
			C286.1,348,285.2,346.7,284.2,345.6z M287,354.2c1.2-0.2,2.3-0.3,3.4-0.4c0.1,0.4,0.1,0.8,0.2,1.1c-1.2,0.1-2.4,0.3-3.6,0.5
			C287,355,287,354.6,287,354.2z M287.2,358.6c-0.1-0.7-0.1-1.5-0.1-2.2c1.2-0.2,2.4-0.4,3.7-0.5c0.1,0.6,0.1,1.2,0.1,1.8
			C289.6,358,288.4,358.3,287.2,358.6z M292.8,357.5c-0.2-0.1-0.4-0.1-0.7-0.1c-0.1,0-0.2,0-0.3,0.1c0-0.6-0.1-1.1-0.2-1.7
			c0.2,0,0.5-0.1,0.7-0.1c0.1,0,0.1,0,0.2-0.1c1.1-0.1,2.1-0.1,3.1,0c0,0.6,0,1.1,0,1.7C294.8,357.2,293.8,357.2,292.8,357.5z
			 M295.7,354.6c-1.2-0.1-2.4-0.1-3.7,0c-0.1,0-0.2,0-0.3,0.1c-0.1,0-0.2,0-0.3,0c-0.1-0.4-0.1-0.8-0.2-1.1c1.4-0.1,2.7-0.2,4-0.3
			c0.2,0,0.3-0.1,0.4-0.1C295.8,353.7,295.7,354.2,295.7,354.6z M292.5,345.5c0.9-0.8,1.8-1.7,2.6-2.7c0.2,0.2,0.6,0.3,0.8,0
			c0.1-0.1,0.1-0.2,0.2-0.3c0.1,0.1,0.1,0.2,0.2,0.3c0.2,0.3,0.6,0.3,0.8,0c0.8,1,1.7,1.8,2.6,2.7c-1.3,1.5-2.6,3-3.6,4.8
			C295,348.6,293.8,347,292.5,345.5z M300.3,357.5c-0.1,0-0.2-0.1-0.3-0.1c-0.3-0.1-0.6,0-0.8,0.2c-0.8,0-1.6-0.1-2.4-0.2
			c0-0.6,0-1.1,0-1.7c1.2,0.1,2.4,0.2,3.6,0.4c0,0,0,0,0.1,0C300.4,356.6,300.3,357,300.3,357.5z M300.6,354.8
			c-0.3,0-0.6-0.1-0.8-0.1c-0.2,0-0.4,0.1-0.4,0.3c-0.9-0.1-1.7-0.2-2.6-0.3c0-0.4,0-0.9,0.1-1.3c1.3,0.1,2.6,0.2,4,0.3
			C300.7,354,300.6,354.4,300.6,354.8z M305,358.6c-1.2-0.3-2.5-0.6-3.7-0.9c0-0.6,0.1-1.2,0.2-1.8c1.2,0.1,2.5,0.3,3.7,0.5
			C305.1,357.1,305,357.9,305,358.6z M305.1,355.4c-1.2-0.2-2.4-0.4-3.6-0.5c0.1-0.4,0.1-0.8,0.2-1.1c1.1,0.1,2.2,0.3,3.4,0.4
			C305.1,354.6,305.1,355,305.1,355.4z M301,345.5c1.1-1.1,2.2-2.2,3.3-3.2c1.2,1.1,2.4,2.2,3.6,3.3c-1,1.1-1.9,2.4-2.5,3.7
			C304.1,348,302.5,346.8,301,345.5z M308.2,359.4c-0.8-0.2-1.5-0.4-2.2-0.6c0.1-0.8,0.1-1.5,0.1-2.3c0.8,0.2,1.5,0.3,2.3,0.5
			C308.3,357.9,308.2,358.6,308.2,359.4z M308.5,356.1c-0.8-0.2-1.6-0.4-2.4-0.5c0-0.4,0-0.8,0-1.2c0.8,0.1,1.7,0.3,2.5,0.4
			C308.6,355.2,308.6,355.7,308.5,356.1z M312.8,360.8c-1.2-0.4-2.5-0.7-3.7-1.1c0-0.8,0.1-1.6,0.2-2.4c1.3,0.3,2.6,0.7,3.9,1.1
			C313.1,359.2,313,360,312.8,360.8z M313.4,357.5c-1.3-0.4-2.6-0.8-4-1.1c0.1-0.4,0.1-0.9,0.2-1.3c1.3,0.3,2.7,0.6,4.1,0.9
			C313.6,356.4,313.5,357,313.4,357.5z M317.1,362.2c-1.1-0.4-2.2-0.7-3.3-1.1c0.1-0.8,0.3-1.5,0.4-2.3c1.1,0.4,2.3,0.8,3.4,1.3
			C317.4,360.8,317.2,361.5,317.1,362.2z M314.4,357.8c0.1-0.5,0.2-1.1,0.3-1.6c1.2,0.3,2.5,0.7,3.7,1.1c-0.2,0.6-0.3,1.2-0.5,1.8
			C316.7,358.7,315.5,358.2,314.4,357.8z M320.8,363.6c-0.9-0.4-1.9-0.8-2.8-1.1c0.2-0.7,0.3-1.4,0.5-2.1c1,0.4,2,0.9,3,1.4
			C321.2,362.4,321,363,320.8,363.6z M324.6,365.4c-0.9-0.5-1.9-0.9-2.9-1.3c0.2-0.6,0.4-1.2,0.6-1.7c1,0.5,2,1.1,3,1.7
			C325.2,364.4,324.9,364.9,324.6,365.4z M328.7,367.6c-1-0.6-2.1-1.3-3.2-1.8c0.3-0.4,0.5-0.9,0.7-1.3c1,0.6,2,1.3,3,2
			C329,366.9,328.9,367.2,328.7,367.6z M329.5,368.2c0.2-0.4,0.4-0.8,0.5-1.1c0.8,0.6,1.7,1.2,2.5,1.9c-0.3,0.3-0.5,0.5-0.8,0.8
			C331,369.2,330.3,368.7,329.5,368.2z M335.8,373.1c-1-1-2.1-2-3.2-2.8c0.3-0.3,0.5-0.5,0.8-0.8c1,0.9,2.1,1.7,3.1,2.7
			C336.2,372.5,335.9,372.8,335.8,373.1z M338.5,376.1c-0.6-0.8-1.3-1.6-2-2.3c0.2-0.3,0.4-0.7,0.6-1c0.7,0.7,1.5,1.4,2.2,2.2
			C339,375.4,338.7,375.8,338.5,376.1z M339.6,377.5c-0.1-0.2-0.3-0.3-0.4-0.5c0.2-0.4,0.5-0.8,0.8-1.2c1.1,1.2,2.2,2.5,3.3,3.8
			c0,0.1,0,0.2,0.1,0.2c-0.2,0.5-0.1,1.1,0.4,1.4c0.7,2.2,1.5,4.4,2.2,6.5C344.1,384.2,342,380.8,339.6,377.5z M345.9,381.3h0.4
			c4.3,2.6,8.6,5.2,13,7.7c-3.6-0.2-7.1-0.2-10.7,0.1C347.7,386.5,346.8,383.9,345.9,381.3z M349,390.1c3.8-0.4,7.6-0.3,11.5,0
			c-3.1,2.6-6,5.5-8.3,8.6C351,395.8,350,393,349,390.1z M361.6,390.3c0.1,0,0.2,0.1,0.2,0.1c0.3,0.8,0.6,1.5,0.8,2.3
			c0.9,2.4,1.9,4.7,2.9,7h-13.1C355,396.3,358.2,393.1,361.6,390.3z M353.2,401.7h0.5c4,3.6,9.5,5.4,14.2,7.6
			c0.3,0.1,0.5,0.2,0.8,0.4c-4.3-0.1-8.6-0.1-12.9-0.1C355,406.9,354.1,404.3,353.2,401.7z M356.1,410.5c4.8,0,9.6,0,14.4,0.2
			c0.2,0.5,0.4,1,0.6,1.5c-0.7,0.5-1.3,1.1-2,1.6c-3.2,2.6-7.1,4.2-10.2,6.8C358.1,417.2,357.1,413.9,356.1,410.5z M359.4,423.2
			c0-0.1,0-0.2,0-0.3c-0.1-0.4-0.2-0.8-0.3-1.1c2.9-2.7,6.7-4.3,9.9-6.6c0.9-0.6,1.7-1.2,2.5-1.9c1.4,3.3,2.7,6.6,3.8,9.9H359.4z
			 M376.4,423.2c-1.2-3.6-2.6-7.1-4.1-10.5c0.3-0.2,0.6-0.5,0.9-0.7c4.7,2.3,9.3,4.6,14.1,6.6c0.6,0.2,0.8-0.7,0.3-1
			c-4.6-1.9-9.1-4.1-13.6-6.3c0.1-0.1,0.3-0.2,0.4-0.3c4.1,0.2,8.2,0.6,12.2,1.3c0.6,0.1,0.9-0.9,0.3-1c-3.7-0.6-7.5-1-11.3-1.2
			c2.5-2,5.1-3.8,8.1-5.2c0.6-0.3,0.1-1.1-0.5-0.9c-3.4,1.6-6.4,3.7-9.3,5.9c-1-0.1-1.9-0.1-2.9-0.1c-1.2-2.7-2.4-5.3-3.5-8H385
			c3.4,7.1,6.8,14.3,10.1,21.4H376.4z"/>
	</g>
</g>
<g>
	<path class="st1" d="M90.9,420.7l-1,0.3l-6.3-20.2l1-0.3l0.4,1.2c0.3,1.1,0.8,2,1.4,2.5c0.4,0.4,1,0.6,1.7,0.7
		c0.5,0.1,1.7-0.2,3.6-0.8l18.6-5.8c3.6-1.1,6.4-1.6,8.3-1.4c1.9,0.2,3.7,1.1,5.3,2.6c1.7,1.5,2.9,3.6,3.7,6.2c1,3.2,1,6-0.1,8.5
		c-1.1,2.5-2.6,4-4.7,4.7c-1.3,0.4-2.5,0.3-3.5-0.2c-1.1-0.5-1.8-1.4-2.1-2.6c-0.4-1.1-0.3-2.2,0.2-3.2c0.5-1,1.3-1.7,2.3-2
		c0.5-0.2,1-0.2,1.4-0.2c0.2,0,0.8,0.2,1.7,0.4c0.9,0.3,1.5,0.4,1.8,0.3c0.5-0.2,0.8-0.5,1-1.1c0.3-0.9,0.3-1.9-0.1-3
		c-0.2-0.8-0.7-1.4-1.2-1.8c-0.6-0.4-1.3-0.6-2.3-0.5c-0.9,0.1-3.4,0.7-7.3,1.9l-20.3,6.3c-1.9,0.6-3.1,1.1-3.5,1.5
		c-0.4,0.4-0.7,0.9-0.9,1.7c-0.2,0.7-0.1,1.6,0.2,2.7L90.9,420.7z"/>
	<path class="st1" d="M66.1,384.5l9.6,3.5c1.2,0.4,3.7,1.3,7.3,2.5l0.6,3.7c0.1,0.4,0.3,1.6,0.8,3.7l-16.1-1.9l-0.9-5.3
		C67.3,390.3,66.9,388.2,66.1,384.5z"/>
	<path class="st1" d="M106.5,357.2l0.8,14l4,1.4c1.3,0.5,2.4,0.7,3.2,0.6c1.1-0.1,1.9-0.6,2.4-1.5c0.3-0.5,0.4-1.9,0.5-3.9l1.1-0.1
		l0.7,13.2l-1.1,0.1c-0.3-1.4-1-2.5-2-3.4c-1-0.9-3.1-1.9-6.2-3.1l-32.4-12.4l0-0.6l31.7-16.1c3-1.5,4.9-2.8,5.6-3.7
		c0.6-0.7,0.9-1.7,0.9-2.9l1.1-0.1l1.1,19.2l-1.1,0.1l0-0.8c-0.1-1.5-0.4-2.6-0.8-3.2c-0.3-0.4-0.8-0.6-1.4-0.6
		c-0.4,0-0.7,0.1-1.1,0.2c-0.2,0-0.9,0.4-2.1,1L106.5,357.2z M104.4,358.3l-13.3,6.7l14,5.3L104.4,358.3z"/>
	<path class="st1" d="M101.2,326.2l10.9,1.5c2.1,0.3,3.5,0.3,4.1,0.1s1.1-0.6,1.5-1.2c0.4-0.6,0.7-1.8,1-3.6l1.1,0.1l-2.7,20
		l-1.1-0.1c0.2-1.8,0.2-3.1,0-3.8c-0.3-0.7-0.6-1.2-1.1-1.5c-0.5-0.3-1.8-0.6-4-0.9l-25.6-3.4c-2.1-0.3-3.5-0.3-4.1-0.1
		c-0.6,0.2-1.1,0.6-1.5,1.2c-0.4,0.6-0.7,1.8-1,3.6l-1.1-0.1l2.3-17.2c0.8-5.7,2.3-9.6,4.6-11.8c2.3-2.2,5-3.1,8-2.7
		c2.6,0.3,4.6,1.4,6.2,3.3c1.6,1.8,2.6,4.2,2.8,7.1C102,318.5,101.8,321.7,101.2,326.2z M81.9,323.6l17,2.3c0.1-0.6,0.2-1.1,0.3-1.4
		c0.3-2.4-0.1-4.3-1.4-5.7c-1.2-1.5-3.3-2.4-6.3-2.8c-2.9-0.4-5.1,0-6.7,1.1c-1.5,1.1-2.5,2.9-2.8,5.4L81.9,323.6z"/>
	<path class="st1" d="M108,293.5l10.5,3.3c2.1,0.6,3.4,0.9,4,0.8c0.6-0.1,1.2-0.4,1.7-0.9c0.5-0.5,1-1.7,1.6-3.4l1,0.3l-6,19.3
		l-1-0.3c0.5-1.8,0.8-3,0.6-3.7c-0.1-0.7-0.4-1.3-0.9-1.7c-0.4-0.4-1.7-0.9-3.7-1.6l-24.6-7.7c-2-0.6-3.4-0.9-4-0.8
		c-0.6,0.1-1.2,0.4-1.7,0.9c-0.5,0.5-1,1.7-1.6,3.4l-1-0.3l5.2-16.5c1.7-5.4,3.9-9,6.6-10.8c2.7-1.8,5.5-2.2,8.4-1.3
		c2.5,0.8,4.3,2.2,5.6,4.3c1.3,2.1,1.8,4.6,1.6,7.4C110.1,286,109.4,289.2,108,293.5z M89.5,287.7l16.4,5.1c0.2-0.6,0.4-1.1,0.5-1.4
		c0.7-2.3,0.6-4.2-0.4-5.9c-1-1.7-2.9-2.9-5.7-3.8c-2.8-0.9-5.1-0.9-6.8-0.1c-1.7,0.8-2.9,2.5-3.7,4.9L89.5,287.7z"/>
	<path class="st1" d="M120.1,262.5l9.8,5.2c1.9,1,3.2,1.5,3.8,1.6c0.6,0,1.2-0.2,1.8-0.6s1.3-1.4,2.2-3l1,0.5l-9.6,17.9l-1-0.5
		c0.9-1.6,1.3-2.8,1.3-3.5c0-0.7-0.2-1.4-0.5-1.8c-0.4-0.5-1.5-1.2-3.4-2.3l-22.7-12.1c-1.9-1-3.1-1.5-3.8-1.6s-1.2,0.2-1.8,0.6
		c-0.6,0.4-1.3,1.4-2.2,3l-1-0.5l8.7-16.3c2.3-4.2,4.2-7.2,5.8-8.8c1.6-1.7,3.6-2.7,5.8-3.1c2.2-0.4,4.4,0,6.5,1.1
		c2.6,1.4,4.2,3.5,4.9,6.2c0.4,1.8,0.3,3.9-0.3,6.3l16.4-2.1c2.1-0.3,3.5-0.6,4.1-0.8c0.9-0.4,1.6-1.1,2.2-2l1,0.5l-5.9,11l-22,2.8
		L120.1,262.5z M102.9,253.3l15.3,8.2l0.8-1.5c1.3-2.4,2-4.3,2.2-5.7c0.2-1.4-0.1-2.8-0.9-4.1c-0.8-1.3-2.1-2.4-3.9-3.4
		c-2.7-1.4-5-1.9-6.9-1.3c-1.9,0.6-3.7,2.2-5.1,5L102.9,253.3z"/>
	<path class="st1" d="M126.9,216l12.5,10.2l0.5-0.6c1.6-1.9,2.1-3.9,1.6-5.7c-0.5-1.9-1.9-3.9-4-6.1l0.7-0.9l16.1,13.2l-0.7,0.9
		c-1.9-1.3-3.6-2-5.2-2.4c-1.6-0.3-2.9-0.3-3.9,0.2c-1,0.5-2.1,1.4-3.3,2.9l8.7,7.1c1.7,1.4,2.8,2.2,3.3,2.3c0.5,0.2,1,0.2,1.6,0
		c0.6-0.2,1.2-0.7,1.9-1.6l1.5-1.8c2.4-2.9,3.6-5.7,3.7-8.5c0.1-2.8-0.9-5.7-3-8.7l0.7-0.8l8.6,9.4l-21.8,26.6l-0.8-0.7l0.8-1
		c0.7-0.9,1.2-1.7,1.3-2.5c0.1-0.6,0-1.2-0.3-1.8c-0.2-0.5-1.1-1.3-2.7-2.6l-20.2-16.6c-1.4-1.1-2.3-1.8-2.7-2
		c-0.7-0.3-1.3-0.3-1.9-0.2c-0.9,0.2-1.7,0.8-2.6,1.8l-0.8,1l-0.8-0.7l21.1-25.7l9.1,7.4l-0.7,0.9c-2.6-1.4-4.7-2.1-6.3-2.1
		c-1.6,0-3.2,0.5-4.9,1.6c-1,0.6-2.4,2.1-4.3,4.4L126.9,216z"/>
	<path class="st1" d="M152.5,185.7l30.8,6.6l-10.8-13.2c-1.5-1.8-2.8-2.9-3.9-3.1c-1.4-0.3-3,0.3-4.7,1.7l-0.7-0.8l10.1-8.3l0.7,0.8
		c-1.2,1.2-1.9,2.2-2.1,2.8c-0.2,0.6-0.2,1.3,0,2.1c0.2,0.8,1,1.9,2.1,3.4l21,25.6l-0.8,0.6l-41.8-8.5l16,19.5
		c1.5,1.8,2.8,2.6,4.2,2.6c1.3,0,2.5-0.5,3.5-1.4l0.7-0.6l0.7,0.8l-10.9,8.9l-0.7-0.8c1.7-1.4,2.6-2.7,2.7-3.9
		c0.1-1.2-0.5-2.7-1.9-4.3l-17.8-21.7l-1.3-0.3c-1.3-0.3-2.3-0.3-3-0.2c-0.7,0.2-1.5,0.6-2.5,1.3l-0.7-0.8L152.5,185.7z"/>
	<path class="st1" d="M194.8,201.6l-0.5-1l1.2-0.6c1-0.5,1.7-1.1,2.1-1.7c0.4-0.6,0.6-1.3,0.5-1.9c0-0.4-0.5-1.6-1.5-3.4l-12.1-23.2
		c-0.9-1.8-1.6-2.9-2-3.2c-0.4-0.4-1-0.5-1.8-0.6c-0.8,0-1.6,0.2-2.6,0.7l-1.2,0.6l-0.5-1l15.8-8.2c4.2-2.2,7.9-3.4,11-3.6
		c3.9-0.2,7.4,0.6,10.5,2.6c3.1,2,5.6,4.8,7.5,8.4c1.3,2.5,2.1,5,2.4,7.5c0.3,2.5,0.2,4.8-0.4,6.8c-0.6,2-1.4,3.9-2.7,5.6
		c-1.2,1.7-2.9,3.4-5.1,5.1c-0.9,0.8-2.6,1.7-4.8,2.9L194.8,201.6z M190.9,161.4l14.4,27.5c0.8,1.5,1.3,2.3,1.6,2.6
		c0.3,0.3,0.7,0.4,1.1,0.4c0.6,0,1.3-0.2,2.2-0.7c2.9-1.5,4.6-3.7,5.1-6.4c0.7-3.8-0.4-8.4-3.4-14c-2.4-4.5-5-7.8-7.8-9.7
		c-2.2-1.5-4.4-2.2-6.6-2C196,159.1,193.8,159.9,190.9,161.4z"/>
	<path class="st1" d="M241.7,137.6l4.2,12.5l-1.1,0.4c-1.5-3-3.7-5.1-6.4-6.4c-2.7-1.3-5.3-1.5-7.8-0.8c-1.9,0.6-3.2,1.6-4,2.9
		c-0.8,1.4-1,2.7-0.6,4c0.3,0.8,0.7,1.5,1.3,2.1c0.8,0.7,2,1.3,3.4,1.8c1.1,0.3,3.4,0.8,7.1,1.4c5.1,0.8,8.8,1.9,10.9,3.4
		c2.1,1.5,3.6,3.4,4.4,5.9c1,3.2,0.6,6.3-1.2,9.3c-1.8,3.1-4.5,5.2-8.3,6.4c-1.2,0.4-2.4,0.6-3.5,0.7c-1.1,0.1-2.6,0-4.4-0.1
		c-1-0.1-1.8-0.1-2.4,0.1c-0.5,0.2-0.9,0.5-1.4,1c-0.4,0.5-0.7,1.2-0.8,2.1l-1,0.3l-4.5-14.3l1-0.3c2.1,3.8,4.6,6.4,7.6,7.7
		c3,1.4,5.9,1.7,8.6,0.8c2.1-0.7,3.6-1.7,4.5-3.3c0.9-1.5,1.1-3,0.6-4.6c-0.3-0.9-0.8-1.7-1.5-2.4c-0.7-0.7-1.7-1.3-2.9-1.7
		c-1.2-0.5-3.2-0.9-6.1-1.3c-4-0.6-6.9-1.3-8.8-2c-1.9-0.7-3.5-1.7-4.7-2.9c-1.3-1.2-2.2-2.7-2.7-4.5c-0.9-3-0.6-5.9,0.9-8.8
		c1.6-2.8,4-4.8,7.4-5.8c1.2-0.4,2.5-0.6,3.7-0.7c0.9,0,2.1,0,3.6,0.2s2.4,0.2,2.9,0.1c0.5-0.2,0.8-0.4,1-0.8s0.2-1.2,0.1-2.4
		L241.7,137.6z"/>
	<path class="st1" d="M354.3,140.8l0.3-1l20.2,6.3l-0.3,1l-1.2-0.4c-1.1-0.3-2.1-0.4-2.9-0.2c-0.5,0.1-1.1,0.4-1.5,1
		c-0.3,0.4-0.8,1.5-1.4,3.4l-5.8,18.6c-1.1,3.6-2.3,6.2-3.6,7.6c-1.2,1.4-3,2.4-5.2,2.9c-2.2,0.5-4.6,0.4-7.2-0.4
		c-3.2-1-5.5-2.6-6.9-4.9c-1.4-2.3-1.8-4.5-1.2-6.5c0.4-1.3,1.1-2.2,2.2-2.8c1.1-0.6,2.2-0.7,3.3-0.3c1.1,0.4,2,1,2.5,2
		c0.5,1,0.7,2,0.3,3c-0.2,0.5-0.4,1-0.6,1.3c-0.1,0.2-0.6,0.5-1.3,1.1c-0.7,0.6-1.2,1.1-1.3,1.4c-0.2,0.5,0,1,0.3,1.5
		c0.5,0.7,1.4,1.3,2.5,1.6c0.8,0.3,1.5,0.3,2.2,0c0.7-0.2,1.2-0.8,1.7-1.6c0.5-0.8,1.3-3.2,2.6-7.1l6.3-20.3
		c0.6-1.9,0.9-3.2,0.8-3.7c-0.1-0.6-0.3-1.1-0.9-1.7s-1.3-1-2.4-1.3L354.3,140.8z"/>
	<path class="st1" d="M398.1,141l-8.3,5.9c-1,0.8-3.1,2.3-6.2,4.6l-3.4-1.6c-0.3-0.1-1.5-0.6-3.5-1.4l10.7-12.1l4.9,2.2
		C392.8,138.8,394.7,139.6,398.1,141z"/>
	<path class="st1" d="M403.8,163l-8.3,13.9l0.7,0.4c2.2,1.3,4.1,1.6,5.9,0.8c1.8-0.8,3.6-2.4,5.5-4.9l1,0.6l-10.7,17.8l-1-0.6
		c1-2.1,1.5-3.9,1.6-5.5c0.1-1.6-0.2-2.9-0.8-3.8c-0.6-0.9-1.7-1.9-3.3-2.9l-5.7,9.6c-1.1,1.9-1.7,3.1-1.8,3.6c-0.1,0.5,0,1,0.3,1.6
		c0.3,0.5,0.9,1.1,1.9,1.7l2,1.2c3.2,1.9,6.2,2.7,9,2.4c2.8-0.3,5.5-1.7,8.2-4.3l0.9,0.6l-8,9.9l-29.5-17.6l0.6-0.9l1.1,0.7
		c1,0.6,1.9,0.9,2.7,0.9c0.6,0,1.2-0.2,1.7-0.6c0.4-0.3,1.1-1.3,2.2-3l13.4-22.4c0.9-1.5,1.4-2.5,1.6-2.9c0.2-0.7,0.1-1.3-0.1-1.9
		c-0.4-0.9-1.1-1.6-2.2-2.3l-1.1-0.7l0.6-0.9l28.5,17.1l-6,10.1l-1-0.6c1-2.8,1.4-4.9,1.1-6.5c-0.2-1.6-1-3.1-2.3-4.6
		c-0.8-0.9-2.4-2.1-5-3.6L403.8,163z"/>
	<path class="st1" d="M437.5,183.8l-2,31.4l11.5-12.7c1.6-1.8,2.4-3.2,2.5-4.3c0.1-1.5-0.7-2.9-2.4-4.4l0.7-0.8l9.7,8.8l-0.7,0.8
		c-1.4-1-2.4-1.5-3.1-1.7s-1.4,0-2.1,0.3c-0.8,0.4-1.8,1.2-3,2.6l-22.2,24.5l-0.7-0.7l2.3-42.6l-16.9,18.7c-1.5,1.7-2.2,3.2-1.9,4.5
		c0.2,1.3,0.9,2.4,1.9,3.3l0.7,0.6l-0.7,0.8l-10.5-9.5l0.7-0.8c1.6,1.5,3.1,2.1,4.3,2.1c1.2-0.1,2.5-0.9,4-2.5l18.8-20.8l0.1-1.4
		c0.1-1.3,0-2.4-0.3-3c-0.3-0.7-0.8-1.4-1.7-2.3l0.7-0.8L437.5,183.8z"/>
	<path class="st1" d="M476.7,225.6l-10.3,8.3l-0.7-1c2.3-2.5,3.6-5.2,3.8-8.2c0.2-3-0.4-5.5-2-7.5c-1.2-1.6-2.6-2.5-4.2-2.8
		s-2.9,0-4,0.9c-0.7,0.5-1.2,1.2-1.5,1.9c-0.4,1-0.5,2.3-0.5,3.8c0,1.1,0.4,3.5,1.2,7.1c1,5.1,1.2,8.9,0.6,11.4
		c-0.6,2.5-2,4.6-4.1,6.2c-2.6,2-5.7,2.7-9.2,2.1c-3.5-0.6-6.4-2.5-8.9-5.6c-0.8-1-1.4-2-1.9-3c-0.5-1-1-2.4-1.4-4.2
		c-0.3-1-0.6-1.7-0.9-2.2c-0.3-0.4-0.8-0.7-1.4-0.9c-0.7-0.2-1.4-0.2-2.3,0l-0.7-0.9l11.9-9.1l0.7,0.9c-2.8,3.3-4.4,6.5-4.6,9.8
		c-0.3,3.3,0.5,6.1,2.2,8.3c1.3,1.7,2.9,2.8,4.6,3.1c1.7,0.3,3.2,0,4.5-1c0.7-0.6,1.3-1.3,1.7-2.3c0.4-0.9,0.6-2,0.6-3.3
		c0-1.3-0.3-3.3-0.8-6.2c-0.8-3.9-1.2-6.9-1.2-8.9c0-2,0.4-3.8,1.1-5.4c0.7-1.6,1.8-3,3.3-4.1c2.5-1.9,5.4-2.7,8.5-2.2
		c3.2,0.5,5.9,2.1,8,4.9c0.8,1,1.4,2.1,1.9,3.3c0.4,0.9,0.7,2,1,3.5s0.6,2.4,0.9,2.8c0.3,0.4,0.7,0.6,1.1,0.7c0.4,0,1.2-0.2,2.3-0.7
		L476.7,225.6z"/>
	<path class="st1" d="M485.3,246.1l-14.3,7.5l0.4,0.7c1.2,2.2,2.7,3.5,4.7,3.7s4.3-0.2,7.2-1.3l0.5,1l-18.4,9.7l-0.5-1
		c1.9-1.3,3.3-2.6,4.2-3.9c0.9-1.3,1.4-2.6,1.4-3.7c0-1.1-0.5-2.5-1.4-4.2l-9.9,5.2c-1.9,1-3.1,1.7-3.4,2.1
		c-0.3,0.4-0.5,0.9-0.6,1.5c0,0.6,0.2,1.4,0.7,2.4l1.1,2.1c1.7,3.3,3.9,5.5,6.4,6.7c2.6,1.2,5.6,1.4,9.2,0.6l0.5,1l-12,4.3l-16-30.4
		l1-0.5l0.6,1.2c0.5,1,1.2,1.7,1.8,2.2c0.5,0.3,1.1,0.4,1.8,0.4c0.5,0,1.7-0.5,3.4-1.4l23.1-12.2c1.6-0.8,2.5-1.4,2.9-1.7
		c0.5-0.5,0.8-1.1,0.9-1.7c0.1-0.9-0.1-1.9-0.7-3.1l-0.6-1.2l1-0.5l15.5,29.4l-10.4,5.5l-0.5-1c2.3-1.8,3.7-3.5,4.4-5
		c0.6-1.5,0.8-3.2,0.4-5.1c-0.2-1.1-1-3-2.4-5.7L485.3,246.1z"/>
	<path class="st1" d="M468.6,299.7l-1,0.4l-6.9-19.6l1-0.4l0.4,1.2c0.4,1.1,0.9,1.9,1.5,2.4c0.4,0.4,1,0.6,1.7,0.6
		c0.5,0,1.7-0.3,3.6-0.9l24.6-8.7c1.9-0.7,3.1-1.2,3.5-1.6c0.4-0.4,0.7-0.9,0.8-1.7c0.1-0.7,0-1.6-0.3-2.7l-0.4-1.2l1-0.4l6.9,19.6
		l-1,0.4l-0.4-1.2c-0.4-1.1-0.9-1.9-1.5-2.4c-0.4-0.4-1-0.6-1.7-0.7c-0.5,0-1.7,0.3-3.6,0.9l-24.6,8.7c-1.9,0.7-3.1,1.2-3.5,1.6
		c-0.4,0.4-0.7,0.9-0.8,1.7c-0.1,0.7,0,1.6,0.3,2.7L468.6,299.7z"/>
	<path class="st1" d="M514.7,328.8l-13.8,2.5l-0.2-1.1c3.5-2,6-4.4,7.5-7.4s2-5.9,1.4-9c-0.5-2.9-1.8-5.2-3.8-6.8
		c-2-1.6-4.5-2.6-7.6-2.9c-3.1-0.3-6.2-0.1-9.3,0.4c-3.7,0.7-7,1.7-9.6,3.1c-2.7,1.4-4.5,3.2-5.4,5.4c-1,2.2-1.2,4.7-0.7,7.4
		c0.2,0.9,0.4,1.9,0.8,2.8c0.4,1,0.9,1.9,1.4,2.9l8.1-1.5c1.5-0.3,2.5-0.6,2.9-0.9c0.4-0.3,0.7-0.8,1-1.5c0.2-0.7,0.3-1.6,0.1-2.5
		l-0.2-1l1.1-0.2l3.4,19l-1.1,0.2c-0.4-1.4-0.7-2.4-1.1-2.9c-0.4-0.5-1-0.9-1.7-1c-0.4-0.1-1.3,0-2.7,0.2l-8.1,1.5
		c-1.6-2.3-2.9-4.7-3.9-7.3c-1.1-2.6-1.8-5.3-2.4-8.2c-0.7-3.7-0.7-6.9-0.2-9.5s1.5-5,2.8-7.2c1.3-2.2,2.9-4,4.8-5.4
		c2.4-1.8,5.3-3,8.5-3.6c5.9-1.1,11.2,0.1,16,3.5c4.8,3.4,7.8,8.2,8.9,14.5c0.4,1.9,0.5,3.7,0.5,5.3c0,0.9-0.2,2.3-0.6,4.3
		c-0.4,2-0.5,3.2-0.5,3.6c0.1,0.5,0.4,1,0.9,1.4c0.5,0.4,1.3,0.7,2.5,0.9L514.7,328.8z"/>
	<path class="st1" d="M514.2,350.9l-25.3,18.7l17.1,0.6c2.4,0.1,4-0.2,4.9-0.9c1.2-0.9,1.8-2.5,1.8-4.7l1.1,0l-0.5,13.1l-1.1,0
		c-0.2-1.7-0.4-2.8-0.7-3.4c-0.3-0.6-0.9-1.1-1.6-1.4c-0.8-0.3-2.1-0.6-4-0.6l-33.1-1.1l0-1l34-25.7l-25.2-0.9
		c-2.3-0.1-3.8,0.4-4.7,1.4c-0.8,1-1.3,2.2-1.3,3.5l0,0.9l-1.1,0l0.5-14.1l1.1,0c-0.1,2.2,0.3,3.7,1.2,4.6c0.8,0.9,2.3,1.4,4.4,1.4
		l28,1l1.1-0.8c1.1-0.8,1.8-1.5,2.2-2.2s0.6-1.6,0.7-2.8l1.1,0L514.2,350.9z"/>
	<path class="st1" d="M506.9,395.9l-15.7-3.7L491,393c-0.6,2.5-0.2,4.4,1,5.9c1.3,1.5,3.4,2.7,6.3,3.7l-0.3,1.1l-20.2-4.8l0.3-1.1
		c2.3,0.3,4.2,0.2,5.8-0.2c1.6-0.4,2.7-1,3.4-1.9c0.7-0.9,1.3-2.2,1.7-4l-10.9-2.6c-2.1-0.5-3.5-0.7-4-0.7c-0.5,0.1-1,0.3-1.4,0.7
		c-0.4,0.4-0.8,1.2-1,2.3l-0.5,2.3c-0.9,3.6-0.7,6.7,0.5,9.3c1.2,2.6,3.3,4.7,6.5,6.5l-0.2,1.1l-11.9-4.6l7.9-33.4l1.1,0.2l-0.3,1.3
		c-0.3,1.1-0.3,2.1,0,2.9c0.1,0.6,0.5,1,1.1,1.5c0.4,0.3,1.6,0.7,3.5,1.2l25.4,6c1.7,0.4,2.8,0.6,3.3,0.6c0.7,0,1.3-0.3,1.8-0.7
		c0.7-0.6,1.2-1.5,1.5-2.8l0.3-1.3l1.1,0.2l-7.7,32.4l-11.4-2.7l0.3-1.1c2.9,0.1,5.1-0.2,6.6-0.9c1.5-0.7,2.7-1.9,3.7-3.6
		c0.6-1,1.2-2.9,1.9-5.9L506.9,395.9z"/>
</g>
<g>
	<g>
		<rect x="55.5" y="452.8" class="st2" width="478.7" height="122.7"/>
		<path class="st1" d="M55.5,452.8v122.7h478.7V452.8H55.5z M531.8,573.1h-474v-118h474V573.1z"/>
	</g>
	<g>
		<path class="st1" d="M100,480.5L87,525c-0.8,2.6-1.1,4.3-1.1,4.9c0,0.3,0.1,0.6,0.3,0.9s0.5,0.4,0.7,0.4c0.5,0,0.9-0.2,1.3-0.6
			c1.3-1,2.7-2.8,4.2-5.2l1.5,0.7c-2.5,4-5,6.9-7.4,8.6c-1.7,1.2-3.4,1.7-5.3,1.7c-1.7,0-3.1-0.5-4.2-1.4c-1-0.9-1.5-2.1-1.5-3.4
			c0-1,0.3-2.5,0.9-4.7l10.7-36.5c0.6-2,0.9-3.3,0.9-4c0-0.6-0.3-1.1-0.8-1.5c-0.7-0.5-1.9-0.8-3.4-0.7l0.4-1.5l13.3-2.3H100z"/>
		<path class="st1" d="M115.7,520.5c-0.2,1.7-0.4,3.1-0.4,4.2c0,2,0.6,3.6,1.7,4.7c1.1,1.2,2.7,1.8,4.6,1.8c1.8,0,3.7-0.4,5.6-1.3
			c1.9-0.9,4-2.5,6.5-4.7l1.2,1.1c-3,3.7-6,6.3-8.9,7.8c-2.9,1.6-6.1,2.3-9.5,2.3c-4.4,0-7.4-1.1-9.1-3.2s-2.5-4.5-2.5-7.3
			c0-4.3,1.3-8.6,3.8-13c2.5-4.3,5.9-7.8,10.3-10.4s8.7-3.9,13.1-3.9c2.2,0,3.9,0.5,5,1.6c1.1,1.1,1.7,2.4,1.7,4
			c0,1.9-0.6,3.8-1.7,5.6c-1.5,2.5-3.5,4.5-5.8,6s-4.9,2.7-7.8,3.5C121.5,519.9,118.9,520.2,115.7,520.5z M116,518.5
			c2.3-0.3,4.1-0.8,5.4-1.4c1.3-0.6,2.5-1.5,3.8-2.8c1.2-1.3,2.3-3,3.2-4.9c0.9-2,1.3-3.9,1.3-5.6c0-0.7-0.2-1.3-0.6-1.7
			c-0.4-0.4-0.9-0.6-1.6-0.6c-1.3,0-2.7,0.9-4.3,2.6C120.3,507.2,117.9,512,116,518.5z"/>
		<path class="st1" d="M208,474.9l-6.6,33.6c4.5-0.1,7.4-0.3,8.8-0.8c2.2-0.7,4.2-2,6-4.2c1.8-2.1,3.3-5.1,4.5-8.8h1.7l-6.8,35.1
			h-1.8c0.3-2.3,0.4-4.1,0.4-5.4c0-2.7-0.4-4.9-1.1-6.5c-0.8-1.6-1.7-2.7-2.9-3.3c-1.2-0.6-4.4-1-9.7-1.1l-5.4,27.7l-1.1,5.6
			c-0.1,1.1-0.2,2.2-0.2,3.2c0,1.5,0.2,2.7,0.6,3.6c0.4,0.9,1,1.6,1.9,2.1c0.9,0.5,2.6,0.8,5,0.8l-0.5,2.4H171l0.5-2.4
			c2.9,0,5-0.8,6.3-2.4c1.3-1.6,2.5-5.1,3.6-10.5l10.7-54.4c1.1-5.7,1.7-9.4,1.8-11c-0.1-1.5-0.5-2.8-1.4-3.9
			c-0.9-1.1-2.7-1.7-5.4-1.9l0.4-2.4h48.9l-4,23.5h-1.6c-0.2-4.9-0.7-8.5-1.5-10.9c-0.9-2.4-2.3-4.2-4.2-5.6c-2-1.3-5.1-2-9.4-2H208
			z"/>
		<path class="st1" d="M250.6,498.7l-6,22.2c4.9-10.8,8.6-17.5,11.1-20c1.5-1.5,3-2.2,4.6-2.2c1.1,0,2,0.4,2.7,1.2s1,1.9,1,3.4
			c0,2.6-0.6,4.7-1.9,6.4c-0.8,1.1-1.7,1.7-2.6,1.7c-1.1,0-1.8-0.5-2.4-1.5c-0.5-1-0.9-1.5-1.1-1.7c-0.2-0.2-0.4-0.3-0.7-0.3
			c-0.3,0-0.5,0.1-0.8,0.2c-0.6,0.3-1.3,1.1-2.3,2.3c-0.9,1.2-2.1,3.3-3.5,6.2c-1.4,2.9-2.4,5.3-3.2,7.3c-0.8,2-1.8,5.8-3.2,11.4
			h-9.6l6.5-26.2c0.5-2,0.7-3.2,0.7-3.9c0-0.7-0.1-1.3-0.4-1.7s-0.6-0.7-1-0.9c-0.4-0.2-1.3-0.3-2.7-0.3l0.4-1.1l11.9-2.6H250.6z"/>
		<path class="st1" d="M307.8,499.2l-7.7,26.3l-0.8,3.2c-0.1,0.4-0.1,0.7-0.1,0.9c0,0.3,0.1,0.6,0.3,0.8s0.5,0.4,0.7,0.4
			c0.6,0,1.3-0.4,2.3-1.3c0.4-0.3,1.3-1.6,2.8-3.6l1.4,0.7c-1.9,3.4-3.9,5.9-6,7.5c-2.1,1.6-4.4,2.4-6.9,2.4c-1.5,0-2.6-0.4-3.4-1.2
			c-0.8-0.8-1.2-1.8-1.2-2.9c0-1,0.4-2.9,1.3-5.7l0.9-3.2c-3.1,5.2-6,9-8.8,11.2c-1.6,1.3-3.4,1.9-5.2,1.9c-2.4,0-4.2-1-5.3-3
			c-1.1-2-1.6-4.2-1.6-6.7c0-3.7,1.1-8,3.4-12.8c2.3-4.8,5.2-8.7,8.9-11.6c3-2.4,5.9-3.6,8.5-3.6c1.5,0,2.7,0.4,3.6,1.3
			s1.6,2.4,2,4.7l1.4-4.9L307.8,499.2z M295.2,506.7c0-2.1-0.3-3.7-1-4.6c-0.5-0.7-1.1-1-1.9-1c-0.8,0-1.7,0.4-2.5,1.2
			c-1.8,1.6-3.7,5-5.7,9.9c-2,5-3.1,9.3-3.1,13c0,1.4,0.2,2.4,0.7,3c0.5,0.6,1,0.9,1.5,0.9c1.2,0,2.4-0.7,3.6-2.1
			c1.7-2,3.3-4.3,4.7-7.2C293.9,515,295.2,510.6,295.2,506.7z"/>
		<path class="st1" d="M337.3,498.7l-4.9,17c3.3-5,5.8-8.3,7.4-10.2c2.4-2.6,4.5-4.4,6.2-5.4s3.4-1.4,4.9-1.4c1.4,0,2.5,0.5,3.5,1.5
			s1.5,2.3,1.5,4c0,1.5-0.3,3.3-0.9,5.4l-5.1,16.9c-0.4,1.5-0.6,2.4-0.6,2.9c0,0.3,0.1,0.5,0.3,0.7c0.2,0.2,0.4,0.3,0.6,0.3
			c0.3,0,0.5-0.1,0.8-0.3c0.9-0.8,1.9-1.8,2.8-3.2c0.2-0.4,0.6-0.9,1.1-1.7l1.5,0.9c-3.9,6.5-8,9.8-12.2,9.8c-1.6,0-2.9-0.4-3.8-1.3
			s-1.4-1.9-1.4-3.2c0-1.1,0.3-2.8,0.9-4.9l4.9-16.9c0.3-1.1,0.5-1.9,0.5-2.5c0-0.3-0.1-0.5-0.4-0.8c-0.2-0.2-0.5-0.3-0.8-0.3
			c-1,0-2.2,0.7-3.6,2.1c-3.6,3.5-7.2,8.7-10.6,15.5l-3.2,11.7h-10.1l7.4-25.4c0.7-2.5,1.1-4.3,1.1-5.3c0-0.4-0.1-0.8-0.3-1.1
			c-0.2-0.3-0.6-0.5-1-0.7c-0.5-0.2-1.4-0.3-2.7-0.3l0.4-1.5l13.3-2.3H337.3z"/>
		<path class="st1" d="M397.2,525.8l1.2,1.1c-2.6,3.1-5.1,5.3-7.6,6.7c-3.3,1.9-6.7,2.8-10.2,2.8c-2.4,0-4.5-0.5-6.3-1.5
			c-1.8-1-3.2-2.4-4.1-4.3c-0.9-1.8-1.3-3.7-1.3-5.6c0-4.3,1.2-8.6,3.5-12.8c2.3-4.2,5.4-7.5,9.3-9.9s7.6-3.7,11.4-3.7
			c3,0,5.2,0.7,6.7,2c1.5,1.3,2.3,3,2.3,4.9c0,1.8-0.6,3.3-1.7,4.5c-1.1,1.2-2.4,1.9-3.8,1.9c-1.2,0-2.2-0.4-3-1.2s-1.2-1.7-1.2-2.8
			c0-1.4,0.7-2.7,2.1-3.7c1-0.7,1.5-1.4,1.5-1.9c0-0.5-0.2-0.9-0.6-1.1c-0.5-0.4-1.2-0.6-2.1-0.6c-2.2,0-4.3,0.9-6.2,2.7
			c-2.6,2.4-4.6,5.4-5.9,9c-1.4,3.6-2.1,7.1-2.1,10.4c0,2.6,0.7,4.6,2.1,6.2c1.4,1.5,3.1,2.3,5,2.3c1.7,0,3.5-0.4,5.5-1.3
			C393.5,528.9,395.4,527.6,397.2,525.8z"/>
		<path class="st1" d="M447.6,499.2l-7.7,26.3l-0.8,3.2c-0.1,0.4-0.1,0.7-0.1,0.9c0,0.3,0.1,0.6,0.3,0.8s0.5,0.4,0.7,0.4
			c0.6,0,1.3-0.4,2.3-1.3c0.4-0.3,1.3-1.6,2.8-3.6l1.4,0.7c-1.9,3.4-3.9,5.9-6,7.5c-2.1,1.6-4.4,2.4-6.9,2.4c-1.5,0-2.6-0.4-3.4-1.2
			c-0.8-0.8-1.2-1.8-1.2-2.9c0-1,0.4-2.9,1.3-5.7l0.9-3.2c-3.1,5.2-6,9-8.8,11.2c-1.6,1.3-3.4,1.9-5.2,1.9c-2.4,0-4.2-1-5.3-3
			c-1.1-2-1.6-4.2-1.6-6.7c0-3.7,1.1-8,3.4-12.8c2.3-4.8,5.2-8.7,8.9-11.6c3-2.4,5.9-3.6,8.5-3.6c1.5,0,2.7,0.4,3.6,1.3
			s1.6,2.4,2,4.7l1.4-4.9L447.6,499.2z M434.9,506.7c0-2.1-0.3-3.7-1-4.6c-0.5-0.7-1.1-1-1.9-1c-0.8,0-1.7,0.4-2.5,1.2
			c-1.8,1.6-3.7,5-5.7,9.9c-2,5-3.1,9.3-3.1,13c0,1.4,0.2,2.4,0.7,3c0.5,0.6,1,0.9,1.5,0.9c1.2,0,2.4-0.7,3.6-2.1
			c1.7-2,3.3-4.3,4.7-7.2C433.7,515,434.9,510.6,434.9,506.7z"/>
		<path class="st1" d="M476,498.7l-8.1,28.1c-0.4,1.6-0.7,2.7-0.7,3.2c0,0.3,0.1,0.6,0.4,0.8c0.2,0.3,0.5,0.4,0.8,0.4
			c0.4,0,0.9-0.2,1.3-0.6c1.2-1,2.6-2.7,4.3-5.3l1.3,0.8c-4,6.9-8.2,10.4-12.7,10.4c-1.7,0-3.1-0.5-4.1-1.4c-1-1-1.5-2.2-1.5-3.7
			c0-1,0.2-2.2,0.7-3.7l5.5-18.9c0.5-1.8,0.8-3.2,0.8-4.1c0-0.6-0.2-1.1-0.8-1.5c-0.5-0.4-1.2-0.7-2.1-0.7c-0.4,0-0.9,0-1.4,0
			l0.5-1.6l13.4-2.2H476z M473.5,480.5c1.6,0,3,0.6,4.1,1.7c1.1,1.1,1.7,2.5,1.7,4.1c0,1.6-0.6,3-1.7,4.1c-1.1,1.1-2.5,1.7-4.1,1.7
			c-1.6,0-2.9-0.6-4.1-1.7c-1.1-1.1-1.7-2.5-1.7-4.1c0-1.6,0.6-3,1.7-4.1C470.6,481.1,471.9,480.5,473.5,480.5z"/>
		<path class="st1" d="M514.1,498.7l-1.7,12.2h-1.5c-0.2-3.2-1.2-5.7-2.9-7.5c-1.7-1.8-3.6-2.7-5.6-2.7c-1.2,0-2.2,0.4-3,1.1
			s-1.2,1.6-1.2,2.6c0,0.8,0.2,1.6,0.5,2.4c0.3,0.7,1.1,1.7,2.3,3c4.2,4.5,6.7,7.6,7.6,9.3c0.9,1.7,1.3,3.5,1.3,5.4
			c0,2.1-0.5,4.1-1.6,5.9c-1.1,1.9-2.6,3.3-4.7,4.5c-2.1,1.1-4.3,1.7-6.5,1.7c-1.5,0-3.4-0.3-5.7-0.9c-1.5-0.4-2.6-0.6-3.3-0.6
			c-0.7,0-1.2,0.1-1.5,0.3c-0.4,0.2-0.8,0.6-1.2,1.2h-1.5l1.9-13.2h1.3c0.9,3.2,1.8,5.5,2.6,6.8c0.8,1.4,1.9,2.4,3.2,3.2
			c1.3,0.8,2.6,1.2,3.9,1.2c1.5,0,2.7-0.5,3.6-1.4c0.9-0.9,1.4-2,1.4-3.3c0-1.2-0.3-2.4-0.9-3.6c-0.6-1.2-2-3-4.3-5.4
			c-3.1-3.3-5.1-5.9-6.1-7.8c-0.7-1.3-1-2.8-1-4.5c0-2.8,1-5.2,3.1-7.1s5-2.8,8.7-2.8c1.6,0,3.6,0.3,6,0.9c1.2,0.3,2.1,0.4,2.8,0.4
			c1,0,1.9-0.4,2.5-1.3H514.1z"/>
	</g>
	<g>
		<path class="st1" d="M376.9,536.2c-0.1,0-0.8,1-2.1,3c-0.1,0.1-0.1,0.2-0.1,0.2c0,0,0.2,0,0.5,0c0.8-0.1,2-0.1,3.7-0.1
			c3.2,0,5.7,0.5,7.6,1.5c1.5,0.8,2.3,1.7,2.3,2.8c0,0.3,0,0.6-0.1,0.9c-0.3,1.2-1.6,2.4-3.9,3.6c-2.3,1.2-5.4,1.8-9.3,1.7
			c-2.5-0.1-4.4-0.9-5.5-1.7c-0.5-0.4-0.9-1.1-0.9-1.5c0.1-0.2,0.3-0.5,0.4-0.4c0.1,0.3,0.4,0.8,0.9,1.3c1.1,0.8,3,1.2,4.3,1.2
			c3.1,0,5.6,0,7.5-0.9c1.8-0.8,2.9-1.8,3.2-3.1c0-0.2,0.1-0.3,0.1-0.4c0-1.2-1.1-2.2-3.4-3c-1.6-0.5-3.6-0.8-6.1-0.8
			c-0.2,0-0.6,0-1.3,0c-0.7,0-1.1,0-1.2,0c-0.5,0-0.7-0.1-0.6-0.3c0-0.1,0.5-0.9,1.6-2.4c0.6-0.8,1.1-1.6,1.7-2.5"/>
	</g>
</g>
</svg>
