<?xml version="1.0" encoding="utf-8"?>
<!-- Generator: Adobe Illustrator 25.2.3, SVG Export Plug-In . SVG Version: 6.00 Build 0)  -->
<svg version="1.1" id="Слой_1" xmlns="http://www.w3.org/2000/svg" xmlns:xlink="http://www.w3.org/1999/xlink" x="0px" y="0px"
	 viewBox="0 0 32 32" style="enable-background:new 0 0 32 32;" xml:space="preserve">
<style type="text/css">
	.st0{fill:#FFFFFF;}
	.st1{fill:#054CE8;}
	.st2{fill:#F90303;}
</style>
<rect x="0" class="st0" width="32" height="32"/>
<path class="st1" d="M31.4,9.6l-15-7.9c-0.2-0.1-0.5-0.1-0.8,0l-15,7.9C0.2,9.8-0.1,10.4,0,11c0,0.1,0,0.2,0.1,0.3
	C0,11.4,0,11.5,0,11.6V22c0,1.2,0.7,2.1,1.6,2.1s1.6-0.9,1.6-2.1v-8.6l12.5,5.8c0.1,0.1,0.2,0.1,0.4,0.1c0.1,0,0.2,0,0.4-0.1l15-7
	c0.6-0.3,0.8-1.1,0.6-1.8C31.9,10.1,31.6,9.7,31.4,9.6L31.4,9.6z"/>
<path class="st2" d="M24.2,18.6L16,22.5l-8.2-3.9c-0.6-0.3-1.2,0.1-1.4,0.9c0,0.1-0.1,0.3-0.1,0.5v7.1c0,0.6,0.3,1.1,0.7,1.3l6.4,3
	c1.6,0.7,3.4,0.7,5,0l6.4-3c0.4-0.2,0.7-0.7,0.7-1.3V20c0-0.8-0.5-1.4-1.1-1.4C24.4,18.5,24.3,18.6,24.2,18.6L24.2,18.6z"/>
</svg>
