<?xml version="1.0" encoding="utf-8"?>
<!-- Generator: Adobe Illustrator 25.2.3, SVG Export Plug-In . SVG Version: 6.00 Build 0)  -->
<svg version="1.1" id="Слой_1" xmlns="http://www.w3.org/2000/svg" xmlns:xlink="http://www.w3.org/1999/xlink" x="0px" y="0px"
	 viewBox="0 0 512 512" style="enable-background:new 0 0 512 512;" xml:space="preserve">
<style type="text/css">
	.st0{fill:#0D6EFD;}
</style>
<g id="_x30_3_Video_Lectures">
	<g>
		<g>
			<g>
				<path class="st0" d="M358.1,496.4c0,2.6-2.2,4.8-4.8,4.8H158.7c-2.7,0-4.8-2.2-4.8-4.8c0-2.7,2.1-4.8,4.8-4.8h21.9l17.3-39
					h116.3l17.2,39h22C356,491.5,358.1,493.7,358.1,496.4z"/>
			</g>
		</g>
		<g>
			<path class="st0" d="M471.1,129.1c0,8.3-1,16.5-2.6,24.5v208.2H43.6V148.5c0-11.7,9.5-21.2,21.2-21.2h153.5
				c0-3.2,0.1-6.4,0.4-9.6H64.8c-17,0-30.9,13.8-30.9,30.9v263.6c0,17,13.8,30.9,30.9,30.9h382.4c17,0,30.9-13.8,30.9-30.9V148.5
				C478.1,141.2,475.5,134.3,471.1,129.1z M268.1,407.2h-24.2c-2.7,0-4.8-2.2-4.8-4.8s2.2-4.8,4.8-4.8h24.2c2.7,0,4.8,2.2,4.8,4.8
				S270.8,407.2,268.1,407.2z"/>
			<path class="st0" d="M173,185.6c0-14-11.4-25.4-25.4-25.4c-14,0-25.5,11.4-25.5,25.4c0,13.7,11,34.7,25.5,34.7
				C162.1,220.3,173,199.3,173,185.6z"/>
			<path class="st0" d="M97.4,274.8c0,11.2,9.2,20.4,20.4,20.4h59.6c11.2,0,20.4-9.2,20.4-20.4c0-23.4-19-42.4-42.4-42.4h-15.6
				C116.4,232.3,97.4,251.3,97.4,274.8z"/>
			<path class="st0" d="M77.6,334.8c0,2.6,2.2,4.8,4.8,4.8h67.9c0.6,8.4,7.7,15,16.2,15c8.6,0,15.6-6.7,16.2-15h246.7
				c2.7,0,4.8-2.2,4.8-4.8c0-2.7-2.1-4.8-4.8-4.8H182.9c-0.6-8.4-7.7-15.1-16.3-15.1c-8.6,0-15.7,6.7-16.3,15.1H82.4
				C79.8,330,77.6,332.2,77.6,334.8z"/>
			<path class="st0" d="M229.6,258.9c1.7,0,3.4-0.4,5-1.2l53.8-27.7c17.2,9.5,36.6,14.5,56.4,14.5c32.2,0,63.3-13.5,85.3-37
				c20.5-21.9,31.5-50,31.5-79.8c0-2.6,0-5.2-0.2-7.9C457.4,61.3,410.4,14.5,351.8,11c-32.6-1.9-63.6,9.3-87.2,31.6
				s-36.7,52.5-36.7,85c0,22.8,6.6,44.8,19,63.9l-26.7,51.8c-2.2,4.2-1.4,9.1,1.9,12.4C224.2,257.8,226.8,258.9,229.6,258.9z
				 M311.7,108.5h83.1c2.7,0,4.8,2.2,4.8,4.8s-2.1,4.8-4.8,4.8h-83.1c-2.7,0-4.8-2.2-4.8-4.8S309,108.5,311.7,108.5z M311.7,151.6
				h34.9c2.7,0,4.8,2.2,4.8,4.8s-2.1,4.8-4.8,4.8h-34.9c-2.7,0-4.8-2.2-4.8-4.8S309,151.6,311.7,151.6z"/>
		</g>
	</g>
</g>
<g id="Layer_1">
</g>
</svg>
