<?xml version="1.0" encoding="utf-8"?>
<!-- Generator: Adobe Illustrator 25.2.3, SVG Export Plug-In . SVG Version: 6.00 Build 0)  -->
<svg version="1.1" id="Слой_1" xmlns="http://www.w3.org/2000/svg" xmlns:xlink="http://www.w3.org/1999/xlink" x="0px" y="0px"
	 viewBox="0 0 512 512" style="enable-background:new 0 0 512 512;" xml:space="preserve">
<style type="text/css">
	.st0{fill:#0D6EFD;}
</style>
<g>
	<g>
		<path class="st0" d="M472.8,125.6v245h-117c-15.6,0-29.3,11.1-32.6,26.4c-0.4,2.1-2.3,3.6-4.4,3.6H193.2c-2.1,0-3.9-1.5-4.4-3.6
			c-3.3-15.3-17-26.4-32.6-26.4h-117v-245c0-12.7,10.3-23.1,23.1-23.1h8.4c-0.7,1.6-1,3.4-1,5.1c0,6.1,3.8,11.5,9.5,13.6l41.8,15
			v80.1c0,19.4,15.8,35.1,35.2,35.1h183.6c19.3,0,35.1-15.8,35.1-35.1v-80.2l22.5-8.1v46.2c-9.7,5.1-16,15.3-16,26.7
			c0,16.7,13.7,30.4,30.4,30.4s30.4-13.7,30.4-30.4c0-11.4-6.3-21.6-16-26.8v-66.6c0-0.9-0.1-1.7-0.2-2.3c-0.1-1-0.4-1.9-0.8-2.8
			h24.4C462.4,102.5,472.8,112.9,472.8,125.6z"/>
		<path class="st0" d="M494.9,391.1c-5.5-6.9-13.7-10.9-22.4-10.9H355.8c-11.2,0-20.9,7.9-23.2,18.8c-1.4,6.5-7.2,11.2-13.8,11.2
			H193.2c-6.6,0-12.4-4.7-13.8-11.2c-2.3-10.9-12.1-18.8-23.2-18.8H39.5c-8.8,0-17,4-22.4,10.9c-5.5,6.9-7.5,15.8-5.5,24.4l7.1,30.4
			c3.1,13.1,14.6,22.2,27.9,22.2h418.7c13.4,0,24.9-9.1,27.9-22.2l7.1-30.4C502.4,406.8,500.4,398,494.9,391.1z M404.5,428.9h-4.6
			c-2.6,0-4.8-2.2-4.8-4.8s2.2-4.8,4.8-4.8h4.6c2.6,0,4.8,2.2,4.8,4.8C409.3,426.8,407.1,428.9,404.5,428.9z M433.9,428.9h-4.6
			c-2.6,0-4.8-2.2-4.8-4.8s2.2-4.8,4.8-4.8h4.6c2.6,0,4.8,2.2,4.8,4.8C438.7,426.8,436.6,428.9,433.9,428.9z M463.4,428.9h-4.5
			c-2.6,0-4.8-2.2-4.8-4.8s2.2-4.8,4.8-4.8h4.5c2.7,0,4.8,2.2,4.8,4.8C468.2,426.8,466,428.9,463.4,428.9z"/>
	</g>
	<g>
		<path class="st0" d="M365.3,139.6v76.7c0,14.1-11.4,25.5-25.5,25.5H156.2c-14.1,0-25.6-11.4-25.6-25.5v-76.7l112.4,40.4
			c1.6,0.6,3.3,0.9,4.9,0.9s3.3-0.3,4.9-0.9L365.3,139.6z"/>
	</g>
	<g>
		<path class="st0" d="M432.6,201c0,11.5-9.3,20.8-20.8,20.8c-11.4,0-20.8-9.3-20.8-20.8c0-9.8,6.8-18,16-20.2v-66.4L249.6,171
			c-0.5,0.2-1.1,0.3-1.6,0.3c-0.5,0-1.1-0.1-1.6-0.3L82.5,112.2c-1.9-0.7-3.2-2.5-3.2-4.5s1.3-3.8,3.2-4.5l163.9-58.9
			c1.1-0.4,2.2-0.4,3.2,0l163.9,58.8c0.1,0,0.2,0.1,0.3,0.1c0.2,0,0.4,0.2,0.6,0.3c0.1,0.1,0.3,0.2,0.4,0.3c0.2,0.1,0.4,0.3,0.5,0.5
			c0.2,0.2,0.4,0.4,0.6,0.7c0.1,0.2,0.3,0.5,0.4,0.7c0.1,0.3,0.2,0.6,0.3,1c0,0.3,0.1,0.6,0.1,0.9v73.2
			C425.9,183,432.6,191.2,432.6,201z"/>
	</g>
</g>
<g id="Layer_1">
</g>
</svg>
