<?xml version="1.0" encoding="utf-8"?>
<!-- Generator: Adobe Illustrator 25.2.3, SVG Export Plug-In . SVG Version: 6.00 Build 0)  -->
<svg version="1.1" id="Capa_1" xmlns="http://www.w3.org/2000/svg" xmlns:xlink="http://www.w3.org/1999/xlink" x="0px" y="0px"
	 viewBox="0 0 428 446" style="enable-background:new 0 0 428 446;" xml:space="preserve">
<style type="text/css">
	.st0{fill:#0D6EFD;}
</style>
<g>
	<path class="st0" d="M78.5,325c-10.6,10.6-10.6,27.9,0,38.5s27.9,10.6,38.5,0s10.6-27.9,0-38.5C106.4,314.3,89.1,314.3,78.5,325z"
		/>
	<path class="st0" d="M388.1,173.6c-2-2-5.1-2-7.1,0l-37.7,37.7L324,192c-2-2-5.1-2-7.1,0s-2,5.1,0,7.1l22.9,22.9
		c1,1,2.3,1.5,3.5,1.5s2.6-0.5,3.5-1.5l41.2-41.2C390.1,178.7,390.1,175.6,388.1,173.6z"/>
	<path class="st0" d="M352.5,136.3c-1.7,0-3.3,0.1-4.9,0.2V104c0-1.3-0.5-2.6-1.5-3.5l-88.9-88.9c-0.9-0.9-2.2-1.5-3.5-1.5H73.6
		c-8.3,0-15,6.7-15,15v241.5c0,2.8,2.2,5,5,5s5-2.2,5-5V25.1c0-2.8,2.2-5,5-5h175.1v15H93.6c-5.5,0-10,4.5-10,10v227.1
		c-3.9,0-7.7,1.9-10.1,5.3l-9.4,13.4c-0.3,0.5-0.8,0.8-1.4,1l-15.9,4.2c-5.9,1.6-9.7,7.1-9.2,13.2l1.4,16.4c0.1,0.6-0.1,1.2-0.4,1.7
		l-9.4,13.4c-3.5,5-2.9,11.7,1.4,16l6.9,6.9l-27,27c-2.8,2.8-4.4,6.6-4.4,10.6s1.6,7.8,4.4,10.6l19.7,19.7c2.8,2.8,6.6,4.4,10.6,4.4
		s7.8-1.6,10.6-4.4l9.3-9.3c2-2,2-5.1,0-7.1s-5.1-2-7.1,0l-9.3,9.3c-1.9,1.9-5.1,2-7.1,0l-19.7-19.7c-0.9-0.9-1.5-2.2-1.5-3.5
		s0.5-2.6,1.5-3.5L43,372.3l0,0l1.2,14.1c0.5,6.1,5.3,10.8,11.4,11.4l16.4,1.4c0.6,0.1,1.1,0.3,1.5,0.7l11.6,11.6
		c2.4,2.4,5.6,3.7,8.8,3.7c2.5,0,5-0.7,7.2-2.3l13.4-9.4c0.5-0.3,1.1-0.5,1.7-0.4l16.4,1.4c6.1,0.5,11.6-3.3,13.2-9.2l3.2-11.8
		h183.6c8.3,0,15-6.7,15-15V254.9c1.6,0.1,3.3,0.2,4.9,0.2c32.8,0,59.4-26.7,59.4-59.4S385.3,136.3,352.5,136.3z M258.6,27.2
		l71.9,71.9h-66.9c-2.8,0-5-2.2-5-5V27.2z M337.6,109v29.2c-5.4,1.4-10.4,3.5-15,6.2V109H337.6z M242.1,317.5c-2.8,0-5-2.2-5-5
		s2.2-5,5-5h56c2.8,0,5,2.2,5,5s-2.2,5-5,5H242.1z M288.1,332.5c0,2.8-2.2,5-5,5h-25.9c-2.8,0-5-2.2-5-5s2.2-5,5-5h25.9
		C285.8,327.5,288.1,329.7,288.1,332.5z M182.8,261.9c-2.8,0-5-2.2-5-5s2.2-5,5-5H275c2.8,0,5,2.2,5,5s-2.2,5-5,5H182.8z M107,61.7
		c6.3-6,15.8-6.6,22.7-1.6c1.3,0.9,3,0.9,4.4,0c6.9-5,16.4-4.4,22.7,1.6c7.2,6.9,7,18.6-0.1,25.7l-21.3,21.3c-2,2-5.1,2-7.1,0
		L107,87.4C100,80.3,99.8,68.6,107,61.7z M106.7,129.6h115.5c2.8,0,5,2.2,5,5s-2.2,5-5,5H106.7c-2.8,0-5-2.2-5-5
		S103.9,129.6,106.7,129.6z M101.7,175.2c0-8.3,6.7-15,15-15h150.5c8.3,0,15,6.7,15,15v10.6c0,8.3-6.7,15-15,15H116.7
		c-8.3,0-15-6.7-15-15V175.2z M106.7,221.3H275c2.8,0,5,2.2,5,5s-2.2,5-5,5H106.7c-2.8,0-5-2.2-5-5
		C101.7,223.6,103.9,221.3,106.7,221.3z M106.7,251.9h46.1c2.8,0,5,2.2,5,5s-2.2,5-5,5h-46.1c-2.8,0-5-2.2-5-5
		S103.9,251.9,106.7,251.9z M145.3,369.7c-2.4,1.7-4.1,4.2-4.9,7l-4.2,15.9c-0.3,1.2-1.4,2-2.6,1.8l-16.4-1.4
		c-2.9-0.3-5.9,0.5-8.3,2.2l-13.4,9.4c-1,0.7-2.3,0.6-3.2-0.3l-11.6-11.6c-2.1-2.1-4.8-3.4-7.7-3.6l-16.4-1.4
		c-1.2-0.1-2.2-1.1-2.3-2.3L52.9,369c-0.3-2.9-1.5-5.7-3.6-7.7l-11.6-11.6c-0.9-0.9-1-2.2-0.3-3.2l9.4-13.4c1.7-2.4,2.5-5.3,2.2-8.3
		l-1.4-16.4c-0.1-1.2,0.7-2.3,1.8-2.6l15.9-4.2c2.8-0.8,5.3-2.5,7-4.9l9.4-13.4c0.7-1,2-1.3,3.1-0.8l14.9,6.9
		c2.7,1.2,5.7,1.5,8.5,0.7l15.9-4.2c1.2-0.3,2.4,0.3,2.9,1.4l6.9,14.9c1.2,2.7,3.4,4.8,6,6l14.9,6.9c1.1,0.5,1.7,1.7,1.4,2.9
		l-4.2,15.9c-0.8,2.8-0.5,5.9,0.7,8.5l6.9,14.9c0.5,1.1,0.2,2.4-0.8,3.1L145.3,369.7z M337.6,368.4c0,2.8-2.2,5-5,5H157.5l7-4.9
		c3.4-2.4,5.3-6.2,5.3-10.1h142.8c5.5,0,10-4.5,10-10V247.1c4.6,2.7,9.6,4.8,15,6.2V368.4z M352.5,245.2
		c-27.3,0-49.4-22.2-49.4-49.4s22.2-49.4,49.4-49.4c27.3,0,49.4,22.2,49.4,49.4S379.8,245.2,352.5,245.2z"/>
</g>
</svg>
