<?xml version="1.0" encoding="utf-8"?>
<!-- Generator: Adobe Illustrator 25.2.3, SVG Export Plug-In . SVG Version: 6.00 Build 0)  -->
<svg version="1.1" id="Слой_1" xmlns="http://www.w3.org/2000/svg" xmlns:xlink="http://www.w3.org/1999/xlink" x="0px" y="0px"
	 viewBox="0 0 232 232" style="enable-background:new 0 0 232 232;" xml:space="preserve">
<style type="text/css">
	.st0{fill:#0D6EFD;}
</style>
<path class="st0" d="M137.6,199.7c-0.9-1.1-2.3-1.7-3.7-1.7H96.2c-1.4,0-2.8,0.6-3.7,1.7L72.4,224c-1.5,2.2-1,5.2,1.2,6.7
	c0.8,0.6,1.8,0.9,2.7,0.9h77.5c2.6,0,4.8-2.1,4.8-4.8c0-1-0.3-1.9-0.9-2.8L137.6,199.7z"/>
<path class="st0" d="M215.7,11H14.4C6.4,11,0,17.4,0,25.4V174c0,7.9,6.4,14.4,14.4,14.4h201.3c7.9,0,14.4-6.4,14.4-14.4V25.4
	C230.1,17.4,223.6,11,215.7,11z M210.9,150c0,2.6-2.1,4.8-4.8,4.8H24c-2.6,0-4.8-2.1-4.8-4.8V35c0-2.6,2.1-4.8,4.8-4.8h182.2
	c2.6,0,4.8,2.1,4.8,4.8V150z"/>
<path d="M188.4,67.3l-67.1-26.6c-1.1-0.5-2.4-0.5-3.5,0L50.7,67.3c-1.9,0.7-3.1,2.6-3,4.6c0,0.3,0.2,0.6,0.3,0.9
	c-0.2,0.5-0.3,0.9-0.3,1.4v35.1c0,4,3.2,7.2,7.2,7.2s7.2-3.2,7.2-7.2v-29l55.9,19.7c0.5,0.2,1,0.3,1.6,0.3c0.5,0,1.1-0.1,1.6-0.3
	l67.1-23.7c2.5-0.9,3.8-3.6,2.9-6.1C190.7,68.9,189.7,67.8,188.4,67.3L188.4,67.3z"/>
<path d="M156.3,97.7l-36.7,13l-36.8-13c-2.5-0.9-5.2,0.4-6.1,2.9c-0.2,0.5-0.3,1.1-0.3,1.6v24c0,2,1.3,3.8,3.2,4.5l28.8,10.2
	c7.2,2.5,15.1,2.5,22.3,0l28.8-10.2c1.9-0.7,3.2-2.5,3.2-4.5v-24c0-2.6-2.1-4.8-4.8-4.8C157.3,97.4,156.8,97.5,156.3,97.7
	L156.3,97.7z"/>
</svg>
