<?xml version="1.0" encoding="utf-8"?>
<!-- Generator: Adobe Illustrator 25.2.3, SVG Export Plug-In . SVG Version: 6.00 Build 0)  -->
<svg version="1.1" id="Слой_1" xmlns="http://www.w3.org/2000/svg" xmlns:xlink="http://www.w3.org/1999/xlink" x="0px" y="0px"
	 viewBox="0 0 512 512" style="enable-background:new 0 0 512 512;" xml:space="preserve">
<style type="text/css">
	.st0{fill:#0D6EFD;}
</style>
<g id="_x31_9_Online_Workshops">
	<g>
		<path class="st0" d="M290.1,84.6c0-0.6,0-1.2,0.1-1.8h-10.9c-0.6,3.2-1.4,6.4-2.5,9.6h15.1C290.8,90,290.1,87.3,290.1,84.6z"/>
		<path class="st0" d="M102.5,299.9h263.4c5.3,0,10.2-2.2,13.7-5.7c3.5-3.5,5.7-8.4,5.7-13.7V160.2c-3.3-0.9-6.5-2-9.6-3.4v80.5
			c0,0,0,0,0,0c0,5.4-4.4,9.8-9.8,9.8H102.5c-5.4,0-9.8-4.4-9.8-9.8V102.1c0-5.4,4.4-9.8,9.9-9.8h89.1c-1.2-3.2-2-6.4-2.6-9.6h-86.5
			c-10.7,0-19.5,8.7-19.5,19.4v135.2c0,0,0,0,0,0v43.1C83.1,291.2,91.8,299.9,102.5,299.9z"/>
		<path class="st0" d="M294.1,328.2h-17.8v-18.7h-84.2v18.7h-17.7c-2.7,0-4.8,2.1-4.8,4.8c0,2.6,2.1,4.8,4.8,4.8h119.7
			c2.6,0,4.8-2.2,4.8-4.8S296.7,328.2,294.1,328.2z"/>
		<path class="st0" d="M265.2,130.8h-62.1c-25.7,0-46.6,20.9-46.6,46.6v18.9h-11c-2.7,0-4.8,2.2-4.8,4.8c0,2.7,2.1,4.8,4.8,4.8
			h177.4c2.6,0,4.8-2.1,4.8-4.8c0-2.6-2.2-4.8-4.8-4.8h-11.1v-18.9C311.9,151.7,291,130.8,265.2,130.8z M235.3,172.4
			c-0.6,1.1-1.5,1.1-2.1,0l-16-32h34.1L235.3,172.4z"/>
		<path class="st0" d="M234.2,120.6c21.2,0,36.6-28.8,36.6-48.3c0-20.2-16.4-36.6-36.6-36.6s-36.6,16.4-36.6,36.6
			C197.6,91.7,213,120.6,234.2,120.6z"/>
		<path class="st0" d="M460.6,34.9c-13.3-14.9-31.5-23.5-51.3-24c-19.7-0.6-38.6,6.8-52.6,20.9c-9.6,9.6-16.2,21.5-19.2,34.7
			l-31.9,10.2c-3.4,1.1-5.8,4.3-5.8,7.9s2.3,6.8,5.8,7.9l33.3,10.6c3.4,11.2,9.5,21.4,17.8,29.7c13.4,13.4,31.6,20.9,50.5,20.9
			c0.8,0,1.6,0,2.4,0c19.9-0.7,38.2-9.3,51.4-24.4C484.5,102.3,484.4,61.7,460.6,34.9z M403.7,106.4H383c-2.7,0-4.8-2.2-4.8-4.8
			s2.1-4.8,4.8-4.8h20.7c2.7,0,4.8,2.2,4.8,4.8S406.3,106.4,403.7,106.4z M432.3,80.9l-49.4,0c-2.7,0-4.8-2.2-4.8-4.8
			c0-2.7,2.1-4.8,4.8-4.8l49.4,0c2.7,0,4.8,2.2,4.8,4.8C437.1,78.7,435,80.9,432.3,80.9z"/>
		
			<ellipse transform="matrix(0.9985 -5.530039e-02 5.530039e-02 0.9985 -20.9135 5.6334)" class="st0" cx="91.3" cy="380.7" rx="34.3" ry="34.3"/>
		<path class="st0" d="M386.2,429.4H368c-26.9,0-48.7,21.9-48.7,48.7c0,12.7,10.3,23.1,23,23.1h69.6c12.7,0,23-10.3,23-23.1
			C434.9,451.3,413.1,429.4,386.2,429.4z"/>
		<path class="st0" d="M243.3,429.4h-18.2c-26.9,0-48.7,21.9-48.7,48.7c0,12.7,10.3,23.1,23,23.1H269c12.7,0,23.1-10.3,23.1-23.1
			C292,451.3,270.2,429.4,243.3,429.4z"/>
		<path class="st0" d="M100.4,429.4H82.2c-26.9,0-48.7,21.9-48.7,48.7c0,12.7,10.3,23.1,23.1,23.1h69.5c12.7,0,23-10.3,23-23.1
			C149.1,451.3,127.3,429.4,100.4,429.4z"/>
		<path class="st0" d="M342.8,380.7c0,18.9,15.4,34.3,34.3,34.3c18.9,0,34.2-15.4,34.2-34.3c0-18.9-15.3-34.3-34.2-34.3
			C358.2,346.4,342.8,361.8,342.8,380.7z"/>
		<circle class="st0" cx="234.2" cy="380.7" r="34.3"/>
	</g>
</g>
<g id="Layer_1">
</g>
</svg>
