<?xml version="1.0" encoding="utf-8"?>
<!-- Generator: Adobe Illustrator 25.2.3, SVG Export Plug-In . SVG Version: 6.00 Build 0)  -->
<svg version="1.1" id="Layer_1" xmlns="http://www.w3.org/2000/svg" xmlns:xlink="http://www.w3.org/1999/xlink" x="0px" y="0px"
	 viewBox="0 0 188 229" style="enable-background:new 0 0 188 229;" xml:space="preserve">
<style type="text/css">
	.st0{fill:#0D6EFD;}
	.st1{fill:#F91212;}
</style>
<path class="st0" d="M174,124.3h-11V117c0-1.6-1-3-2.5-3.5L141,107v-1c0-2-1.7-3.7-3.7-3.7c-19.8,0-36.8,12.1-44,29.3
	c-7.2-17.2-24.2-29.3-44-29.3c-2,0-3.7,1.7-3.7,3.7v1l-19.5,6.5c-1.5,0.5-2.5,1.9-2.5,3.5v7.3h-11c-2,0-3.7,1.7-3.7,3.7v88
	c0,2,1.6,3.7,3.7,3.7h60.8l6.3,6.3c0.7,0.7,1.6,1.1,2.6,1.1h22c1,0,1.9-0.4,2.6-1.1l6.3-6.3h60.8c2,0,3.7-1.7,3.7-3.7v-88
	C177.7,126,176.1,124.3,174,124.3L174,124.3z M31,189.7v-70l14.7-4.9v64.6c0,2,1.7,3.7,3.7,3.7c16.5,0,30.8,10,37,24.3
	C67.3,187.4,41.4,188.3,31,189.7z M97,150c0-21,16.1-38.3,36.7-40.2v66c-15.4,1.2-28.8,9.8-36.7,22.2V150L97,150z M170.3,212.3
	h-58.7c-1,0-1.9,0.4-2.6,1.1l-6.3,6.3h-3c20.6-30.9,57-22.5,58.6-22.1c1.1,0.3,2.2,0,3.2-0.7c0.9-0.7,1.4-1.8,1.4-2.9v-62.3h7.3
	L170.3,212.3L170.3,212.3z"/>
<path class="st1" d="M93.3,102.3c26.3,0,47.7-21.4,47.7-47.7S119.6,7,93.3,7S45.7,28.4,45.7,54.7S67,102.3,93.3,102.3z M89.7,32.7
	H97V40h-7.3V32.7z M89.7,43.7H97v36.7h-7.3V43.7z"/>
</svg>
